STARTFONT 2.1
COMMENT
COMMENT Converted from OpenType font "Ubuntu-Regular.ttf" by "otf2bdf 3.0".
COMMENT
FONT -FreeType-Ubuntu-Medium-R-Normal--55-400-100-100-P-294-ISO10646-1
SIZE 40 100 100
FONTBOUNDINGBOX 202 64 -9 -11
STARTPROPERTIES 19
FOUNDRY "FreeType"
FAMILY_NAME "Ubuntu"
WEIGHT_NAME "Medium"
SLANT "R"
SETWIDTH_NAME "Normal"
ADD_STYLE_NAME ""
PIXEL_SIZE 55
POINT_SIZE 400
RESOLUTION_X 100
RESOLUTION_Y 100
SPACING "P"
AVERAGE_WIDTH 294
CHARSET_REGISTRY "ISO10646"
CHARSET_ENCODING "1"
FONT_ASCENT 52
FONT_DESCENT 10
COPYRIGHT "Copyright 2011 Canonical Ltd.  Licensed under the Ubuntu Font Licence 1.0"
_OTF_FONTFILE "Ubuntu-Regular.ttf"
_OTF_PSNAME "Ubuntu-Regular"
ENDPROPERTIES
CHARS 1194
STARTCHAR 0000
ENCODING 0
SWIDTH 0 0
DWIDTH 0 0
BBX 0 0 0 0
BITMAP
ENDCHAR
STARTCHAR 0008
ENCODING 8
SWIDTH 0 0
DWIDTH 0 0
BBX 0 0 0 0
BITMAP
ENDCHAR
STARTCHAR 0009
ENCODING 9
SWIDTH 216 0
DWIDTH 12 0
BBX 0 0 0 0
BITMAP
ENDCHAR
STARTCHAR 000D
ENCODING 13
SWIDTH 216 0
DWIDTH 12 0
BBX 0 0 0 0
BITMAP
ENDCHAR
STARTCHAR 001D
ENCODING 29
SWIDTH 0 0
DWIDTH 0 0
BBX 0 0 0 0
BITMAP
ENDCHAR
STARTCHAR 0020
ENCODING 32
SWIDTH 216 0
DWIDTH 12 0
BBX 0 0 0 0
BITMAP
ENDCHAR
STARTCHAR 0021
ENCODING 33
SWIDTH 270 0
DWIDTH 15 0
BBX 7 40 4 -1
BITMAP
7C
7C
7C
7C
7C
7C
7C
7C
7C
7C
7C
7C
7C
7C
7C
7C
7C
7C
7C
7C
7C
7C
3C
3C
3C
38
38
00
00
00
00
00
38
7C
FE
FE
FE
FE
7C
38
ENDCHAR
STARTCHAR 0022
ENCODING 34
SWIDTH 414 0
DWIDTH 23 0
BBX 15 14 4 28
BITMAP
F83E
F83E
F83E
F83E
F83E
F83E
F83E
F83E
F83E
F83E
783E
781C
701C
701C
ENDCHAR
STARTCHAR 0023
ENCODING 35
SWIDTH 666 0
DWIDTH 37 0
BBX 31 39 3 0
BITMAP
003E00F0
003E00F0
003C01F0
007C01F0
007C01F0
007C01E0
007C01E0
007803E0
007803E0
00F803E0
00F803C0
FFFFFFFE
FFFFFFFE
FFFFFFFE
FFFFFFFE
01F00780
01F00780
01E00F80
01E00F80
03E00F80
03E00F80
03E00F00
03E01F00
03C01F00
07C01F00
FFFFFFFE
FFFFFFFE
FFFFFFFE
FFFFFFFE
0F803E00
0F803E00
0F803C00
0F803C00
0F007C00
0F007C00
1F007C00
1F007800
1F007800
1E00F800
ENDCHAR
STARTCHAR 0024
ENCODING 36
SWIDTH 558 0
DWIDTH 31 0
BBX 25 49 3 -6
BITMAP
003E0000
003E0000
003E0000
003E0000
003E0000
003E0000
007FE000
03FFFC00
07FFFE00
1FFFFC00
1FF9FC00
3F800C00
3F000000
7E000000
7E000000
7E000000
7E000000
7E000000
7F000000
3F800000
3FE00000
1FFC0000
0FFF8000
03FFE000
00FFF000
003FFC00
0007FE00
0001FE00
00007F00
00003F00
00001F80
00001F80
00001F80
00001F80
00001F80
00003F00
70007F00
7F03FE00
7FFFFE00
FFFFFC00
3FFFF000
07FF8000
003E0000
003E0000
003E0000
003E0000
003E0000
003E0000
003E0000
ENDCHAR
STARTCHAR 0025
ENCODING 37
SWIDTH 846 0
DWIDTH 47 0
BBX 42 40 3 -1
BITMAP
07F00007C000
1FFC0007C000
3FFE000F8000
7FFF001F8000
7C1F001F0000
F80F803E0000
F807803E0000
F007807C0000
F007807C0000
F00780F80000
F00780F80000
F00781F00000
F00783E00000
F80F83E00000
780F87C00000
7C1F07C00000
3FFF0F800000
3FFE0F800000
1FFC1F000000
07F03F00E000
00003E07F800
00007C1FFE00
00007C3FFF00
0000F83F3F00
0000F87C0F80
0001F0780780
0003F0F807C0
0003E0F807C0
0007C0F807C0
0007C0F803C0
000F80F803C0
000F80F807C0
001F00F807C0
001F00780780
003E007C0F80
007C003E1F80
007C003FFF00
00F8001FFE00
00F8000FFC00
00000003E000
ENDCHAR
STARTCHAR 0026
ENCODING 38
SWIDTH 666 0
DWIDTH 37 0
BBX 33 40 3 -1
BITMAP
007FC00000
01FFF00000
03FFF80000
07FFFC0000
07E0FC0000
0F807E0000
0F803E0000
0F803E0000
0F803E0000
0F803E0000
0F803E0000
0F807C0000
0FC07C0000
07C0F80000
07E1F00000
03F7E00000
01FFC00000
00FF800000
03FE000000
07FF000000
1FDF803E00
3F8FC03E00
3E07E03E00
7C03F03C00
FC01F87C00
F800FC7C00
F800FE7800
F8007FF800
F8003FF000
F8001FF000
F8000FE000
F80007F000
FC000FF800
7E001FF800
7F80FFFC00
3FFFFE7E00
1FFFFC3F00
0FFFF01F00
03FFC00F80
0018000000
ENDCHAR
STARTCHAR 0027
ENCODING 39
SWIDTH 234 0
DWIDTH 13 0
BBX 5 14 4 28
BITMAP
F8
F8
F8
F8
F8
F8
F8
F8
F8
F8
78
78
70
70
ENDCHAR
STARTCHAR 0028
ENCODING 40
SWIDTH 324 0
DWIDTH 18 0
BBX 13 53 4 -9
BITMAP
0060
00F8
00F8
01F0
03F0
03E0
07E0
07C0
0FC0
0F80
1F80
1F00
1F00
3E00
3E00
3E00
7E00
7C00
7C00
7C00
7C00
7C00
FC00
FC00
FC00
FC00
FC00
FC00
FC00
FC00
FC00
7C00
7C00
7C00
7C00
7C00
7E00
3E00
3E00
3F00
1F00
1F00
0F80
0F80
0FC0
07C0
07E0
03E0
01F0
01F8
00F8
0078
0060
ENDCHAR
STARTCHAR 0029
ENCODING 41
SWIDTH 324 0
DWIDTH 18 0
BBX 13 53 1 -9
BITMAP
3000
F800
F800
FC00
7E00
3E00
3F00
1F00
1F80
0F80
0FC0
07C0
07C0
03E0
03E0
03E0
03F0
01F0
01F0
01F0
01F0
01F0
01F8
01F8
01F8
01F8
01F8
01F8
01F8
01F8
01F0
01F0
01F0
01F0
01F0
01F0
03E0
03E0
03E0
07E0
07C0
07C0
0F80
0F80
1F80
1F00
3F00
3E00
7C00
FC00
F800
F000
3000
ENDCHAR
STARTCHAR 002A
ENCODING 42
SWIDTH 468 0
DWIDTH 26 0
BBX 22 21 2 17
BITMAP
007C00
007C00
007C00
007C00
007C00
007800
707818
7C387C
7F39FC
FFFFFC
FFFFFC
0FFFE0
007C00
00FE00
01EF00
03CF80
07C7C0
0F87E0
1F83F0
0F03E0
0701C0
ENDCHAR
STARTCHAR 002B
ENCODING 43
SWIDTH 558 0
DWIDTH 31 0
BBX 25 27 3 3
BITMAP
003E0000
003E0000
003E0000
003E0000
003E0000
003E0000
003E0000
003E0000
003E0000
003E0000
003E0000
FFFFFF80
FFFFFF80
FFFFFF80
FFFFFF80
FFFFFF80
003E0000
003E0000
003E0000
003E0000
003E0000
003E0000
003E0000
003E0000
003E0000
003E0000
003E0000
ENDCHAR
STARTCHAR 002C
ENCODING 44
SWIDTH 234 0
DWIDTH 13 0
BBX 8 15 2 -9
BITMAP
3F
3F
3F
3F
3F
3F
3E
3E
3E
3E
7C
7C
78
F8
10
ENDCHAR
STARTCHAR 002D
ENCODING 45
SWIDTH 288 0
DWIDTH 16 0
BBX 14 5 1 14
BITMAP
FFFC
FFFC
FFFC
FFFC
FFFC
ENDCHAR
STARTCHAR 002E
ENCODING 46
SWIDTH 234 0
DWIDTH 13 0
BBX 8 8 3 -1
BITMAP
38
7E
FE
FF
FF
FE
7E
18
ENDCHAR
STARTCHAR 002F
ENCODING 47
SWIDTH 378 0
DWIDTH 21 0
BBX 24 54 -1 -10
BITMAP
00003F
00003E
00003E
00007E
00007C
00007C
0000FC
0000F8
0000F8
0001F8
0001F0
0001F0
0003F0
0003E0
0003E0
0007C0
0007C0
0007C0
000F80
000F80
001F80
001F00
001F00
003F00
003E00
003E00
007E00
007C00
007C00
00FC00
00F800
00F800
01F800
01F000
01F000
03E000
03E000
03E000
07C000
07C000
0FC000
0F8000
0F8000
1F8000
1F0000
1F0000
3F0000
3E0000
3E0000
7E0000
7C0000
7C0000
FC0000
F80000
ENDCHAR
STARTCHAR 0030
ENCODING 48
SWIDTH 558 0
DWIDTH 31 0
BBX 26 40 3 -1
BITMAP
00FF8000
03FFE000
07FFF000
0FFFF800
1FE1FC00
1F80FE00
3F007E00
3E003F00
7E003F00
7E001F00
7C001F80
7C001F80
FC000F80
FC000F80
F8000F80
F8000F80
F8000F80
F8000FC0
F8000FC0
F8000FC0
F8000FC0
F8000FC0
F8000F80
F8000F80
F8000F80
FC000F80
FC000F80
FC001F80
7C001F80
7C001F00
7E001F00
3E003F00
3F003E00
1F807E00
1FC0FC00
0FFFF800
07FFF800
03FFF000
01FFC000
003F0000
ENDCHAR
STARTCHAR 0031
ENCODING 49
SWIDTH 558 0
DWIDTH 31 0
BBX 16 39 5 0
BITMAP
000F
001F
003F
007F
00FF
03FF
0FFF
3FFF
FFBF
7F3F
7C3F
703F
003F
003F
003F
003F
003F
003F
003F
003F
003F
003F
003F
003F
003F
003F
003F
003F
003F
003F
003F
003F
003F
003F
003F
003F
003F
003F
003F
ENDCHAR
STARTCHAR 0032
ENCODING 50
SWIDTH 558 0
DWIDTH 31 0
BBX 24 39 3 0
BITMAP
03FF80
0FFFE0
3FFFF0
7FFFF8
FF87FC
7C01FC
3000FC
20007E
00007E
00007E
00007E
00007E
00007E
00007C
0000FC
0000FC
0001F8
0003F0
0007F0
000FE0
001FC0
003F80
007F00
00FE00
01FC00
03F800
03F000
07E000
0FC000
1F8000
1F0000
3F0000
3E0000
7E0000
7E0000
7FFFFF
7FFFFF
7FFFFF
7FFFFF
ENDCHAR
STARTCHAR 0033
ENCODING 51
SWIDTH 558 0
DWIDTH 31 0
BBX 24 40 3 -1
BITMAP
07FF00
1FFFC0
7FFFF0
7FFFF0
3E07F8
3801FC
0000FC
00007C
00007C
00007C
00007C
00007C
00007C
0000FC
0001F8
0003F0
01FFE0
01FFC0
01FFC0
01FFF0
01FFF8
0003FC
0000FE
00007E
00003F
00003F
00001F
00001F
00001F
00001F
00003F
00003F
00007E
0000FE
7001FC
7FFFFC
FFFFF8
FFFFE0
3FFF80
03FC00
ENDCHAR
STARTCHAR 0034
ENCODING 52
SWIDTH 558 0
DWIDTH 31 0
BBX 27 39 2 0
BITMAP
00007C00
00007C00
0000FC00
0001FC00
0003FC00
0007FC00
000FFC00
001FFC00
001F7C00
003E7C00
007C7C00
00F87C00
00F87C00
01F07C00
03E07C00
03E07C00
07C07C00
07807C00
0F807C00
1F007C00
1F007C00
3E007C00
3C007C00
7C007C00
78007C00
FFFFFFE0
FFFFFFE0
FFFFFFE0
FFFFFFE0
00007C00
00007C00
00007C00
00007C00
00007C00
00007C00
00007C00
00007C00
00007C00
00007C00
ENDCHAR
STARTCHAR 0035
ENCODING 53
SWIDTH 558 0
DWIDTH 31 0
BBX 23 40 4 -1
BITMAP
1FFFFC
1FFFFC
1FFFFC
1FFFFC
1FFFFC
1F0000
1F0000
1F0000
1F0000
1F0000
1E0000
1E0000
1E0000
1E0000
3E0000
3F8000
3FFE00
3FFF80
3FFFE0
3FFFF0
001FF8
0003FC
0000FC
00007E
00007E
00007E
00003E
00003E
00003E
00003E
00003E
00007E
00007E
0001FC
F003FC
FFFFF8
FFFFF0
FFFFC0
7FFF80
07F800
ENDCHAR
STARTCHAR 0036
ENCODING 54
SWIDTH 558 0
DWIDTH 31 0
BBX 26 40 3 -1
BITMAP
00000600
0001FE00
000FFE00
003FFE00
007FFE00
01FF8000
03FC0000
07F00000
07E00000
0FC00000
1F800000
1F800000
3F000000
3F000000
3E000000
7E070000
7EFFE000
7FFFF800
7FFFFC00
7FFFFE00
7E007F00
7C003F00
FC001F80
FC001F80
FC000F80
7C000F80
7C000F80
7C000FC0
7C000F80
7C000F80
7E000F80
3E001F80
3F001F00
1F003F00
1FC07E00
0FFBFE00
07FFFC00
03FFF800
01FFE000
003F0000
ENDCHAR
STARTCHAR 0037
ENCODING 55
SWIDTH 558 0
DWIDTH 31 0
BBX 25 39 3 0
BITMAP
FFFFFF80
FFFFFF80
FFFFFF80
FFFFFF80
FFFFFF80
00001F00
00003F00
00007E00
0000FC00
0000F800
0001F800
0001F000
0003F000
0003E000
0007E000
0007C000
000FC000
000F8000
001F8000
001F0000
001F0000
003F0000
003E0000
007E0000
007C0000
007C0000
00FC0000
00F80000
00F80000
00F80000
01F80000
01F00000
01F00000
01F00000
01F00000
03F00000
03F00000
03F00000
03E00000
ENDCHAR
STARTCHAR 0038
ENCODING 56
SWIDTH 558 0
DWIDTH 31 0
BBX 25 40 3 -1
BITMAP
00FFC000
03FFF000
0FFFF800
1FFFFC00
1FC0FE00
3F007E00
3E003F00
7E001F00
7C001F00
7C001F00
7C001F00
7C001F00
7E001F00
7E003F00
3F003E00
3F807C00
1FE0FC00
0FFBF800
07FFF000
03FFE000
07FFF800
0FCFFC00
1F01FE00
3E007F00
7E003F00
7C001F80
FC000F80
F8000F80
F8000F80
F8000F80
F8000F80
FC000F80
7C001F80
7E003F00
7F007F00
3FF7FE00
1FFFFC00
0FFFF800
03FFE000
007F0000
ENDCHAR
STARTCHAR 0039
ENCODING 57
SWIDTH 558 0
DWIDTH 31 0
BBX 25 39 3 0
BITMAP
01FF8000
07FFE000
0FFFF000
1FFFF800
3F81FC00
3F00FE00
7E007E00
7C003E00
FC003F00
F8001F00
F8001F00
F8001F80
F8001F80
F8001F80
F8001F80
FC001F80
FC001F80
7E001F80
7F001F80
3FC1FF80
1FFFFF80
0FFFFF00
07FFFF00
00FF1F00
00003F00
00003F00
00003E00
00007E00
00007C00
0000FC00
0001F800
0003F800
000FF000
003FE000
03FFC000
3FFF0000
3FFE0000
3FF00000
3F800000
ENDCHAR
STARTCHAR 003A
ENCODING 58
SWIDTH 234 0
DWIDTH 13 0
BBX 8 30 3 -1
BITMAP
3C
7E
FE
FF
FF
FE
7E
08
00
00
00
00
00
00
00
00
00
00
00
00
00
00
38
7E
FE
FF
FF
FE
7E
18
ENDCHAR
STARTCHAR 003B
ENCODING 59
SWIDTH 234 0
DWIDTH 13 0
BBX 9 38 2 -9
BITMAP
1E00
3F00
7F00
7F80
7F80
7F00
3F00
0400
0000
0000
0000
0000
0000
0000
0000
0000
0000
0000
0000
0000
0000
0000
0000
3F00
3F00
3F00
3F00
3F00
3F00
3E00
3E00
3E00
3E00
7C00
7C00
7800
F800
1000
ENDCHAR
STARTCHAR 003C
ENCODING 60
SWIDTH 558 0
DWIDTH 31 0
BBX 25 25 3 4
BITMAP
00000100
00000F00
00003F80
0000FF80
0007FF80
001FFC00
007FF000
03FFC000
0FFE0000
3FF80000
FFC00000
FF000000
FC000000
FF000000
FFE00000
3FF80000
0FFF0000
01FFC000
007FF800
001FFE00
0003FF80
0000FF80
00001F80
00000700
00000100
ENDCHAR
STARTCHAR 003D
ENCODING 61
SWIDTH 558 0
DWIDTH 31 0
BBX 25 17 3 8
BITMAP
FFFFFF80
FFFFFF80
FFFFFF80
FFFFFF80
FFFFFF80
00000000
00000000
00000000
00000000
00000000
00000000
00000000
FFFFFF80
FFFFFF80
FFFFFF80
FFFFFF80
FFFFFF80
ENDCHAR
STARTCHAR 003E
ENCODING 62
SWIDTH 558 0
DWIDTH 31 0
BBX 25 25 3 4
BITMAP
60000000
78000000
7E000000
FFC00000
FFF00000
1FFC0000
07FF8000
00FFE000
003FF800
0007FF00
0001FF80
00007F80
00001F80
00007F80
0001FF80
000FFE00
003FF800
01FFE000
07FF0000
3FFC0000
FFF00000
FF800000
7E000000
70000000
40000000
ENDCHAR
STARTCHAR 003F
ENCODING 63
SWIDTH 396 0
DWIDTH 22 0
BBX 20 40 1 -1
BITMAP
1FFE00
7FFF00
FFFFC0
7FFFC0
780FE0
4007E0
0003F0
0003F0
0001F0
0001F0
0003F0
0003E0
0003E0
0007C0
000FC0
001F80
003F00
007E00
00FC00
01F800
01F000
03F000
03E000
03E000
03C000
03C000
03C000
000000
000000
000000
000000
000000
01C000
03E000
07F000
07F000
07F000
07F000
03E000
01C000
ENDCHAR
STARTCHAR 0040
ENCODING 64
SWIDTH 936 0
DWIDTH 52 0
BBX 45 48 4 -9
BITMAP
0000FFFC0000
0007FFFF8000
001FFFFFE000
007FFFFFF000
00FF800FFC00
01FE0001FE00
03F800007F00
07E000003F80
0FC000001F80
1F8000000FC0
1F00000007E0
3F001FFE03E0
3E007FFF83F0
7E01FFFF81F0
7C03FFFF81F0
7C07F81F80F8
F807E01F80F8
F80FC01F80F8
F80F801F80F8
F81F801F80F8
F81F801F80F8
F01F001F80F8
F01F001F80F8
F01F001F80F8
F01F001F80F8
F01F001F80F8
F81F801F80F8
F81F801F81F0
F80F801F81F0
F80FC01F81F0
F80FE00F83E0
7C07F01F87E0
7C03FFFFFFC0
7C01FFFFFF80
3E00FFFFFF00
3F003FF3FE00
1F0000006000
1F8000000000
0FC000000000
07E000000000
07F800000000
03FE00000000
00FF80010000
007FFFFF0000
001FFFFF0000
0007FFFF0000
0000FFFF0000
000001800000
ENDCHAR
STARTCHAR 0041
ENCODING 65
SWIDTH 648 0
DWIDTH 36 0
BBX 35 39 1 0
BITMAP
0001F00000
0003F00000
0003F80000
0003F80000
0007FC0000
0007FC0000
000FFE0000
000FBE0000
001F3F0000
001F3F0000
003F1F0000
003E1F8000
003E0F8000
007C0FC000
007C07C000
00FC07C000
00F807E000
00F803E000
01F003F000
01F003F000
03F001F000
03E001F800
03E000F800
07E000FC00
07C000FC00
0FFFFFFC00
0FFFFFFE00
0FFFFFFE00
1FFFFFFF00
1F00003F00
1F00003F00
3F00001F80
3E00001F80
7E00001F80
7E00000FC0
7C00000FC0
FC000007C0
FC000007E0
F8000007E0
ENDCHAR
STARTCHAR 0042
ENCODING 66
SWIDTH 630 0
DWIDTH 35 0
BBX 28 39 5 0
BITMAP
1FFE0000
FFFFF000
FFFFFC00
FFFFFE00
FFFFFF00
F800FF80
F8003F80
F8001FC0
F8000FC0
F8000FC0
F8000FC0
F8000FC0
F8000FC0
F8000F80
F8001F80
F8003F00
F803FF00
FFFFFC00
FFFFF800
FFFFFE00
FFFFFF80
F8007FC0
F8000FE0
F80007E0
F80003E0
F80003F0
F80003F0
F80003F0
F80003F0
F80003F0
F80003F0
F80007E0
F8000FE0
F8001FC0
F801FFC0
FFFFFF80
FFFFFF00
FFFFFC00
FFFFE000
ENDCHAR
STARTCHAR 0043
ENCODING 67
SWIDTH 612 0
DWIDTH 34 0
BBX 30 40 3 -1
BITMAP
0007FF80
003FFFF0
00FFFFFC
01FFFFF8
03FF87F8
07F80078
0FF00000
0FC00000
1F800000
3F800000
3F000000
3F000000
7E000000
7E000000
7E000000
7C000000
FC000000
FC000000
FC000000
FC000000
FC000000
FC000000
FC000000
FC000000
7C000000
7E000000
7E000000
7E000000
3F000000
3F000000
3F800000
1FC00000
0FE00000
0FF00018
07FE00F8
03FFFFF8
01FFFFFC
007FFFFC
001FFFF0
0003FE00
ENDCHAR
STARTCHAR 0044
ENCODING 68
SWIDTH 702 0
DWIDTH 39 0
BBX 31 39 5 0
BITMAP
1FFE0000
FFFFE000
FFFFFC00
FFFFFF00
FFFFFF80
F800FFC0
F8001FE0
F8000FF0
F80003F8
F80001F8
F80001FC
F80000FC
F80000FC
F800007E
F800007E
F800007E
F800007E
F800003E
F800003E
F800003E
F800003E
F800003E
F800007E
F800007E
F800007E
F800007E
F800007E
F80000FC
F80000FC
F80001F8
F80003F8
F80007F0
F8000FE0
F8003FE0
FC0FFF80
FFFFFF00
FFFFFE00
FFFFF800
FFFF8000
ENDCHAR
STARTCHAR 0045
ENCODING 69
SWIDTH 558 0
DWIDTH 31 0
BBX 25 39 5 0
BITMAP
FFFFFE00
FFFFFE00
FFFFFE00
FFFFFE00
FFFFFE00
F8000000
F8000000
F8000000
F8000000
F8000000
F8000000
F8000000
F8000000
F8000000
F8000000
F8000000
F8000000
FFFFF800
FFFFF800
FFFFF800
FFFFF800
F8000000
F8000000
F8000000
F8000000
F8000000
F8000000
F8000000
F8000000
F8000000
F8000000
F8000000
F8000000
F8000000
FFFFFF80
FFFFFF80
FFFFFF80
FFFFFF80
FFFFFF80
ENDCHAR
STARTCHAR 0046
ENCODING 70
SWIDTH 522 0
DWIDTH 29 0
BBX 23 39 5 0
BITMAP
FFFFFE
FFFFFE
FFFFFE
FFFFFE
FFFFFE
F80000
F80000
F80000
F80000
F80000
F80000
F80000
F80000
F80000
F80000
F80000
F80000
FFFFF8
FFFFF8
FFFFF8
FFFFF8
F80000
F80000
F80000
F80000
F80000
F80000
F80000
F80000
F80000
F80000
F80000
F80000
F80000
F80000
F80000
F80000
F80000
F80000
ENDCHAR
STARTCHAR 0047
ENCODING 71
SWIDTH 666 0
DWIDTH 37 0
BBX 31 40 3 -1
BITMAP
0007FFC0
003FFFF8
00FFFFFC
01FFFFFC
03FF87FC
07F80038
0FF00008
0FC00000
1F800000
3F800000
3F000000
3F000000
7E000000
7E000000
7E000000
7C000000
FC000000
FC000000
FC000000
FC000000
FC00007E
FC00007E
FC00007E
FC00007E
7C00007E
7E00007E
7E00007E
7E00007E
3F00007E
3F00007E
3F80007E
1FC0007E
0FE0007E
0FF0007E
07FE007E
03FFFFFE
01FFFFFE
007FFFFE
001FFFF8
0001FE00
ENDCHAR
STARTCHAR 0048
ENCODING 72
SWIDTH 702 0
DWIDTH 39 0
BBX 29 39 5 0
BITMAP
F80000F8
F80000F8
F80000F8
F80000F8
F80000F8
F80000F8
F80000F8
F80000F8
F80000F8
F80000F8
F80000F8
F80000F8
F80000F8
F80000F8
F80000F8
F80000F8
F80000F8
FFFFFFF8
FFFFFFF8
FFFFFFF8
FFFFFFF8
F80000F8
F80000F8
F80000F8
F80000F8
F80000F8
F80000F8
F80000F8
F80000F8
F80000F8
F80000F8
F80000F8
F80000F8
F80000F8
F80000F8
F80000F8
F80000F8
F80000F8
F80000F8
ENDCHAR
STARTCHAR 0049
ENCODING 73
SWIDTH 252 0
DWIDTH 14 0
BBX 5 39 5 0
BITMAP
F8
F8
F8
F8
F8
F8
F8
F8
F8
F8
F8
F8
F8
F8
F8
F8
F8
F8
F8
F8
F8
F8
F8
F8
F8
F8
F8
F8
F8
F8
F8
F8
F8
F8
F8
F8
F8
F8
F8
ENDCHAR
STARTCHAR 004A
ENCODING 74
SWIDTH 486 0
DWIDTH 27 0
BBX 22 40 1 -1
BITMAP
00007C
00007C
00007C
00007C
00007C
00007C
00007C
00007C
00007C
00007C
00007C
00007C
00007C
00007C
00007C
00007C
00007C
00007C
00007C
00007C
00007C
00007C
00007C
00007C
00007C
00007C
00007C
00007C
00007C
00007C
0000FC
0000FC
0001F8
6001F8
7807F8
FFFFF0
FFFFE0
FFFFC0
3FFF00
03F800
ENDCHAR
STARTCHAR 004B
ENCODING 75
SWIDTH 612 0
DWIDTH 34 0
BBX 29 39 5 0
BITMAP
F80003F0
F80007E0
F8000FC0
F8001FC0
F8003F80
F8007F00
F800FE00
F801FC00
F803F800
F807F000
F80FE000
F81FC000
F83F8000
F87F0000
F8FE0000
F9FC0000
FBF80000
FFF00000
FFE00000
FFF00000
FFF80000
FBFE0000
F8FF0000
F87F8000
F83FC000
F81FE000
F807F000
F803F800
F801FC00
F800FE00
F8007E00
F8007F00
F8003F80
F8001FC0
F8000FE0
F80007E0
F80003F0
F80003F8
F80001F8
ENDCHAR
STARTCHAR 004C
ENCODING 76
SWIDTH 504 0
DWIDTH 28 0
BBX 23 39 5 0
BITMAP
F80000
F80000
F80000
F80000
F80000
F80000
F80000
F80000
F80000
F80000
F80000
F80000
F80000
F80000
F80000
F80000
F80000
F80000
F80000
F80000
F80000
F80000
F80000
F80000
F80000
F80000
F80000
F80000
F80000
F80000
F80000
F80000
F80000
F80000
FFFFFE
FFFFFE
FFFFFE
FFFFFE
FFFFFE
ENDCHAR
STARTCHAR 004D
ENCODING 77
SWIDTH 864 0
DWIDTH 48 0
BBX 41 39 4 0
BITMAP
1E0000007C00
3F0000007C00
3F000000FC00
3F800001FC00
3FC00001FC00
3FC00003FC00
3FE00003FC00
3FE00007FE00
3FF00007FE00
3FF0000FFE00
3FF8000FBE00
7CF8001FBE00
7CFC001F3E00
7C7C003F3E00
7C7E003E3E00
7C3E007E3E00
7C3E007C3E00
7C1F00FC3E00
7C1F00F83E00
7C0F80F81F00
7C0F81F01F00
7C07C1F01F00
7C07C3E01F00
7C03E3E01F00
FC03E7C01F00
FC03E7C01F00
FC01FFC01F00
F801FF801F00
F800FF801F00
F800FF001F00
F8007F001F00
F8007E001F00
F8003E001F00
F8003C001F00
F80000001F00
F80000001F80
F80000001F80
F80000001F80
F80000001F80
ENDCHAR
STARTCHAR 004E
ENCODING 78
SWIDTH 720 0
DWIDTH 40 0
BBX 31 39 5 0
BITMAP
F000007E
F800007E
FC00007E
FE00007E
FF00007E
FF00007E
FF80007E
FFC0007E
FFE0007E
FBF0007E
FBF0007E
F9F8007E
F8FC007E
F87E007E
F83E007E
F83F007E
F81F807E
F80FC07E
F807C07E
F807E07E
F803F07E
F801F07E
F801F87E
F800FC7E
F8007E7E
F8007E7E
F8003F7E
F8001F7E
F8000FFE
F8000FFE
F80007FE
F80003FE
F80003FE
F80001FE
F80001FE
F80000FE
F800007E
F800007E
F800003E
ENDCHAR
STARTCHAR 004F
ENCODING 79
SWIDTH 774 0
DWIDTH 43 0
BBX 37 40 3 -1
BITMAP
0007FF8000
003FFFE000
00FFFFF800
01FFFFFC00
03FF8FFE00
07F800FF00
0FE0003F80
1FC0001FC0
1F80000FC0
3F800007E0
3F000007E0
7E000003F0
7E000003F0
7E000003F0
7C000001F8
FC000001F8
FC000001F8
FC000001F8
FC000001F8
FC000001F8
FC000001F8
FC000001F8
FC000001F8
FC000001F8
7C000001F8
7E000001F0
7E000003F0
7E000003F0
3F000007F0
3F000007E0
1F80000FE0
1FC0001FC0
0FE0003F80
07F0007F80
07FE01FF00
03FFFFFE00
00FFFFFC00
007FFFF000
001FFFC000
0001FC0000
ENDCHAR
STARTCHAR 0050
ENCODING 80
SWIDTH 594 0
DWIDTH 33 0
BBX 27 39 5 0
BITMAP
1FFE0000
FFFFE000
FFFFF800
FFFFFE00
FFFFFF00
F800FF80
F8003F80
F8001FC0
F8000FC0
F80007E0
F80007E0
F80007E0
F80007E0
F80007E0
F80007E0
F80007E0
F8000FC0
F8001FC0
F8003F80
F801FF80
FFFFFF00
FFFFFE00
FFFFF800
FFFFE000
FFFC0000
F8000000
F8000000
F8000000
F8000000
F8000000
F8000000
F8000000
F8000000
F8000000
F8000000
F8000000
F8000000
F8000000
F8000000
ENDCHAR
STARTCHAR 0051
ENCODING 81
SWIDTH 774 0
DWIDTH 43 0
BBX 37 49 3 -10
BITMAP
0007FF8000
003FFFE000
00FFFFF800
01FFFFFC00
03FF8FFE00
07F800FF00
0FE0003F80
1FC0001FC0
1F80000FC0
3F800007E0
3F000007E0
7E000003F0
7E000003F0
7E000003F0
7C000001F8
FC000001F8
FC000001F8
FC000001F8
FC000001F8
FC000001F8
FC000001F8
FC000001F8
FC000001F8
FC000001F8
7C000001F8
7E000001F0
7E000003F0
7E000003F0
3F000007F0
3F000007E0
1F80000FE0
1FC0001FC0
0FE0003F80
07F0007F80
07FE01FF00
03FFFFFE00
00FFFFFC00
007FFFF000
001FFFC000
0001FE0000
00007E0000
00003F0000
00003F8000
00001FE000
00000FFE00
000007FFC0
000001FFC0
0000007FC0
0000000780
ENDCHAR
STARTCHAR 0052
ENCODING 82
SWIDTH 612 0
DWIDTH 34 0
BBX 29 39 5 0
BITMAP
1FFE0000
FFFFE000
FFFFF800
FFFFFE00
FFFFFF00
F800FF80
F8003F80
F8001FC0
F8000FC0
F80007C0
F80007C0
F80007E0
F80007E0
F80007E0
F80007C0
F8000FC0
F8000FC0
F8001F80
F8007F80
FFFFFF00
FFFFFE00
FFFFFC00
FFFFF000
FFFFE000
F807F000
F803F800
F801F800
F800FC00
F8007E00
F8007E00
F8003F00
F8001F80
F8001F80
F8000FC0
F8000FE0
F80007E0
F80003F0
F80003F0
F80001F8
ENDCHAR
STARTCHAR 0053
ENCODING 83
SWIDTH 522 0
DWIDTH 29 0
BBX 26 40 2 -1
BITMAP
00FFF800
03FFFE00
0FFFFF00
1FFFFF00
3FF07E00
3F800600
7E000000
7E000000
7C000000
7C000000
7C000000
7E000000
7E000000
7F000000
3F800000
3FE00000
1FF80000
0FFF0000
07FFC000
01FFF000
007FFC00
000FFE00
0003FF00
0000FF00
00003F80
00001F80
00001FC0
00000FC0
00000FC0
00000FC0
00000FC0
00000FC0
00001F80
60003F80
7C00FF80
FFFFFF00
FFFFFE00
7FFFFC00
1FFFF000
01FF0000
ENDCHAR
STARTCHAR 0054
ENCODING 84
SWIDTH 558 0
DWIDTH 31 0
BBX 30 39 1 0
BITMAP
FFFFFFFC
FFFFFFFC
FFFFFFFC
FFFFFFFC
FFFFFFFC
000F8000
000F8000
000F8000
000F8000
000F8000
000F8000
000F8000
000F8000
000F8000
000F8000
000F8000
000F8000
000F8000
000F8000
000F8000
000F8000
000F8000
000F8000
000F8000
000F8000
000F8000
000F8000
000F8000
000F8000
000F8000
000F8000
000F8000
000F8000
000F8000
000F8000
000F8000
000F8000
000F8000
000F8000
ENDCHAR
STARTCHAR 0055
ENCODING 85
SWIDTH 684 0
DWIDTH 38 0
BBX 30 40 4 -1
BITMAP
FC0000FC
FC0000FC
FC0000FC
FC0000FC
FC0000FC
FC0000FC
FC0000FC
FC0000FC
FC0000FC
FC0000FC
FC0000FC
FC0000FC
FC0000FC
FC0000FC
FC0000FC
FC0000FC
FC0000FC
FC0000FC
FC0000FC
FC0000FC
FC0000FC
FC0000FC
FC0000FC
FC0000FC
FC0000FC
7C0000FC
7C0000FC
7C0000FC
7C0000F8
7E0001F8
7E0001F8
3F0003F8
3F0003F0
1FC007F0
1FF01FE0
0FFFFFC0
07FFFF80
03FFFF00
00FFFC00
001FE000
ENDCHAR
STARTCHAR 0056
ENCODING 86
SWIDTH 648 0
DWIDTH 36 0
BBX 35 39 1 0
BITMAP
FC000007E0
FC000007E0
FC00000FC0
7E00000FC0
7E00000F80
7E00001F80
3F00001F80
3F00001F00
3F00003F00
1F80003F00
1F80003E00
1F80007E00
0FC0007E00
0FC0007C00
07C000FC00
07E000FC00
07E000F800
03E001F800
03F001F000
03F001F000
01F803F000
01F803E000
00F807E000
00FC07C000
00FC07C000
007C0FC000
007E0F8000
003E1F8000
003F1F0000
001F1F0000
001F3F0000
001FBE0000
000FFE0000
000FFC0000
0007FC0000
0007F80000
0003F80000
0003F00000
0003F00000
ENDCHAR
STARTCHAR 0057
ENCODING 87
SWIDTH 918 0
DWIDTH 51 0
BBX 48 39 2 0
BITMAP
F8000000001F
F8000000003F
FC000000003F
FC000000003F
FC000000003E
FC0007C0003E
7C0007E0007E
7C0007E0007E
7E000FE0007E
7E000FF0007C
7E000FF0007C
3E000FF000FC
3E001FF800FC
3F001FF800FC
3F001EF800F8
3F003E7C00F8
1F003E7C01F8
1F803C7C01F8
1F807C3E01F0
1F807C3E01F0
0F80783E01F0
0F80F81F03F0
0FC0F81F03E0
0FC1F01F03E0
07C1F00F83E0
07C1F00F87E0
07E3E00FC7C0
07E3E007C7C0
03E3C007C7C0
03E7C003EFC0
03F7C003EF80
01FF8003EF80
01FF8001FF80
01FF0001FF00
01FF0001FF00
00FF0000FF00
00FE0000FE00
00FE00007E00
007E00007E00
ENDCHAR
STARTCHAR 0058
ENCODING 88
SWIDTH 630 0
DWIDTH 35 0
BBX 32 39 2 0
BITMAP
FC00007E
FE0000FC
7E0000FC
3F0001F8
1F8003F0
1F8003F0
0FC007E0
07E00FC0
07E00FC0
03F01F80
01F83F00
01F83F00
00FC7E00
007EFC00
007EFC00
003FF800
001FF000
001FF000
000FE000
000FF000
001FF000
003FF800
007FFC00
007EFC00
00FC7E00
01FC3F00
01F83F00
03F01F80
07E00FC0
07E00FC0
0FC007E0
0FC003F0
1F8003F0
3F0001F8
3F0001F8
7E0000FC
7E00007E
FC00007E
F800003F
ENDCHAR
STARTCHAR 0059
ENCODING 89
SWIDTH 594 0
DWIDTH 33 0
BBX 33 39 0 0
BITMAP
FE00001F80
7E00003F00
7F00003F00
3F00007E00
1F80007E00
1F8000FC00
0FC000FC00
0FC001F800
07E001F000
07E003F000
03F003E000
01F007E000
01F807C000
00FC0F8000
00FC1F8000
007E1F0000
007E3F0000
003F3E0000
001FFC0000
001FFC0000
000FF80000
0007F80000
0007F00000
0003E00000
0003E00000
0003E00000
0003E00000
0003E00000
0003E00000
0003E00000
0003E00000
0003E00000
0003E00000
0003E00000
0003E00000
0003E00000
0003E00000
0003E00000
0003E00000
ENDCHAR
STARTCHAR 005A
ENCODING 90
SWIDTH 558 0
DWIDTH 31 0
BBX 28 39 2 0
BITMAP
7FFFFFE0
7FFFFFE0
7FFFFFE0
7FFFFFE0
7FFFFFE0
00000FE0
00001FC0
00001F80
00003F00
00007E00
0000FC00
0001FC00
0001F800
0003F000
0007E000
000FE000
000FC000
001F8000
003F0000
003F0000
007E0000
00FC0000
00FC0000
01F80000
03F00000
03F00000
07E00000
0FC00000
0FC00000
1F800000
1F000000
3F000000
7E000000
7E000000
FFFFFFF0
FFFFFFF0
FFFFFFF0
FFFFFFF0
FFFFFFF0
ENDCHAR
STARTCHAR 005B
ENCODING 91
SWIDTH 324 0
DWIDTH 18 0
BBX 13 54 5 -10
BITMAP
FFF8
FFF8
FFF8
FFF8
FFF8
F800
F800
F800
F800
F800
F800
F800
F800
F800
F800
F800
F800
F800
F800
F800
F800
F800
F800
F800
F800
F800
F800
F800
F800
F800
F800
F800
F800
F800
F800
F800
F800
F800
F800
F800
F800
F800
F800
F800
F800
F800
F800
F800
F800
F800
FFF8
FFF8
FFF8
FFF8
ENDCHAR
STARTCHAR 005C
ENCODING 92
SWIDTH 378 0
DWIDTH 21 0
BBX 23 54 -1 -10
BITMAP
F80000
F80000
FC0000
7C0000
7C0000
7E0000
3E0000
3E0000
3F0000
1F0000
1F0000
1F8000
0F8000
0F8000
07C000
07C000
07C000
03E000
03E000
03E000
01F000
01F000
01F800
00F800
00F800
00FC00
007C00
007C00
007E00
003E00
003E00
003F00
001F00
001F00
000F80
000F80
000F80
0007C0
0007C0
0007C0
0003E0
0003E0
0003F0
0001F0
0001F0
0001F8
0000F8
0000F8
0000FC
00007C
00007C
00007E
00003E
00003E
ENDCHAR
STARTCHAR 005D
ENCODING 93
SWIDTH 324 0
DWIDTH 18 0
BBX 13 54 0 -10
BITMAP
FFF8
FFF8
FFF8
FFF8
FFF8
00F8
00F8
00F8
00F8
00F8
00F8
00F8
00F8
00F8
00F8
00F8
00F8
00F8
00F8
00F8
00F8
00F8
00F8
00F8
00F8
00F8
00F8
00F8
00F8
00F8
00F8
00F8
00F8
00F8
00F8
00F8
00F8
00F8
00F8
00F8
00F8
00F8
00F8
00F8
00F8
00F8
00F8
00F8
00F8
00F8
FFF8
FFF8
FFF8
FFF8
ENDCHAR
STARTCHAR 005E
ENCODING 94
SWIDTH 558 0
DWIDTH 31 0
BBX 26 21 3 17
BITMAP
003E0000
003F0000
007F0000
007F8000
00FF8000
00FFC000
01F7C000
03F3E000
03E3F000
07E1F000
07C1F800
0F80F800
0F80FC00
1F007C00
3F003E00
3E003F00
7E001F00
7C001F80
F8000F80
F8000FC0
30000700
ENDCHAR
STARTCHAR 005F
ENCODING 95
SWIDTH 486 0
DWIDTH 27 0
BBX 28 4 0 -10
BITMAP
FFFFFFF0
FFFFFFF0
FFFFFFF0
FFFFFFF0
ENDCHAR
STARTCHAR 0060
ENCODING 96
SWIDTH 360 0
DWIDTH 20 0
BBX 10 11 4 32
BITMAP
2000
7000
F800
FC00
7E00
3E00
1F00
0F80
07C0
0380
0100
ENDCHAR
STARTCHAR 0061
ENCODING 97
SWIDTH 522 0
DWIDTH 29 0
BBX 23 31 2 -1
BITMAP
003800
0FFFC0
0FFFE0
0FFFF8
0FFFF8
0801FC
0000FC
00007C
00007E
00003E
00003E
00003E
001C3E
03FFFE
0FFFFE
1FFFFE
3FFFFE
7F003E
7E003E
7C003E
FC003E
FC003E
FC003E
7C003E
7E003E
7F003E
3FFFFE
3FFFFE
1FFFFE
07FFFE
003C00
ENDCHAR
STARTCHAR 0062
ENCODING 98
SWIDTH 576 0
DWIDTH 32 0
BBX 26 44 4 -1
BITMAP
3C000000
FC000000
FC000000
FC000000
FC000000
FC000000
FC000000
FC000000
FC000000
FC000000
FC000000
FC000000
FC000000
FC0C0000
FDFFC000
FFFFF000
FFFFF800
FFFFFC00
FF81FE00
FE007F00
FC003F00
FC001F80
FC001F80
FC000F80
FC000FC0
FC000FC0
FC000FC0
FC000FC0
FC000FC0
FC000FC0
FC000FC0
FC000FC0
FC000FC0
FC000F80
FC001F80
FC001F80
FC003F00
FC007F00
FC01FE00
FFFFFC00
FFFFF800
FFFFF000
3FFFC000
00F80000
ENDCHAR
STARTCHAR 0063
ENCODING 99
SWIDTH 450 0
DWIDTH 25 0
BBX 22 31 3 -1
BITMAP
000600
00FFF8
03FFF8
07FFF8
0FFFF8
1FE030
3F8000
3F0000
7E0000
7C0000
FC0000
FC0000
F80000
F80000
F80000
F80000
F80000
F80000
F80000
FC0000
FC0000
7C0000
7E0000
7F0000
3F8000
1FE018
1FFFF8
0FFFF8
03FFFC
00FFF8
000F80
ENDCHAR
STARTCHAR 0064
ENCODING 100
SWIDTH 576 0
DWIDTH 32 0
BBX 25 44 3 -1
BITMAP
00000380
00000F80
00000F80
00000F80
00000F80
00000F80
00000F80
00000F80
00000F80
00000F80
00000F80
00000F80
00000F80
000C0F80
01FFCF80
03FFFF80
0FFFFF80
1FFFFF80
1FC07F80
3F801F80
7F000F80
7E000F80
7C000F80
FC000F80
FC000F80
F8000F80
F8000F80
F8000F80
F8000F80
F8000F80
F8000F80
F8000F80
FC000F80
FC000F80
7C000F80
7E000F80
3F000F80
3F800F80
1FE00F80
0FFFFF80
07FFFF80
03FFFF80
00FFFF00
000FC000
ENDCHAR
STARTCHAR 0065
ENCODING 101
SWIDTH 558 0
DWIDTH 31 0
BBX 25 31 3 -1
BITMAP
001C0000
00FFE000
03FFF000
07FFF800
0FFFFC00
1FC0FE00
3F007F00
3E003F00
7E001F00
7C001F00
FC001F80
FC000F80
F8000F80
FFFFFF80
FFFFFF80
FFFFFF80
FFFFFF80
F8000000
F8000000
FC000000
FC000000
7C000000
7E000000
7F000000
3F800000
1FE00C00
1FFFFE00
0FFFFE00
03FFFE00
00FFFC00
001F8000
ENDCHAR
STARTCHAR 0066
ENCODING 102
SWIDTH 378 0
DWIDTH 21 0
BBX 18 43 4 0
BITMAP
01FF80
07FFC0
0FFFC0
1FFF80
3FE380
7F0000
7E0000
7C0000
7C0000
7C0000
FC0000
FC0000
FC0000
FC0000
FFFF80
FFFF80
FFFF80
FFFF80
FC0000
FC0000
FC0000
FC0000
FC0000
FC0000
FC0000
FC0000
FC0000
FC0000
FC0000
FC0000
FC0000
FC0000
FC0000
FC0000
FC0000
FC0000
FC0000
FC0000
FC0000
FC0000
FC0000
FC0000
FC0000
ENDCHAR
STARTCHAR 0067
ENCODING 103
SWIDTH 576 0
DWIDTH 32 0
BBX 25 39 3 -9
BITMAP
00FFFE00
03FFFF80
07FFFF80
0FFFFF80
1FE01F80
3F801F80
7F001F80
7E001F80
7C001F80
FC001F80
FC001F80
F8001F80
F8001F80
F8001F80
F8001F80
F8001F80
F8001F80
FC001F80
FC001F80
7C001F80
7E001F80
7F001F80
3F803F80
1FFFFF80
0FFFFF80
07FFFF80
03FFEF80
007F0F80
00001F80
00001F80
00001F00
00001F00
00003F00
20007E00
3C01FE00
3FFFFC00
3FFFF800
3FFFF000
1FFFC000
ENDCHAR
STARTCHAR 0068
ENCODING 104
SWIDTH 558 0
DWIDTH 31 0
BBX 24 43 4 0
BITMAP
3C0000
FC0000
FC0000
FC0000
FC0000
FC0000
FC0000
FC0000
FC0000
FC0000
FC0000
FC0000
FC0000
FC0000
FFFFC0
FFFFF0
FFFFF8
FFFFFC
FF01FC
FC00FE
FC007E
FC003E
FC003E
FC003F
FC003F
FC001F
FC001F
FC001F
FC001F
FC001F
FC001F
FC001F
FC001F
FC001F
FC001F
FC001F
FC001F
FC001F
FC001F
FC001F
FC001F
FC001F
FC001F
ENDCHAR
STARTCHAR 0069
ENCODING 105
SWIDTH 252 0
DWIDTH 14 0
BBX 6 41 4 0
BITMAP
78
FC
FC
FC
FC
FC
78
00
00
00
00
00
FC
FC
FC
FC
FC
FC
FC
FC
FC
FC
FC
FC
FC
FC
FC
FC
FC
FC
FC
FC
FC
FC
FC
FC
FC
FC
FC
FC
FC
ENDCHAR
STARTCHAR 006A
ENCODING 106
SWIDTH 252 0
DWIDTH 14 0
BBX 14 51 -4 -10
BITMAP
0078
00FC
00FC
00FC
00FC
00FC
0078
0000
0000
0000
0000
0000
00FC
00FC
00FC
00FC
00FC
00FC
00FC
00FC
00FC
00FC
00FC
00FC
00FC
00FC
00FC
00FC
00FC
00FC
00FC
00FC
00FC
00FC
00FC
00FC
00FC
00FC
00FC
00FC
00FC
00FC
00FC
00F8
00F8
01F8
03F8
7FF0
7FE0
FFC0
FF00
ENDCHAR
STARTCHAR 006B
ENCODING 107
SWIDTH 522 0
DWIDTH 29 0
BBX 24 43 4 0
BITMAP
3C0000
FC0000
FC0000
FC0000
FC0000
FC0000
FC0000
FC0000
FC0000
FC0000
FC0000
FC0000
FC0000
FC0000
FC007E
FC00FC
FC01F8
FC03F0
FC07E0
FC0FC0
FC1F80
FC3F00
FC7E00
FCFC00
FDF800
FFF000
FFE000
FFE000
FFF800
FFFC00
FDFE00
FC7F00
FC3F00
FC1F80
FC0FC0
FC07E0
FC07F0
FC03F8
FC01F8
FC00FC
FC007E
FC007E
FC003F
ENDCHAR
STARTCHAR 006C
ENCODING 108
SWIDTH 270 0
DWIDTH 15 0
BBX 10 44 4 -1
BITMAP
3C00
FC00
FC00
FC00
FC00
FC00
FC00
FC00
FC00
FC00
FC00
FC00
FC00
FC00
FC00
FC00
FC00
FC00
FC00
FC00
FC00
FC00
FC00
FC00
FC00
FC00
FC00
FC00
FC00
FC00
FC00
FC00
FC00
FC00
FC00
FC00
FC00
FC00
7E00
7FC0
3FC0
3F80
0F80
0080
ENDCHAR
STARTCHAR 006D
ENCODING 109
SWIDTH 846 0
DWIDTH 47 0
BBX 40 29 4 1
BITMAP
3FFF80FFC0
FFFFE7FFF0
FFFFFFFFF8
FFFFFFFFFC
FC03FF81FC
FC00FE007E
FC00FC007E
FC007C003E
FC007C003E
FC007C003F
FC007E003F
FC007E003F
FC007E001F
FC007E001F
FC007E001F
FC007E001F
FC007E001F
FC007E001F
FC007E001F
FC007E001F
FC007E001F
FC007E001F
FC007E001F
FC007E001F
FC007E001F
FC007E001F
FC007E001F
FC007E001F
FC007E001F
ENDCHAR
STARTCHAR 006E
ENCODING 110
SWIDTH 558 0
DWIDTH 31 0
BBX 24 29 4 1
BITMAP
3FFFC0
FFFFF0
FFFFF8
FFFFFC
FC01FC
FC00FE
FC007E
FC003E
FC003E
FC003F
FC003F
FC001F
FC001F
FC001F
FC001F
FC001F
FC001F
FC001F
FC001F
FC001F
FC001F
FC001F
FC001F
FC001F
FC001F
FC001F
FC001F
FC001F
FC001F
ENDCHAR
STARTCHAR 006F
ENCODING 111
SWIDTH 576 0
DWIDTH 32 0
BBX 27 31 3 -1
BITMAP
000E0000
00FFE000
03FFF800
07FFFC00
0FFFFE00
1FC0FF00
3F803F80
3F001F80
7E000FC0
7C000FC0
FC0007C0
FC0007E0
F80007E0
F80007E0
F80003E0
F80003E0
F80003E0
F80007E0
F80007E0
FC0007E0
FC0007C0
7C000FC0
7E000FC0
3F001F80
3F803F80
1FC07F00
0FFFFE00
07FFFC00
03FFF800
00FFE000
001F0000
ENDCHAR
STARTCHAR 0070
ENCODING 112
SWIDTH 576 0
DWIDTH 32 0
BBX 26 40 4 -10
BITMAP
00100000
1FFF8000
FFFFE000
FFFFF800
FFFFFC00
FC03FE00
FC00FE00
FC003F00
FC001F80
FC001F80
FC000F80
FC000F80
FC000FC0
FC000FC0
FC000FC0
FC000FC0
FC000FC0
FC000FC0
FC000FC0
FC000FC0
FC000F80
FC001F80
FC001F80
FC003F00
FE007F00
FF80FE00
FFFFFC00
FFFFFC00
FFFFF000
FDFFE000
FC3E0000
FC000000
FC000000
FC000000
FC000000
FC000000
FC000000
FC000000
FC000000
FC000000
ENDCHAR
STARTCHAR 0071
ENCODING 113
SWIDTH 576 0
DWIDTH 32 0
BBX 25 40 3 -10
BITMAP
00020000
007FFE00
03FFFF80
07FFFF80
0FFFFF80
1FF01F80
3F800F80
3F000F80
7E000F80
7E000F80
FC000F80
FC000F80
F8000F80
F8000F80
F8000F80
F8000F80
F8000F80
F8000F80
F8000F80
FC000F80
FC000F80
7C000F80
7E000F80
7E000F80
3F001F80
1FC07F80
1FFFFF80
0FFFFF80
07FFFF80
01FFEF80
001E0F80
00000F80
00000F80
00000F80
00000F80
00000F80
00000F80
00000F80
00000F80
00000F80
ENDCHAR
STARTCHAR 0072
ENCODING 114
SWIDTH 378 0
DWIDTH 21 0
BBX 17 29 4 1
BITMAP
1FFF80
FFFF80
FFFF00
FFFF00
FE0100
FC0000
FC0000
FC0000
FC0000
FC0000
FC0000
FC0000
FC0000
FC0000
FC0000
FC0000
FC0000
FC0000
FC0000
FC0000
FC0000
FC0000
FC0000
FC0000
FC0000
FC0000
FC0000
FC0000
FC0000
ENDCHAR
STARTCHAR 0073
ENCODING 115
SWIDTH 432 0
DWIDTH 24 0
BBX 21 31 2 -1
BITMAP
007800
07FFE0
0FFFE0
1FFFE0
3FFFC0
7F0040
7C0000
7C0000
7C0000
7C0000
7E0000
7F0000
3FC000
3FF000
1FFE00
07FF80
01FFC0
007FE0
000FF0
0007F0
0001F0
0001F8
0001F8
0001F8
0001F0
7003F0
7FFFF0
7FFFE0
FFFFC0
7FFF00
07F000
ENDCHAR
STARTCHAR 0074
ENCODING 116
SWIDTH 396 0
DWIDTH 22 0
BBX 17 39 4 -1
BITMAP
180000
F80000
F80000
F80000
F80000
F80000
F80000
F80000
F80000
FFFF00
FFFF00
FFFF00
FFFF00
F80000
F80000
F80000
F80000
F80000
F80000
F80000
F80000
F80000
F80000
F80000
F80000
F80000
F80000
F80000
F80000
F80000
FC0000
FC0000
7E0000
7F0380
7FFF80
3FFF80
1FFF80
0FFF00
007000
ENDCHAR
STARTCHAR 0075
ENCODING 117
SWIDTH 558 0
DWIDTH 31 0
BBX 23 30 4 -1
BITMAP
F8003E
F8003E
F8003E
F8003E
F8003E
F8003E
F8003E
F8003E
F8003E
F8003E
F8003E
F8003E
F8003E
F8003E
F8003E
F8003E
F8003E
F8003E
F8003E
FC003E
FC003E
7C003E
7E003E
7F003E
3F803E
3FFFFE
1FFFFE
0FFFFE
03FFFC
001E00
ENDCHAR
STARTCHAR 0076
ENCODING 118
SWIDTH 486 0
DWIDTH 27 0
BBX 26 29 1 0
BITMAP
FC0007C0
FC000FC0
7C000F80
7C000F80
7E001F80
7E001F00
3E001F00
3E001F00
3F003E00
1F003E00
1F003E00
1F807C00
0F807C00
0F807C00
0FC0F800
07C0F800
07E0F800
03E1F000
03E1F000
03F3E000
01F3E000
01F3E000
00FFC000
00FFC000
007F8000
007F8000
007F0000
003F0000
003F0000
ENDCHAR
STARTCHAR 0077
ENCODING 119
SWIDTH 774 0
DWIDTH 43 0
BBX 41 29 1 0
BITMAP
FC001E000F80
FC003E000F80
7C003E001F80
7C003F001F00
7E003F001F00
7E007F001F00
3E007F003E00
3E007F803E00
3F00FF803E00
1F00F7807E00
1F00F7807C00
1F00F7C07C00
1F81F7C07C00
0F81E3C0F800
0F81E3E0F800
0FC3E3E0F800
07C3C1E1F000
07C3C1F1F000
07E3C1F1F000
03E7C0F3E000
03E780FBE000
01F780FBE000
01FF807FC000
01FF007FC000
00FF007F8000
00FE003F8000
007E003F8000
007E003F0000
007C001F0000
ENDCHAR
STARTCHAR 0078
ENCODING 120
SWIDTH 504 0
DWIDTH 28 0
BBX 26 29 1 0
BITMAP
7C000F80
7E001F80
3F003F00
1F003E00
1F807C00
0FC0FC00
07E0F800
07E1F000
03F3F000
01FBE000
00FFC000
00FFC000
007F8000
003F0000
007F8000
007FC000
00FFC000
01FFE000
03F3F000
03E1F000
07E1F800
0FC0FC00
0F807E00
1F007E00
3F003F00
3E001F00
7E001F80
7C000FC0
F8000FC0
ENDCHAR
STARTCHAR 0079
ENCODING 121
SWIDTH 486 0
DWIDTH 27 0
BBX 27 39 0 -10
BITMAP
7E0007E0
7E0007C0
3E0007C0
3E000FC0
3F000F80
3F000F80
1F000F80
1F801F80
1F801F00
0F801F00
0FC01F00
0FC03F00
07C03E00
07E03E00
03E03E00
03E07C00
03F07C00
01F07C00
01F0F800
00F8F800
00F8F800
007DF000
007DF000
003FE000
003FE000
003FE000
001FC000
001FC000
000FC000
000F8000
000F8000
001F0000
001F0000
003E0000
00FC0000
7FFC0000
7FF80000
FFE00000
FFC00000
ENDCHAR
STARTCHAR 007A
ENCODING 122
SWIDTH 468 0
DWIDTH 26 0
BBX 22 29 2 0
BITMAP
7FFFFC
7FFFFC
7FFFFC
7FFFFC
0001F8
0003F0
0007E0
0007E0
000FC0
001F80
003F00
007E00
007E00
00FC00
01F800
03F000
03F000
07E000
0FC000
0F8000
1F8000
3F0000
3E0000
7E0000
7C0000
FFFFFC
FFFFFC
FFFFFC
FFFFFC
ENDCHAR
STARTCHAR 007B
ENCODING 123
SWIDTH 324 0
DWIDTH 18 0
BBX 16 53 2 -9
BITMAP
003F
00FF
01FF
03FF
03F0
03E0
07C0
07C0
07C0
07C0
07C0
07C0
07C0
07C0
07C0
07C0
07C0
07C0
07C0
07C0
07C0
07C0
0FC0
1F80
FF00
FF00
FE00
FF00
7F80
1F80
0FC0
07C0
07C0
07C0
07C0
07C0
07C0
07C0
07C0
07C0
07C0
07C0
07C0
07C0
07C0
07C0
03E0
03E0
03F0
01FF
01FF
00FF
003F
ENDCHAR
STARTCHAR 007C
ENCODING 124
SWIDTH 270 0
DWIDTH 15 0
BBX 5 54 5 -10
BITMAP
F8
F8
F8
F8
F8
F8
F8
F8
F8
F8
F8
F8
F8
F8
F8
F8
F8
F8
F8
F8
F8
F8
F8
F8
F8
F8
F8
F8
F8
F8
F8
F8
F8
F8
F8
F8
F8
F8
F8
F8
F8
F8
F8
F8
F8
F8
F8
F8
F8
F8
F8
F8
F8
F8
ENDCHAR
STARTCHAR 007D
ENCODING 125
SWIDTH 324 0
DWIDTH 18 0
BBX 16 54 0 -10
BITMAP
8000
FE00
FF00
FF80
FFC0
07E0
03E0
03E0
03E0
03E0
03E0
03E0
03E0
03E0
03E0
03E0
03E0
03E0
03E0
03E0
03E0
03E0
01F0
01F0
01F8
00FF
007F
003F
007F
00FF
01F8
01F0
01F0
03E0
03E0
03E0
03E0
03E0
03E0
03E0
03E0
03E0
03E0
03E0
03E0
03E0
03E0
03E0
07E0
0FC0
FFC0
FF80
FF00
FC00
ENDCHAR
STARTCHAR 007E
ENCODING 126
SWIDTH 558 0
DWIDTH 31 0
BBX 27 9 2 12
BITMAP
07E00180
1FF801E0
3FFE03E0
3FFF03C0
7E7FFFC0
781FFF80
7807FF80
F001FF00
00007C00
ENDCHAR
STARTCHAR 00A0
ENCODING 160
SWIDTH 216 0
DWIDTH 12 0
BBX 0 0 0 0
BITMAP
ENDCHAR
STARTCHAR 00A1
ENCODING 161
SWIDTH 270 0
DWIDTH 15 0
BBX 7 39 4 -10
BITMAP
38
7E
FE
FE
FE
FE
7C
10
00
00
00
00
00
38
38
3C
3C
7C
7C
7C
7C
7C
7C
7C
7C
7C
7C
7C
7C
7C
7C
7C
7C
7C
7C
7C
7C
7C
7C
ENDCHAR
STARTCHAR 00A2
ENCODING 162
SWIDTH 558 0
DWIDTH 31 0
BBX 22 45 5 -6
BITMAP
003E00
003E00
003E00
003E00
003E00
003E00
003E00
003E00
003F80
01FFF8
03FFF8
0FFFF8
1FFFF0
1FC010
3F0000
7E0000
7E0000
7C0000
FC0000
F80000
F80000
F80000
F80000
F80000
F80000
F80000
FC0000
FC0000
7C0000
7E0000
7F0000
3F8000
1FE038
0FFFF8
07FFF8
03FFFC
00FFF0
003E00
003E00
003E00
003E00
003E00
003E00
003E00
003E00
ENDCHAR
STARTCHAR 00A3
ENCODING 163
SWIDTH 558 0
DWIDTH 31 0
BBX 26 39 3 0
BITMAP
000FFE00
003FFF80
007FFF80
00FFFF00
01FF1F00
01F80100
03F00000
03F00000
03E00000
03E00000
03E00000
03E00000
07E00000
07E00000
07E00000
07E00000
07E00000
07E00000
FFFFF800
FFFFF800
FFFFF800
FFFFF800
07E00000
07E00000
07E00000
07E00000
07E00000
07E00000
07C00000
07C00000
07C00000
07C00000
07C00000
07C00000
07C00000
0FFFFFC0
0FFFFFC0
0FFFFFC0
0FFFFFC0
ENDCHAR
STARTCHAR 00A4
ENCODING 164
SWIDTH 558 0
DWIDTH 31 0
BBX 26 26 3 7
BITMAP
30000300
78000780
FC7F0FC0
FFFFDF80
7FFFFF00
3FFFFE00
1FC0FC00
1F007C00
1E003E00
3E003E00
3C001E00
3C001E00
3C001E00
3C001E00
3C001E00
3E001E00
3E003E00
1F007C00
1F80FC00
1FF7FE00
3FFFFF00
7FFFFF80
FCFF9FC0
F8000F80
70000700
20000200
ENDCHAR
STARTCHAR 00A5
ENCODING 165
SWIDTH 558 0
DWIDTH 31 0
BBX 29 39 1 0
BITMAP
FC0000F8
FC0001F8
7E0001F0
7E0003F0
3F0003E0
1F0007E0
1F8007C0
0F800FC0
0FC00F80
07C01F80
07E01F00
03E03E00
03F03E00
01F07C00
00F87C00
00FCF800
007DF000
007FF000
003FE000
001FE000
1FFFFFC0
1FFFFFC0
1FFFFFC0
1FFFFFC0
000F8000
000F8000
000F8000
000F8000
000F8000
1FFFFFC0
1FFFFFC0
1FFFFFC0
1FFFFFC0
000F8000
000F8000
000F8000
000F8000
000F8000
000F8000
ENDCHAR
STARTCHAR 00A6
ENCODING 166
SWIDTH 270 0
DWIDTH 15 0
BBX 5 54 5 -10
BITMAP
F8
F8
F8
F8
F8
F8
F8
F8
F8
F8
F8
F8
F8
F8
F8
F8
F8
F8
F8
F8
F8
F8
00
00
00
00
00
00
00
00
00
00
00
F8
F8
F8
F8
F8
F8
F8
F8
F8
F8
F8
F8
F8
F8
F8
F8
F8
F8
F8
F8
F8
ENDCHAR
STARTCHAR 00A7
ENCODING 167
SWIDTH 486 0
DWIDTH 27 0
BBX 23 45 2 -6
BITMAP
01FFE0
07FFFC
0FFFF8
0FFFF8
1F8038
1F0000
3E0000
3E0000
3E0000
3F0000
1F8000
1FC000
0FF800
07FF00
0FFFC0
1FFFF0
3F1FF8
3E07FC
7C00FC
78007E
F8003E
F8003E
F8003E
FC003E
7C003E
7F003C
3F807C
3FF0F8
0FFFF0
07FFE0
01FFE0
003FF0
0007F0
0001F8
0000FC
00007C
00007C
00007C
0000FC
2000F8
7E03F8
7FFFF0
7FFFE0
7FFFC0
0FFE00
ENDCHAR
STARTCHAR 00A8
ENCODING 168
SWIDTH 360 0
DWIDTH 20 0
BBX 17 7 2 34
BITMAP
300E00
7C1F00
FC1F80
FC3F80
FC1F80
7C1F00
380E00
ENDCHAR
STARTCHAR 00A9
ENCODING 169
SWIDTH 810 0
DWIDTH 45 0
BBX 38 40 4 -1
BITMAP
0007FF8000
003FFFE000
00FFFFF800
01FF8FFC00
03F8007E00
07E0001F00
0F80000F80
1F000007C0
1E007C03E0
3E03FF81E0
7C07FFC1F0
780FFFC0F0
781F8180F8
F83E000078
F03C000078
F07C000078
F078000078
F07800007C
F07800003C
F07800003C
F07800007C
F07800007C
F078000078
F078000078
F07C000078
F03E000078
783F0000F8
781FEFC0F0
7C0FFFC0F0
3C07FFC1E0
3E01FF03E0
1F000007C0
0F80000FC0
0FC0001F80
07F0003F00
03FC01FE00
00FFFFF800
007FFFF000
001FFFC000
0001FC0000
ENDCHAR
STARTCHAR 00AA
ENCODING 170
SWIDTH 378 0
DWIDTH 21 0
BBX 17 21 2 18
BITMAP
1FF800
3FFC00
1FFE00
1E7F00
000F00
000F80
000780
000780
07FF80
3FFF80
7FFF80
7E0780
F80780
F00780
F00780
F00780
F80780
7FFF80
3FFF80
1FFF80
03F000
ENDCHAR
STARTCHAR 00AB
ENCODING 171
SWIDTH 486 0
DWIDTH 27 0
BBX 23 24 2 3
BITMAP
008018
01E01E
03F03E
03E07E
07C07C
0FC0F8
0F81F8
1F81F0
3F03F0
3E07E0
7E0FC0
FC0FC0
FC1FC0
7E0FC0
7E07E0
3F03E0
1F03F0
1F81F8
0FC0F8
07C0FC
07E07C
03E03E
01F03E
00C01C
ENDCHAR
STARTCHAR 00AC
ENCODING 172
SWIDTH 558 0
DWIDTH 31 0
BBX 25 19 3 3
BITMAP
FFFFFF80
FFFFFF80
FFFFFF80
FFFFFF80
FFFFFF80
00000780
00000780
00000780
00000780
00000780
00000780
00000780
00000780
00000780
00000780
00000780
00000780
00000780
00000780
ENDCHAR
STARTCHAR 00AD
ENCODING 173
SWIDTH 288 0
DWIDTH 16 0
BBX 14 5 1 14
BITMAP
FFFC
FFFC
FFFC
FFFC
FFFC
ENDCHAR
STARTCHAR 00AE
ENCODING 174
SWIDTH 810 0
DWIDTH 45 0
BBX 38 40 4 -1
BITMAP
0007FF8000
003FFFE000
00FFFFF800
01FF8FFC00
03F8007E00
07E0001F00
0F80000F80
1F000007C0
1E000003E0
3E1FFE01E0
7C1FFF81F0
781FFFC0F0
781E0FC0F8
F81E03E078
F01E01E078
F01E01E078
F01E01E078
F01E03E07C
F01E07C03C
F01FFFC03C
F01FFF807C
F01FFE007C
F01E1E0078
F01E1F0078
F01E0F8078
F01E078078
781E03C0F8
781E03E0F0
7C1E01E0F0
3C1E01F1E0
3E1E00F3E0
1F000007C0
0F80000FC0
0FC0001F80
07F0003F00
03FC01FE00
00FFFFF800
007FFFF000
001FFFC000
0001FC0000
ENDCHAR
STARTCHAR 00AF
ENCODING 175
SWIDTH 360 0
DWIDTH 20 0
BBX 15 5 3 35
BITMAP
FFFE
FFFE
FFFE
FFFE
FFFE
ENDCHAR
STARTCHAR 00B0
ENCODING 176
SWIDTH 324 0
DWIDTH 18 0
BBX 16 15 1 28
BITMAP
07E0
1FF8
3FFC
3F7E
781E
780F
F00F
F00F
F00F
780F
781E
7E3E
3FFC
1FF8
07F0
ENDCHAR
STARTCHAR 00B1
ENCODING 177
SWIDTH 558 0
DWIDTH 31 0
BBX 25 34 3 0
BITMAP
003E0000
003E0000
003E0000
003E0000
003E0000
003E0000
003E0000
003E0000
003E0000
003E0000
003E0000
FFFFFF80
FFFFFF80
FFFFFF80
FFFFFF80
003E0000
003E0000
003E0000
003E0000
003E0000
003E0000
003E0000
003E0000
003E0000
003E0000
003E0000
00000000
00000000
00000000
00000000
FFFFFF80
FFFFFF80
FFFFFF80
FFFFFF80
ENDCHAR
STARTCHAR 00B2
ENCODING 178
SWIDTH 342 0
DWIDTH 19 0
BBX 15 22 2 17
BITMAP
1FF0
7FF8
FFFC
F87C
603C
003C
003C
003C
007C
00F8
01F0
03E0
07C0
0F80
1F00
3E00
7C00
7800
7FFE
7FFE
FFFE
7FFE
ENDCHAR
STARTCHAR 00B3
ENCODING 179
SWIDTH 342 0
DWIDTH 19 0
BBX 15 22 2 17
BITMAP
3FE0
FFF8
7FF8
707C
403C
003C
003C
007C
03F8
0FF0
0FF0
0FFC
007C
001E
001E
001E
001E
003E
FFFC
FFFC
FFF0
3FC0
ENDCHAR
STARTCHAR 00B4
ENCODING 180
SWIDTH 360 0
DWIDTH 20 0
BBX 10 11 7 32
BITMAP
0100
0380
07C0
0FC0
1F80
3F00
3E00
7C00
F800
7000
2000
ENDCHAR
STARTCHAR 00B5
ENCODING 181
SWIDTH 576 0
DWIDTH 32 0
BBX 24 39 4 -10
BITMAP
FC001F
FC001F
FC001F
FC001F
FC001F
FC001F
FC001F
FC001F
FC001F
FC001F
FC001F
FC001F
FC001F
FC001F
FC001F
FC001F
FC001F
FC001F
FC001F
FC001F
FC001F
FC001F
FE001F
FF001F
FFC01F
FFFFFF
FFFFFF
FBFFFF
F9FFFC
F81F00
FC0000
FC0000
FC0000
FC0000
FC0000
FC0000
FC0000
FC0000
FC0000
ENDCHAR
STARTCHAR 00B6
ENCODING 182
SWIDTH 630 0
DWIDTH 35 0
BBX 28 49 2 -10
BITMAP
0007FF80
007FFFF0
03FFFFF0
07FFFFF0
0FFFC3F0
1FFFC0F0
3FFFC0F0
7FFFC0F0
7FFFC0F0
7FFFC0F0
FFFFC0F0
FFFFC0F0
FFFFC0F0
FFFFC0F0
7FFFC0F0
7FFFC0F0
7FFFC0F0
7FFFC0F0
3FFFC0F0
3FFFC0F0
1FFFC0F0
07FFC0F0
03FFC0F0
007FC0F0
0007C0F0
0007C0F0
0007C0F0
0007C0F0
0007C0F0
0007C0F0
0007C0F0
0007C0F0
0007C0F0
0007C0F0
0007C0F0
0007C0F0
0007C0F0
0007C0F0
0007C0F0
0007C0F0
0007C0F0
0007C0F0
0007C0F0
0007C0F0
0007C0F0
0007C0F0
0007C0F0
0007C0F0
0007C0F0
ENDCHAR
STARTCHAR 00B7
ENCODING 183
SWIDTH 234 0
DWIDTH 13 0
BBX 8 7 3 13
BITMAP
3C
7E
FE
FF
FE
7E
7C
ENDCHAR
STARTCHAR 00B8
ENCODING 184
SWIDTH 360 0
DWIDTH 20 0
BBX 10 12 4 -11
BITMAP
0700
0F00
0E00
1F00
1F80
0FC0
07C0
07C0
FFC0
FF80
FF00
1800
ENDCHAR
STARTCHAR 00B9
ENCODING 185
SWIDTH 342 0
DWIDTH 19 0
BBX 10 22 3 17
BITMAP
01C0
03C0
0FC0
3FC0
FFC0
FFC0
F3C0
03C0
03C0
03C0
03C0
03C0
03C0
03C0
03C0
03C0
03C0
03C0
03C0
03C0
03C0
03C0
ENDCHAR
STARTCHAR 00BA
ENCODING 186
SWIDTH 432 0
DWIDTH 24 0
BBX 20 21 2 18
BITMAP
03FE00
0FFF00
1FFFC0
3FDFC0
3E03E0
7C01E0
7800F0
7800F0
F800F0
F800F0
F800F0
F800F0
7800F0
7800F0
7C01F0
3C03E0
3F07E0
1FFFC0
0FFF80
07FF00
00F800
ENDCHAR
STARTCHAR 00BB
ENCODING 187
SWIDTH 486 0
DWIDTH 27 0
BBX 24 24 2 3
BITMAP
100300
780F80
7C0F80
7C07C0
3E07E0
3F03E0
1F01F0
0F81F8
0FC0F8
07E0FC
07E07E
03F03F
03F03F
03F07E
07E07C
0FC0FC
0F81F8
1F81F0
1F03F0
3E03E0
7E07C0
7C0FC0
F80F80
380300
ENDCHAR
STARTCHAR 00BC
ENCODING 188
SWIDTH 864 0
DWIDTH 48 0
BBX 44 39 3 0
BITMAP
01C00003C000
03C00007C000
0FC0000F8000
3FC0000F8000
FFC0001F0000
FFC0001F0000
F3C0003E0000
03C0003E0000
03C0007C0000
03C000780000
03C000F80000
03C001F00000
03C001F00000
03C003E00000
03C003E00000
03C007C00000
03C007800000
03C00F800380
03C01F000780
03C01F000F80
03C03E001F80
03C03E003F80
00007C007B80
00007800F380
0000F801E380
0001F001E380
0001F003C380
0003E0078380
0003E0070380
0007C00F0380
0007C01FFFF0
000F801FFFF0
000F001FFFF0
001F001FFFF0
003E00000380
003E00000380
007C00000380
007C00000380
00F800000380
ENDCHAR
STARTCHAR 00BD
ENCODING 189
SWIDTH 864 0
DWIDTH 48 0
BBX 43 39 3 0
BITMAP
01C0000F8000
03C0000F8000
0FC0001F0000
3FC0001F0000
FFC0003E0000
FFC0003C0000
F3C0007C0000
03C000F80000
03C000F80000
03C001F00000
03C001F00000
03C003E00000
03C003E00000
03C007C00000
03C007800000
03C00F800000
03C01F000000
03C01F01FC00
03C03E07FF00
03C03E0FFF80
03C07C0FDFC0
03C0780E07C0
0000F80003C0
0001F00003C0
0001F00003C0
0003E0000780
0003E0000F80
0007C0001F00
0007C0003E00
000F80007C00
000F0000F800
001F0001F000
003E0003E000
003E0007C000
007C00078000
007C000FFFE0
00F8000FFFE0
00F0000FFFE0
01F0000FFFE0
ENDCHAR
STARTCHAR 00BE
ENCODING 190
SWIDTH 864 0
DWIDTH 48 0
BBX 45 39 2 0
BITMAP
3FE00001F000
FFF80001F000
7FF80003E000
707C0003E000
403C0007C000
003C00078000
003C000F8000
007C001F0000
03F8001F0000
0FF0003E0000
0FF0003E0000
0FFC007C0000
007C007C0000
001E00F80000
001E00F00000
001E01F00000
001E03E00000
003E03E001C0
FFFC07C003C0
FFFC07C007C0
FFF00F800FC0
3FC00F001FC0
00001F003DC0
00003E0079C0
00003E00F1C0
00007C00F1C0
00007C01E1C0
0000F803C1C0
0000F80381C0
0001F00781C0
0001E00FFFF8
0003E00FFFF8
0007C00FFFF8
0007C00FFFF8
000F800001C0
000F800001C0
001F000001C0
001E000001C0
003E000001C0
ENDCHAR
STARTCHAR 00BF
ENCODING 191
SWIDTH 396 0
DWIDTH 22 0
BBX 19 39 2 -10
BITMAP
007800
00FC00
01FC00
01FC00
01FC00
01FC00
00F800
000000
000000
000000
000000
000000
000000
007800
007800
007800
007800
00F800
01F800
01F000
03F000
07E000
0FC000
1F8000
3F0000
3E0000
7C0000
FC0000
F80000
F80000
F80000
F80000
FC0000
FC0040
FF01C0
7FFFE0
3FFFE0
1FFFE0
07FF00
ENDCHAR
STARTCHAR 00C0
ENCODING 192
SWIDTH 648 0
DWIDTH 36 0
BBX 35 51 1 1
BITMAP
0006000000
000F000000
001F800000
000FC00000
0007C00000
0003E00000
0001F00000
0000F80000
0000700000
0000200000
0000000000
0000000000
0001F00000
0003F00000
0003F80000
0003F80000
0007FC0000
0007FC0000
000FFE0000
000FBE0000
001F3F0000
001F3F0000
003F1F0000
003E1F8000
003E0F8000
007C0FC000
007C07C000
00FC07C000
00F807E000
00F803E000
01F003F000
01F003F000
03F001F000
03E001F800
03E000F800
07E000FC00
07C000FC00
0FFFFFFC00
0FFFFFFE00
0FFFFFFE00
1FFFFFFF00
1F00003F00
1F00003F00
3F00001F80
3E00001F80
7E00001F80
7E00000FC0
7C00000FC0
FC000007C0
FC000007E0
F8000007E0
ENDCHAR
STARTCHAR 00C1
ENCODING 193
SWIDTH 648 0
DWIDTH 36 0
BBX 35 51 1 1
BITMAP
00000C0000
00001E0000
00003F0000
00007E0000
00007C0000
0000F80000
0001F00000
0003E00000
0001C00000
0000800000
0000000000
0000000000
0001F00000
0003F00000
0003F80000
0003F80000
0007FC0000
0007FC0000
000FFE0000
000FBE0000
001F3F0000
001F3F0000
003F1F0000
003E1F8000
003E0F8000
007C0FC000
007C07C000
00FC07C000
00F807E000
00F803E000
01F003F000
01F003F000
03F001F000
03E001F800
03E000F800
07E000FC00
07C000FC00
0FFFFFFC00
0FFFFFFE00
0FFFFFFE00
1FFFFFFF00
1F00003F00
1F00003F00
3F00001F80
3E00001F80
7E00001F80
7E00000FC0
7C00000FC0
FC000007C0
FC000007E0
F8000007E0
ENDCHAR
STARTCHAR 00C2
ENCODING 194
SWIDTH 648 0
DWIDTH 36 0
BBX 35 51 1 0
BITMAP
0000400000
0000E00000
0001F00000
0003F80000
0007FC0000
000FBE0000
001F1F0000
003E0F8000
001C070000
0008020000
0000000000
0000000000
0001F00000
0003F00000
0003F80000
0003F80000
0007FC0000
0007FC0000
000FFE0000
000FBE0000
001F3F0000
001F3F0000
003F1F0000
003E1F8000
003E0F8000
007C0FC000
007C07C000
00FC07C000
00F807E000
00F803E000
01F003F000
01F003F000
03F001F000
03E001F800
03E000F800
07E000FC00
07C000FC00
0FFFFFFC00
0FFFFFFE00
0FFFFFFE00
1FFFFFFF00
1F00003F00
1F00003F00
3F00001F80
3E00001F80
7E00001F80
7E00000FC0
7C00000FC0
FC000007C0
FC000007E0
F8000007E0
ENDCHAR
STARTCHAR 00C3
ENCODING 195
SWIDTH 648 0
DWIDTH 36 0
BBX 35 49 1 1
BITMAP
000F81C000
003FE3C000
007FFFC000
007FFF8000
00F07F0000
00201E0000
0000000000
0000000000
0000000000
0000000000
0001F00000
0003F00000
0003F80000
0003F80000
0007FC0000
0007FC0000
000FFE0000
000FBE0000
001F3F0000
001F3F0000
003F1F0000
003E1F8000
003E0F8000
007C0FC000
007C07C000
00FC07C000
00F807E000
00F803E000
01F003F000
01F003F000
03F001F000
03E001F800
03E000F800
07E000FC00
07C000FC00
0FFFFFFC00
0FFFFFFE00
0FFFFFFE00
1FFFFFFF00
1F00003F00
1F00003F00
3F00001F80
3E00001F80
7E00001F80
7E00000FC0
7C00000FC0
FC000007C0
FC000007E0
F8000007E0
ENDCHAR
STARTCHAR 00C4
ENCODING 196
SWIDTH 648 0
DWIDTH 36 0
BBX 35 49 1 0
BITMAP
003C0F8000
007E0FC000
007E1FC000
007E1FC000
007E0F8000
003C078000
0000000000
0000000000
0000000000
0000000000
0001F00000
0003F00000
0003F80000
0003F80000
0007FC0000
0007FC0000
000FFE0000
000FBE0000
001F3F0000
001F3F0000
003F1F0000
003E1F8000
003E0F8000
007C0FC000
007C07C000
00FC07C000
00F807E000
00F803E000
01F003F000
01F003F000
03F001F000
03E001F800
03E000F800
07E000FC00
07C000FC00
0FFFFFFC00
0FFFFFFE00
0FFFFFFE00
1FFFFFFF00
1F00003F00
1F00003F00
3F00001F80
3E00001F80
7E00001F80
7E00000FC0
7C00000FC0
FC000007C0
FC000007E0
F8000007E0
ENDCHAR
STARTCHAR 00C5
ENCODING 197
SWIDTH 648 0
DWIDTH 36 0
BBX 35 47 1 0
BITMAP
0000600000
0003F80000
0007FC0000
000F1C0000
000E0E0000
000C0E0000
000C0E0000
000E0E0000
000E1E0000
0007FC0000
0003F80000
0003F80000
0007FC0000
0007FC0000
000FFE0000
000FBE0000
001F3E0000
001F3F0000
003F1F0000
003E1F8000
003E0F8000
007C0FC000
007C07C000
00FC07C000
00F807E000
00F803E000
01F003F000
01F003F000
03F001F000
03E001F800
03E000F800
07E000FC00
07C000FC00
0FFFFFFC00
0FFFFFFE00
0FFFFFFE00
1FFFFFFE00
1F00003F00
1F00003F00
3F00001F80
3E00001F80
7E00000F80
7E00000FC0
7C00000FC0
FC000007C0
FC000007E0
F8000007E0
ENDCHAR
STARTCHAR 00C6
ENCODING 198
SWIDTH 918 0
DWIDTH 51 0
BBX 49 39 1 0
BITMAP
000001FFFFFF00
000003FFFFFF00
000007FFFFFF00
000007FFFFFF00
00000FFFFFFF00
00001FFE000000
00001F7E000000
00003E7E000000
00007E7E000000
00007C7E000000
0000F87E000000
0001F87E000000
0001F07E000000
0003F07E000000
0007E07E000000
0007C07E000000
000FC07E000000
000F807FFFFC00
001F007FFFFC00
003F007FFFFC00
003E007FFFFC00
007E007E000000
007C007E000000
00FC007E000000
01F8007E000000
01FFFFFE000000
03FFFFFE000000
03FFFFFE000000
07FFFFFE000000
0FC0007E000000
0FC0007E000000
1F80007E000000
1F00007E000000
3F00007E000000
3E00007FFFFF80
7E00007FFFFF80
7C00007FFFFF80
FC00007FFFFF80
F800007FFFFF80
ENDCHAR
STARTCHAR 00C7
ENCODING 199
SWIDTH 612 0
DWIDTH 34 0
BBX 30 50 3 -11
BITMAP
0007FF80
003FFFF0
00FFFFFC
01FFFFF8
03FF87F8
07F80078
0FF00000
0FC00000
1F800000
3F800000
3F000000
3F000000
7E000000
7E000000
7E000000
7C000000
FC000000
FC000000
FC000000
FC000000
FC000000
FC000000
FC000000
FC000000
7C000000
7E000000
7E000000
7E000000
3F000000
3F000000
3F800000
1FC00000
0FE00000
0FF00018
07FE00F8
03FFFFF8
01FFFFFC
007FFFFC
001FFFE0
0003FE00
0001C000
0003E000
0003F000
0001F800
00007800
00007800
001FF800
001FF800
001FF000
00010000
ENDCHAR
STARTCHAR 00C8
ENCODING 200
SWIDTH 558 0
DWIDTH 31 0
BBX 25 52 5 0
BITMAP
00400000
00E00000
01E00000
03F00000
01F80000
00FC0000
007E0000
003F0000
001F0000
000F0000
00060000
00000000
00000000
FFFFFE00
FFFFFE00
FFFFFE00
FFFFFE00
FFFFFE00
F8000000
F8000000
F8000000
F8000000
F8000000
F8000000
F8000000
F8000000
F8000000
F8000000
F8000000
F8000000
FFFFF800
FFFFF800
FFFFF800
FFFFF800
F8000000
F8000000
F8000000
F8000000
F8000000
F8000000
F8000000
F8000000
F8000000
F8000000
F8000000
F8000000
F8000000
FFFFFF80
FFFFFF80
FFFFFF80
FFFFFF80
FFFFFF80
ENDCHAR
STARTCHAR 00C9
ENCODING 201
SWIDTH 558 0
DWIDTH 31 0
BBX 25 51 5 1
BITMAP
00018000
0003E000
0007E000
0007C000
000F8000
001F0000
003E0000
007C0000
00380000
00100000
00000000
00000000
FFFFFE00
FFFFFE00
FFFFFE00
FFFFFE00
FFFFFE00
F8000000
F8000000
F8000000
F8000000
F8000000
F8000000
F8000000
F8000000
F8000000
F8000000
F8000000
F8000000
FFFFF800
FFFFF800
FFFFF800
FFFFF800
F8000000
F8000000
F8000000
F8000000
F8000000
F8000000
F8000000
F8000000
F8000000
F8000000
F8000000
F8000000
F8000000
FFFFFF80
FFFFFF80
FFFFFF80
FFFFFF80
FFFFFF80
ENDCHAR
STARTCHAR 00CA
ENCODING 202
SWIDTH 558 0
DWIDTH 31 0
BBX 25 51 5 0
BITMAP
00100000
00380000
007C0000
00FE0000
01FF0000
03EF8000
07C7C000
0F83E000
0701C000
02008000
00000000
00000000
FFFFFE00
FFFFFE00
FFFFFE00
FFFFFE00
FFFFFE00
F8000000
F8000000
F8000000
F8000000
F8000000
F8000000
F8000000
F8000000
F8000000
F8000000
F8000000
F8000000
FFFFF800
FFFFF800
FFFFF800
FFFFF800
F8000000
F8000000
F8000000
F8000000
F8000000
F8000000
F8000000
F8000000
F8000000
F8000000
F8000000
F8000000
F8000000
FFFFFF80
FFFFFF80
FFFFFF80
FFFFFF80
FFFFFF80
ENDCHAR
STARTCHAR 00CB
ENCODING 203
SWIDTH 558 0
DWIDTH 31 0
BBX 25 49 5 0
BITMAP
0F83E000
1F83F000
1F83F000
1F83F000
1F83F000
0F01E000
00000000
00000000
00000000
00000000
FFFFFE00
FFFFFE00
FFFFFE00
FFFFFE00
FFFFFE00
F8000000
F8000000
F8000000
F8000000
F8000000
F8000000
F8000000
F8000000
F8000000
F8000000
F8000000
F8000000
FFFFF800
FFFFF800
FFFFF800
FFFFF800
F8000000
F8000000
F8000000
F8000000
F8000000
F8000000
F8000000
F8000000
F8000000
F8000000
F8000000
F8000000
F8000000
FFFFFF80
FFFFFF80
FFFFFF80
FFFFFF80
FFFFFF80
ENDCHAR
STARTCHAR 00CC
ENCODING 204
SWIDTH 252 0
DWIDTH 14 0
BBX 10 51 1 1
BITMAP
3000
7800
FC00
7E00
3F00
1F00
0F80
07C0
0380
0100
0000
0000
0F80
0F80
0F80
0F80
0F80
0F80
0F80
0F80
0F80
0F80
0F80
0F80
0F80
0F80
0F80
0F80
0F80
0F80
0F80
0F80
0F80
0F80
0F80
0F80
0F80
0F80
0F80
0F80
0F80
0F80
0F80
0F80
0F80
0F80
0F80
0F80
0F80
0F80
0F80
ENDCHAR
STARTCHAR 00CD
ENCODING 205
SWIDTH 252 0
DWIDTH 14 0
BBX 10 51 4 1
BITMAP
0300
0780
0FC0
1F80
3F00
3E00
7C00
F800
7000
2000
0000
0000
7C00
7C00
7C00
7C00
7C00
7C00
7C00
7C00
7C00
7C00
7C00
7C00
7C00
7C00
7C00
7C00
7C00
7C00
7C00
7C00
7C00
7C00
7C00
7C00
7C00
7C00
7C00
7C00
7C00
7C00
7C00
7C00
7C00
7C00
7C00
7C00
7C00
7C00
7C00
ENDCHAR
STARTCHAR 00CE
ENCODING 206
SWIDTH 252 0
DWIDTH 14 0
BBX 15 51 0 0
BITMAP
0100
0380
07C0
0FE0
1FF0
3EF8
7C7C
F83E
701C
2008
0000
0000
07C0
07C0
07C0
07C0
07C0
07C0
07C0
07C0
07C0
07C0
07C0
07C0
07C0
07C0
07C0
07C0
07C0
07C0
07C0
07C0
07C0
07C0
07C0
07C0
07C0
07C0
07C0
07C0
07C0
07C0
07C0
07C0
07C0
07C0
07C0
07C0
07C0
07C0
07C0
ENDCHAR
STARTCHAR 00CF
ENCODING 207
SWIDTH 252 0
DWIDTH 14 0
BBX 17 49 -1 0
BITMAP
7C1F00
FC1F80
FC1F80
FC1F80
FC1F80
780F00
000000
000000
000000
000000
03E000
03E000
03E000
03E000
03E000
03E000
03E000
03E000
03E000
03E000
03E000
03E000
03E000
03E000
03E000
03E000
03E000
03E000
03E000
03E000
03E000
03E000
03E000
03E000
03E000
03E000
03E000
03E000
03E000
03E000
03E000
03E000
03E000
03E000
03E000
03E000
03E000
03E000
03E000
ENDCHAR
STARTCHAR 00D0
ENCODING 208
SWIDTH 720 0
DWIDTH 40 0
BBX 36 39 1 0
BITMAP
00FFF00000
0FFFFF0000
0FFFFFC000
0FFFFFF000
0FFFFFFC00
0FC007FE00
0FC001FF00
0FC0007F80
0FC0003F80
0FC0001FC0
0FC0000FC0
0FC00007E0
0FC00007E0
0FC00007E0
0FC00003F0
0FC00003F0
0FC00003F0
FFFF8003F0
FFFF8003F0
FFFF8003F0
FFFF8003F0
0FC00003F0
0FC00003F0
0FC00003F0
0FC00003F0
0FC00003E0
0FC00007E0
0FC00007E0
0FC0000FE0
0FC0000FC0
0FC0001FC0
0FC0003F80
0FC000FF00
0FC003FE00
0FE07FFC00
0FFFFFF800
0FFFFFE000
0FFFFF8000
07FFFC0000
ENDCHAR
STARTCHAR 00D1
ENCODING 209
SWIDTH 720 0
DWIDTH 40 0
BBX 31 49 5 1
BITMAP
007E0700
00FF8F00
01FFFF00
01FFFE00
03C3FC00
01807000
00000000
00000000
00000000
00000000
F000007E
F800007E
FC00007E
FE00007E
FF00007E
FF00007E
FF80007E
FFC0007E
FFE0007E
FBF0007E
FBF0007E
F9F8007E
F8FC007E
F87E007E
F83E007E
F83F007E
F81F807E
F80FC07E
F807C07E
F807E07E
F803F07E
F801F07E
F801F87E
F800FC7E
F8007E7E
F8007E7E
F8003F7E
F8001F7E
F8000FFE
F8000FFE
F80007FE
F80003FE
F80003FE
F80001FE
F80001FE
F80000FE
F800007E
F800007E
F800003E
ENDCHAR
STARTCHAR 00D2
ENCODING 210
SWIDTH 774 0
DWIDTH 43 0
BBX 37 53 3 -1
BITMAP
0001000000
0003000000
0007800000
000FC00000
0007E00000
0003F00000
0001F80000
0000F80000
00007C0000
00003C0000
0000100000
0000000000
0000000000
0007FF8000
003FFFE000
00FFFFF800
01FFFFFC00
03FF8FFE00
07F800FF00
0FE0003F80
1FC0001FC0
1F80000FC0
3F800007E0
3F000007E0
7E000003F0
7E000003F0
7E000003F0
7C000001F8
FC000001F8
FC000001F8
FC000001F8
FC000001F8
FC000001F8
FC000001F8
FC000001F8
FC000001F8
FC000001F8
7C000001F8
7E000001F0
7E000003F0
7E000003F0
3F000007F0
3F000007E0
1F80000FE0
1FC0001FC0
0FE0003F80
07F0007F80
07FE01FF00
03FFFFFE00
00FFFFFC00
007FFFF000
001FFFC000
0001FC0000
ENDCHAR
STARTCHAR 00D3
ENCODING 211
SWIDTH 774 0
DWIDTH 43 0
BBX 37 52 3 0
BITMAP
0000060000
00000F0000
00001F8000
00003F0000
00003E0000
00007C0000
0000F80000
0001F00000
0000E00000
0000400000
0000000000
0000000000
0007FF8000
003FFFE000
00FFFFF800
01FFFFFC00
03FF8FFE00
07F800FF00
0FE0003F80
1FC0001FC0
1F80000FC0
3F800007E0
3F000007E0
7E000003F0
7E000003F0
7E000003F0
7C000001F8
FC000001F8
FC000001F8
FC000001F8
FC000001F8
FC000001F8
FC000001F8
FC000001F8
FC000001F8
FC000001F8
7C000001F8
7E000001F0
7E000003F0
7E000003F0
3F000007F0
3F000007E0
1F80000FE0
1FC0001FC0
0FE0003F80
07F0007F80
07FE01FF00
03FFFFFE00
00FFFFFC00
007FFFF000
001FFFC000
0001FC0000
ENDCHAR
STARTCHAR 00D4
ENCODING 212
SWIDTH 774 0
DWIDTH 43 0
BBX 37 52 3 -1
BITMAP
0000200000
0000700000
0000F80000
0001FC0000
0003FE0000
0007DF0000
000F8F8000
001F07C000
000E038000
0004010000
0000000000
0000000000
0007FF8000
003FFFE000
00FFFFF800
01FFFFFC00
03FF8FFE00
07F800FF00
0FE0003F80
1FC0001FC0
1F80000FC0
3F800007E0
3F000007E0
7E000003F0
7E000003F0
7E000003F0
7C000001F8
FC000001F8
FC000001F8
FC000001F8
FC000001F8
FC000001F8
FC000001F8
FC000001F8
FC000001F8
FC000001F8
7C000001F8
7E000001F0
7E000003F0
7E000003F0
3F000007F0
3F000007E0
1F80000FE0
1FC0001FC0
0FE0003F80
07F0007F80
07FE01FF00
03FFFFFE00
00FFFFFC00
007FFFF000
001FFFC000
0001FC0000
ENDCHAR
STARTCHAR 00D5
ENCODING 213
SWIDTH 774 0
DWIDTH 43 0
BBX 37 50 3 0
BITMAP
0007C0E000
000FF1E000
001FFFE000
003FFFC000
00383F8000
00180F0000
0000000000
0000000000
0000000000
0000000000
0007FF8000
003FFFE000
00FFFFF800
01FFFFFC00
03FF8FFE00
07F800FF00
0FE0003F80
1FC0001FC0
1F80000FC0
3F800007E0
3F000007E0
7E000003F0
7E000003F0
7E000003F0
7C000001F8
FC000001F8
FC000001F8
FC000001F8
FC000001F8
FC000001F8
FC000001F8
FC000001F8
FC000001F8
FC000001F8
7C000001F8
7E000001F0
7E000003F0
7E000003F0
3F000007F0
3F000007E0
1F80000FE0
1FC0001FC0
0FE0003F80
07F0007F80
07FE01FF00
03FFFFFE00
00FFFFFC00
007FFFF000
001FFFC000
0001FC0000
ENDCHAR
STARTCHAR 00D6
ENCODING 214
SWIDTH 774 0
DWIDTH 43 0
BBX 37 50 3 -1
BITMAP
001F03C000
003F07E000
003F87E000
003F87E000
001F07E000
001E03C000
0000000000
0000000000
0000000000
0000000000
0007FF8000
003FFFE000
00FFFFF800
01FFFFFC00
03FF8FFE00
07F800FF00
0FE0003F80
1FC0001FC0
1F80000FC0
3F800007E0
3F000007E0
7E000003F0
7E000003F0
7E000003F0
7C000001F8
FC000001F8
FC000001F8
FC000001F8
FC000001F8
FC000001F8
FC000001F8
FC000001F8
FC000001F8
FC000001F8
7C000001F8
7E000001F0
7E000003F0
7E000003F0
3F000007F0
3F000007E0
1F80000FE0
1FC0001FC0
0FE0003F80
07F0007F80
07FE01FF00
03FFFFFE00
00FFFFFC00
007FFFF000
001FFFC000
0001FC0000
ENDCHAR
STARTCHAR 00D7
ENCODING 215
SWIDTH 558 0
DWIDTH 31 0
BBX 23 23 4 5
BITMAP
100010
380038
7C007C
7E00FE
3F01FC
1F83F8
0FC7F0
07EFE0
03FFC0
01FF80
00FF00
00FE00
01FF00
03FF80
07FFC0
0FE7E0
1FC3F0
3F81F8
7F00FC
FE007E
7C003C
380018
100000
ENDCHAR
STARTCHAR 00D8
ENCODING 216
SWIDTH 774 0
DWIDTH 43 0
BBX 37 43 3 -2
BITMAP
0000000080
00000000C0
0007FF81E0
003FFFE3F0
00FFFFFFE0
01FFFFFFC0
03FF87FF80
07F800FF00
0FE0003F80
1FC0007FC0
1F80007FC0
3F8000FFE0
3F0001FFE0
7E0003F3F0
7E0003E3F0
7E0007C3F0
7C000F81F8
FC001F81F8
FC003F01F8
FC003E01F8
FC007C01F8
FC00FC01F8
FC01F801F8
FC01F001F8
FC03E001F8
FC07E001F8
7C0FC001F8
7E0F8001F0
7E1F0003F0
7E3E0003F0
3F7E0007F0
3FFC0007E0
1FF8000FE0
1FF0001FC0
0FF0003F80
07F0007F80
07FC01FF00
0FFFFFFE00
1FFFFFFC00
3F7FFFF000
3E1FFFC000
1C01FC0000
0800000000
ENDCHAR
STARTCHAR 00D9
ENCODING 217
SWIDTH 684 0
DWIDTH 38 0
BBX 30 53 4 -1
BITMAP
00100000
00380000
007C0000
00FE0000
007E0000
001F0000
000F8000
0007C000
0003E000
0001C000
00008000
00000000
00000000
FC0000FC
FC0000FC
FC0000FC
FC0000FC
FC0000FC
FC0000FC
FC0000FC
FC0000FC
FC0000FC
FC0000FC
FC0000FC
FC0000FC
FC0000FC
FC0000FC
FC0000FC
FC0000FC
FC0000FC
FC0000FC
FC0000FC
FC0000FC
FC0000FC
FC0000FC
FC0000FC
FC0000FC
FC0000FC
7C0000FC
7C0000FC
7C0000FC
7C0000F8
7E0001F8
7E0001F8
3F0003F8
3F0003F0
1FC007F0
1FF01FE0
0FFFFFC0
07FFFF80
03FFFF00
00FFFC00
001FE000
ENDCHAR
STARTCHAR 00DA
ENCODING 218
SWIDTH 684 0
DWIDTH 38 0
BBX 30 53 4 -1
BITMAP
00002000
00007000
00007800
0000FC00
0001F800
0003F000
0007E000
000FC000
000F8000
000F0000
00060000
00000000
00000000
FC0000FC
FC0000FC
FC0000FC
FC0000FC
FC0000FC
FC0000FC
FC0000FC
FC0000FC
FC0000FC
FC0000FC
FC0000FC
FC0000FC
FC0000FC
FC0000FC
FC0000FC
FC0000FC
FC0000FC
FC0000FC
FC0000FC
FC0000FC
FC0000FC
FC0000FC
FC0000FC
FC0000FC
FC0000FC
7C0000FC
7C0000FC
7C0000FC
7C0000F8
7E0001F8
7E0001F8
3F0003F8
3F0003F0
1FC007F0
1FF01FE0
0FFFFFC0
07FFFF80
03FFFF00
00FFFC00
001FE000
ENDCHAR
STARTCHAR 00DB
ENCODING 219
SWIDTH 684 0
DWIDTH 38 0
BBX 30 52 4 -1
BITMAP
00030000
00078000
000FC000
001FE000
003FF000
007EF800
007C7C00
00F03E00
00E01C00
00400800
00000000
00000000
FC0000FC
FC0000FC
FC0000FC
FC0000FC
FC0000FC
FC0000FC
FC0000FC
FC0000FC
FC0000FC
FC0000FC
FC0000FC
FC0000FC
FC0000FC
FC0000FC
FC0000FC
FC0000FC
FC0000FC
FC0000FC
FC0000FC
FC0000FC
FC0000FC
FC0000FC
FC0000FC
FC0000FC
FC0000FC
7C0000FC
7C0000FC
7C0000FC
7C0000F8
7E0001F8
7E0001F8
3F0003F8
3F0003F0
1FC007F0
1FF01FE0
0FFFFFC0
07FFFF80
03FFFF00
00FFFC00
001FE000
ENDCHAR
STARTCHAR 00DC
ENCODING 220
SWIDTH 684 0
DWIDTH 38 0
BBX 30 50 4 -1
BITMAP
00F03E00
01F87E00
01F87F00
01F87F00
01F83E00
00F03C00
00000000
00000000
00000000
00000000
FC0000FC
FC0000FC
FC0000FC
FC0000FC
FC0000FC
FC0000FC
FC0000FC
FC0000FC
FC0000FC
FC0000FC
FC0000FC
FC0000FC
FC0000FC
FC0000FC
FC0000FC
FC0000FC
FC0000FC
FC0000FC
FC0000FC
FC0000FC
FC0000FC
FC0000FC
FC0000FC
FC0000FC
FC0000FC
7C0000FC
7C0000FC
7C0000FC
7C0000F8
7E0001F8
7E0001F8
3F0003F8
3F0003F0
1FC007F0
1FF01FE0
0FFFFFC0
07FFFF80
03FFFF00
00FFFC00
001FE000
ENDCHAR
STARTCHAR 00DD
ENCODING 221
SWIDTH 594 0
DWIDTH 33 0
BBX 33 51 0 1
BITMAP
0000180000
00003C0000
00007E0000
0000FC0000
0000F80000
0001F00000
0003E00000
0007C00000
0003800000
0001000000
0000000000
0000000000
FE00001F80
7E00003F00
7F00003F00
3F00007E00
1F80007E00
1F8000FC00
0FC000FC00
0FC001F800
07E001F000
07E003F000
03F003E000
01F007E000
01F807C000
00FC0F8000
00FC1F8000
007E1F0000
007E3F0000
003F3E0000
001FFC0000
001FFC0000
000FF80000
0007F80000
0007F00000
0003E00000
0003E00000
0003E00000
0003E00000
0003E00000
0003E00000
0003E00000
0003E00000
0003E00000
0003E00000
0003E00000
0003E00000
0003E00000
0003E00000
0003E00000
0003E00000
ENDCHAR
STARTCHAR 00DE
ENCODING 222
SWIDTH 594 0
DWIDTH 33 0
BBX 27 39 5 0
BITMAP
F8000000
F8000000
F8000000
F8000000
F8000000
F8000000
F8000000
FFFFC000
FFFFF000
FFFFFC00
FFFFFF00
F807FF00
F8007F80
F8001FC0
F8000FC0
F8000FC0
F80007E0
F80007E0
F80007E0
F80007E0
F80007E0
F80007E0
F8000FC0
F8000FC0
F8001FC0
F8007F80
F80FFF00
FFFFFE00
FFFFFC00
FFFFF000
FFFF8000
F8000000
F8000000
F8000000
F8000000
F8000000
F8000000
F8000000
F8000000
ENDCHAR
STARTCHAR 00DF
ENCODING 223
SWIDTH 612 0
DWIDTH 34 0
BBX 28 44 4 -1
BITMAP
00FF8000
03FFF000
0FFFF800
1FFFFC00
1FE3FE00
3F007E00
7E003E00
7E003F00
7C003F00
7C003F00
FC003E00
FC003E00
FC007E00
FC007C00
FC00F800
FC01F800
FC03F000
FC07E000
FC0FC000
FC0F8000
FC1F8000
FC1F8000
FC1F8000
FC0FC000
FC0FF000
FC07FC00
FC03FF00
FC00FF80
FC003FC0
FC000FE0
FC0007F0
FC0003F0
FC0001F0
FC0001F0
FC0001F0
FC0001F0
FC0001F0
FC0003F0
FC1807F0
FC1FFFE0
FC3FFFE0
FC3FFFC0
FC1FFF00
0001F000
ENDCHAR
STARTCHAR 00E0
ENCODING 224
SWIDTH 522 0
DWIDTH 29 0
BBX 23 44 2 -1
BITMAP
004000
00E000
01E000
03F000
01F800
00FC00
007E00
003F00
001F00
000E00
000400
000000
000000
003800
0FFFC0
0FFFE0
0FFFF8
0FFFF8
0801FC
0000FC
00007C
00007E
00003E
00003E
00003E
001C3E
03FFFE
0FFFFE
1FFFFE
3FFFFE
7F003E
7E003E
7C003E
FC003E
FC003E
FC003E
7C003E
7E003E
7F003E
3FFFFE
3FFFFE
1FFFFE
07FFFE
003C00
ENDCHAR
STARTCHAR 00E1
ENCODING 225
SWIDTH 522 0
DWIDTH 29 0
BBX 23 44 2 -1
BITMAP
000180
0001C0
0003E0
0007E0
000FC0
001F80
003F00
003E00
007C00
003800
001000
000000
000000
003800
0FFFC0
0FFFE0
0FFFF8
0FFFF8
0801FC
0000FC
00007C
00007E
00003E
00003E
00003E
001C3E
03FFFE
0FFFFE
1FFFFE
3FFFFE
7F003E
7E003E
7C003E
FC003E
FC003E
FC003E
7C003E
7E003E
7F003E
3FFFFE
3FFFFE
1FFFFE
07FFFE
003C00
ENDCHAR
STARTCHAR 00E2
ENCODING 226
SWIDTH 522 0
DWIDTH 29 0
BBX 23 44 2 -1
BITMAP
000800
001C00
003E00
003F00
007F80
00FFC0
01F7E0
03E1F0
07C0F0
038060
000000
000000
000000
003800
0FFFC0
0FFFE0
0FFFF8
0FFFF8
0801FC
0000FC
00007C
00007E
00003E
00003E
00003E
001C3E
03FFFE
0FFFFE
1FFFFE
3FFFFE
7F003E
7E003E
7C003E
FC003E
FC003E
FC003E
7C003E
7E003E
7F003E
3FFFFE
3FFFFE
1FFFFE
07FFFE
003C00
ENDCHAR
STARTCHAR 00E3
ENCODING 227
SWIDTH 522 0
DWIDTH 29 0
BBX 23 42 2 -1
BITMAP
004010
03F83C
07FE78
0FFFF8
0FBFF0
1E0FE0
040100
000000
000000
000000
000000
003800
0FFFC0
0FFFE0
0FFFF8
0FFFF8
0801FC
0000FC
00007C
00007E
00003E
00003E
00003E
001C3E
03FFFE
0FFFFE
1FFFFE
3FFFFE
7F003E
7E003E
7C003E
FC003E
FC003E
FC003E
7C003E
7E003E
7F003E
3FFFFE
3FFFFE
1FFFFE
07FFFE
003C00
ENDCHAR
STARTCHAR 00E4
ENCODING 228
SWIDTH 522 0
DWIDTH 29 0
BBX 23 42 2 -1
BITMAP
038060
07C1F0
0FC1F8
0FE1F8
0FC1F8
07C1F0
038060
000000
000000
000000
000000
003800
0FFFC0
0FFFE0
0FFFF8
0FFFF8
0801FC
0000FC
00007C
00007E
00003E
00003E
00003E
001C3E
03FFFE
0FFFFE
1FFFFE
3FFFFE
7F003E
7E003E
7C003E
FC003E
FC003E
FC003E
7C003E
7E003E
7F003E
3FFFFE
3FFFFE
1FFFFE
07FFFE
003C00
ENDCHAR
STARTCHAR 00E5
ENCODING 229
SWIDTH 522 0
DWIDTH 29 0
BBX 23 44 2 -1
BITMAP
003F00
00FF80
00F3C0
01C1C0
01C1C0
01C0C0
01C1C0
01C1C0
00FF80
007F80
003E00
000000
000000
003800
0FFFC0
0FFFE0
0FFFF8
0FFFF8
0801FC
0000FC
00007C
00007E
00003E
00003E
00003E
001C3E
03FFFE
0FFFFE
1FFFFE
3FFFFE
7F003E
7E003E
7C003E
FC003E
FC003E
FC003E
7C003E
7E003E
7F003E
3FFFFE
3FFFFE
1FFFFE
07FFFE
003C00
ENDCHAR
STARTCHAR 00E6
ENCODING 230
SWIDTH 846 0
DWIDTH 47 0
BBX 43 31 2 -1
BITMAP
003800038000
0FFF803FF000
0FFFE0FFFC00
0FFFF1FFFE00
0FFFFBFFFF00
0801FFE03F80
0000FFC01F80
00007F800FC0
00007F000FC0
00003F0007C0
00003E0007C0
00003E0007E0
001C3E0007E0
03FFFFFFFFE0
0FFFFFFFFFE0
1FFFFFFFFFE0
3FFFFFFFFFE0
7F003E000000
7E003E000000
7C003E000000
FC003F000000
FC003F000000
FC001F800000
7C001F800000
7E001FC00000
7F007FF00300
3FFFFFFFFF00
3FFFFFFFFF00
0FFFF9FFFF80
07FFE07FFF00
007C0007E000
ENDCHAR
STARTCHAR 00E7
ENCODING 231
SWIDTH 450 0
DWIDTH 25 0
BBX 22 41 3 -11
BITMAP
000600
00FFF8
03FFF8
07FFF8
0FFFF8
1FE030
3F8000
3F0000
7E0000
7C0000
FC0000
FC0000
F80000
F80000
F80000
F80000
F80000
F80000
F80000
FC0000
FC0000
7C0000
7E0000
7F0000
3F8000
1FE018
1FFFF8
0FFFF8
03FFFC
00FFF8
001F00
001C00
003E00
003F00
001F80
000F80
000F80
01FF80
01FF00
01FE00
003000
ENDCHAR
STARTCHAR 00E8
ENCODING 232
SWIDTH 558 0
DWIDTH 31 0
BBX 25 44 3 -1
BITMAP
00400000
00E00000
01F00000
01F80000
00F80000
007C0000
003E0000
001F0000
000F8000
00060000
00000000
00000000
00000000
001C0000
00FFE000
03FFF000
07FFF800
0FFFFC00
1FC0FE00
3F007F00
3E003F00
7E001F00
7C001F00
FC001F80
FC000F80
F8000F80
FFFFFF80
FFFFFF80
FFFFFF80
FFFFFF80
F8000000
F8000000
FC000000
FC000000
7C000000
7E000000
7F000000
3F800000
1FE00C00
1FFFFE00
0FFFFE00
03FFFE00
00FFFC00
001F8000
ENDCHAR
STARTCHAR 00E9
ENCODING 233
SWIDTH 558 0
DWIDTH 31 0
BBX 25 44 3 -1
BITMAP
00008000
0001C000
0003E000
0007E000
000FC000
000F8000
001F0000
003E0000
007C0000
00380000
00100000
00000000
00000000
001C0000
00FFE000
03FFF000
07FFF800
0FFFFC00
1FC0FE00
3F007F00
3E003F00
7E001F00
7C001F00
FC001F80
FC000F80
F8000F80
FFFFFF80
FFFFFF80
FFFFFF80
FFFFFF80
F8000000
F8000000
FC000000
FC000000
7C000000
7E000000
7F000000
3F800000
1FE00C00
1FFFFE00
0FFFFE00
03FFFE00
00FFFC00
001F8000
ENDCHAR
STARTCHAR 00EA
ENCODING 234
SWIDTH 558 0
DWIDTH 31 0
BBX 25 43 3 0
BITMAP
000C0000
001E0000
003F0000
007F8000
00FFC000
01F3E000
03E1F000
03C0F000
03806000
01000000
00000000
00000000
001C0000
00FFE000
03FFF000
07FFF800
0FFFFC00
1FC0FE00
3F007F00
3E003F00
7E001F00
7C001F00
FC001F80
FC000F80
F8000F80
FFFFFF80
FFFFFF80
FFFFFF80
FFFFFF80
F8000000
F8000000
FC000000
FC000000
7C000000
7E000000
7F000000
3F800000
1FE00C00
1FFFFE00
0FFFFE00
03FFFE00
00FFFC00
001F8000
ENDCHAR
STARTCHAR 00EB
ENCODING 235
SWIDTH 558 0
DWIDTH 31 0
BBX 25 42 3 -1
BITMAP
03806000
07C0F800
0FE1F800
0FE1F800
0FE1F800
07C0F800
03807000
00000000
00000000
00000000
00000000
001C0000
00FFE000
03FFF000
07FFF800
0FFFFC00
1FC0FE00
3F007F00
3E003F00
7E001F00
7C001F00
FC001F80
FC000F80
F8000F80
FFFFFF80
FFFFFF80
FFFFFF80
FFFFFF80
F8000000
F8000000
FC000000
FC000000
7C000000
7E000000
7F000000
3F800000
1FE00C00
1FFFFE00
0FFFFE00
03FFFE00
00FFFC00
001F8000
ENDCHAR
STARTCHAR 00EC
ENCODING 236
SWIDTH 252 0
DWIDTH 14 0
BBX 10 43 1 0
BITMAP
2000
7000
F800
FC00
7E00
3E00
1F00
0F80
07C0
0380
0100
0000
0000
0000
1F80
1F80
1F80
1F80
1F80
1F80
1F80
1F80
1F80
1F80
1F80
1F80
1F80
1F80
1F80
1F80
1F80
1F80
1F80
1F80
1F80
1F80
1F80
1F80
1F80
1F80
1F80
1F80
1F80
ENDCHAR
STARTCHAR 00ED
ENCODING 237
SWIDTH 252 0
DWIDTH 14 0
BBX 10 43 3 0
BITMAP
0100
0380
07C0
0FC0
0F80
1F00
3E00
7C00
F800
3000
0000
0000
0000
0000
7E00
7E00
7E00
7E00
7E00
7E00
7E00
7E00
7E00
7E00
7E00
7E00
7E00
7E00
7E00
7E00
7E00
7E00
7E00
7E00
7E00
7E00
7E00
7E00
7E00
7E00
7E00
7E00
7E00
ENDCHAR
STARTCHAR 00EE
ENCODING 238
SWIDTH 252 0
DWIDTH 14 0
BBX 14 42 0 1
BITMAP
0300
0780
0FC0
1FE0
3FF0
7CF8
F87C
F03C
6018
0008
0000
0000
0000
0FC0
0FC0
0FC0
0FC0
0FC0
0FC0
0FC0
0FC0
0FC0
0FC0
0FC0
0FC0
0FC0
0FC0
0FC0
0FC0
0FC0
0FC0
0FC0
0FC0
0FC0
0FC0
0FC0
0FC0
0FC0
0FC0
0FC0
0FC0
0FC0
ENDCHAR
STARTCHAR 00EF
ENCODING 239
SWIDTH 252 0
DWIDTH 14 0
BBX 17 41 -1 0
BITMAP
700E00
F81F00
FC3F00
FC3F80
FC3F00
F81F00
700E00
000000
000000
000000
000000
000000
07E000
07E000
07E000
07E000
07E000
07E000
07E000
07E000
07E000
07E000
07E000
07E000
07E000
07E000
07E000
07E000
07E000
07E000
07E000
07E000
07E000
07E000
07E000
07E000
07E000
07E000
07E000
07E000
07E000
ENDCHAR
STARTCHAR 00F0
ENCODING 240
SWIDTH 576 0
DWIDTH 32 0
BBX 28 44 3 -1
BITMAP
00060000
000F0000
001FC000
000FE020
0007E1F0
0003FFF0
0001FFF0
0003FF80
001FFE00
003FFE00
003FBE00
001C1F00
00001F00
00000F80
00000F80
00000F80
00FF87C0
03FFF7C0
0FFFFFC0
1FFFFFC0
3FE0FFC0
3F801FC0
7E000FE0
7E0007E0
FC0007E0
FC0007E0
F80007E0
F80007E0
F80007C0
F80007C0
F80007C0
F80007C0
F8000FC0
FC000FC0
7C000F80
7E001F80
7E001F80
3F003F00
3FC0FE00
1FFFFE00
0FFFFC00
07FFF800
01FFE000
001E0000
ENDCHAR
STARTCHAR 00F1
ENCODING 241
SWIDTH 558 0
DWIDTH 31 0
BBX 24 41 4 0
BITMAP
000020
03F038
07FEF8
0FFFF0
1F7FF0
1E0FC0
040100
000000
000000
000000
000000
000000
3FFFC0
FFFFF0
FFFFF8
FFFFFC
FC01FC
FC00FE
FC007E
FC003E
FC003E
FC003F
FC003F
FC001F
FC001F
FC001F
FC001F
FC001F
FC001F
FC001F
FC001F
FC001F
FC001F
FC001F
FC001F
FC001F
FC001F
FC001F
FC001F
FC001F
FC001F
ENDCHAR
STARTCHAR 00F2
ENCODING 242
SWIDTH 576 0
DWIDTH 32 0
BBX 27 44 3 -1
BITMAP
00600000
00E00000
01F00000
01F80000
00FC0000
007E0000
003F0000
001F0000
000F8000
00070000
00020000
00000000
00000000
000E0000
00FFE000
03FFF800
07FFFC00
0FFFFE00
1FC0FF00
3F803F80
3F001F80
7E000FC0
7C000FC0
FC0007C0
FC0007E0
F80007E0
F80007E0
F80003E0
F80003E0
F80003E0
F80007E0
F80007E0
FC0007E0
FC0007C0
7C000FC0
7E000FC0
3F001F80
3F803F80
1FC07F00
0FFFFE00
07FFFC00
03FFF800
00FFE000
001F0000
ENDCHAR
STARTCHAR 00F3
ENCODING 243
SWIDTH 576 0
DWIDTH 32 0
BBX 27 44 3 -1
BITMAP
00008000
0001C000
0001E000
0003F000
0007E000
000FC000
001F8000
003F0000
003E0000
001C0000
00080000
00000000
00000000
000E0000
00FFE000
03FFF800
07FFFC00
0FFFFE00
1FC0FF00
3F803F80
3F001F80
7E000FC0
7C000FC0
FC0007C0
FC0007E0
F80007E0
F80007E0
F80003E0
F80003E0
F80003E0
F80007E0
F80007E0
FC0007E0
FC0007C0
7C000FC0
7E000FC0
3F001F80
3F803F80
1FC07F00
0FFFFE00
07FFFC00
03FFF800
00FFE000
001F0000
ENDCHAR
STARTCHAR 00F4
ENCODING 244
SWIDTH 576 0
DWIDTH 32 0
BBX 27 44 3 -1
BITMAP
00040000
000E0000
001F0000
003F0000
007F8000
00FFC000
01FBE000
01E1F000
03C0F800
01807000
00000000
00000000
00000000
000E0000
00FFE000
03FFF800
07FFFC00
0FFFFE00
1FC0FF00
3F803F80
3F001F80
7E000FC0
7C000FC0
FC0007C0
FC0007E0
F80007E0
F80007E0
F80003E0
F80003E0
F80003E0
F80007E0
F80007E0
FC0007E0
FC0007C0
7C000FC0
7E000FC0
3F001F80
3F803F80
1FC07F00
0FFFFE00
07FFFC00
03FFF800
00FFE000
001F0000
ENDCHAR
STARTCHAR 00F5
ENCODING 245
SWIDTH 576 0
DWIDTH 32 0
BBX 27 42 3 -1
BITMAP
00000800
01FC1E00
03FF7C00
07FFFC00
079FF800
0F07F000
02008000
00000000
00000000
00000000
00000000
000E0000
00FFE000
03FFF800
07FFFC00
0FFFFE00
1FC0FF00
3F803F80
3F001F80
7E000FC0
7C000FC0
FC0007C0
FC0007E0
F80007E0
F80007E0
F80003E0
F80003E0
F80003E0
F80007E0
F80007E0
FC0007E0
FC0007C0
7C000FC0
7E000FC0
3F001F80
3F803F80
1FC07F00
0FFFFE00
07FFFC00
03FFF800
00FFE000
001F0000
ENDCHAR
STARTCHAR 00F6
ENCODING 246
SWIDTH 576 0
DWIDTH 32 0
BBX 27 42 3 -1
BITMAP
01807000
03E0F800
07E0FC00
07E1FC00
07E0FC00
03E0F800
01807000
00000000
00000000
00000000
00000000
000E0000
00FFE000
03FFF800
07FFFC00
0FFFFE00
1FC0FF00
3F803F80
3F001F80
7E000FC0
7C000FC0
FC0007C0
FC0007E0
F80007E0
F80007E0
F80003E0
F80003E0
F80003E0
F80007E0
F80007E0
FC0007E0
FC0007C0
7C000FC0
7E000FC0
3F001F80
3F803F80
1FC07F00
0FFFFE00
07FFFC00
03FFF800
00FFE000
001F0000
ENDCHAR
STARTCHAR 00F7
ENCODING 247
SWIDTH 558 0
DWIDTH 31 0
BBX 25 29 3 2
BITMAP
001C0000
003E0000
007F0000
007F0000
007F0000
003F0000
001E0000
00000000
00000000
00000000
00000000
00000000
FFFFFF80
FFFFFF80
FFFFFF80
FFFFFF80
FFFFFF80
00000000
00000000
00000000
00000000
00000000
003E0000
003F0000
007F0000
007F0000
003F0000
003E0000
00080000
ENDCHAR
STARTCHAR 00F8
ENCODING 248
SWIDTH 576 0
DWIDTH 32 0
BBX 27 33 3 -2
BITMAP
00000100
000E01C0
00FFE3E0
03FFFFC0
07FFFF80
0FFFFF00
1FC0FF00
3F803F80
3F007F80
7E007FC0
7C00FFC0
FC01F7C0
FC03E7E0
F807C7E0
F80787E0
F80F83E0
F81F03E0
F83E03E0
F83C07E0
F87807E0
FCF807E0
FDF007C0
7FE00FC0
7FC00FC0
3FC01F80
3F803F80
1FC07F00
1FFFFE00
3FFFFC00
7FFFF800
F8FFE000
701F0000
20000000
ENDCHAR
STARTCHAR 00F9
ENCODING 249
SWIDTH 558 0
DWIDTH 31 0
BBX 23 44 4 -1
BITMAP
008000
01C000
03E000
07E000
03F000
01F800
007C00
003E00
001E00
000C00
000000
000000
000000
000000
F8003E
F8003E
F8003E
F8003E
F8003E
F8003E
F8003E
F8003E
F8003E
F8003E
F8003E
F8003E
F8003E
F8003E
F8003E
F8003E
F8003E
F8003E
F8003E
FC003E
FC003E
7C003E
7E003E
7F003E
3F803E
3FFFFE
1FFFFE
0FFFFE
03FFFC
001E00
ENDCHAR
STARTCHAR 00FA
ENCODING 250
SWIDTH 558 0
DWIDTH 31 0
BBX 23 44 4 -1
BITMAP
000100
000380
0007C0
000FC0
001F80
003F00
003E00
007C00
00F800
007000
002000
000000
000000
000000
F8003E
F8003E
F8003E
F8003E
F8003E
F8003E
F8003E
F8003E
F8003E
F8003E
F8003E
F8003E
F8003E
F8003E
F8003E
F8003E
F8003E
F8003E
F8003E
FC003E
FC003E
7C003E
7E003E
7F003E
3F803E
3FFFFE
1FFFFE
0FFFFE
03FFFC
001E00
ENDCHAR
STARTCHAR 00FB
ENCODING 251
SWIDTH 558 0
DWIDTH 31 0
BBX 23 43 4 0
BITMAP
001800
003C00
007E00
00FF00
01FF80
03E7C0
07C3E0
0F81E0
0700C0
020000
000000
000000
000000
F8003E
F8003E
F8003E
F8003E
F8003E
F8003E
F8003E
F8003E
F8003E
F8003E
F8003E
F8003E
F8003E
F8003E
F8003E
F8003E
F8003E
F8003E
F8003E
FC003E
FC003E
7C003E
7E003E
7F003E
3F803E
3FFFFE
1FFFFE
0FFFFE
03FFFC
001E00
ENDCHAR
STARTCHAR 00FC
ENCODING 252
SWIDTH 558 0
DWIDTH 31 0
BBX 23 42 4 -1
BITMAP
0700C0
0F83F0
1FC3F0
1FC3F0
1FC3F0
0F83F0
0700C0
000000
000000
000000
000000
000000
F8003E
F8003E
F8003E
F8003E
F8003E
F8003E
F8003E
F8003E
F8003E
F8003E
F8003E
F8003E
F8003E
F8003E
F8003E
F8003E
F8003E
F8003E
F8003E
FC003E
FC003E
7C003E
7E003E
7F003E
3F803E
3FFFFE
1FFFFE
0FFFFE
03FFFC
001E00
ENDCHAR
STARTCHAR 00FD
ENCODING 253
SWIDTH 486 0
DWIDTH 27 0
BBX 27 53 0 -10
BITMAP
00006000
00007000
0000F800
0001F800
0003F000
0007E000
000FC000
000F8000
001F0000
000E0000
00040000
00000000
00000000
00000000
7E0007E0
7E0007C0
3E0007C0
3E000FC0
3F000F80
3F000F80
1F000F80
1F801F80
1F801F00
0F801F00
0FC01F00
0FC03F00
07C03E00
07E03E00
03E03E00
03E07C00
03F07C00
01F07C00
01F0F800
00F8F800
00F8F800
007DF000
007DF000
003FE000
003FE000
003FE000
001FC000
001FC000
000FC000
000F8000
000F8000
001F0000
001F0000
003E0000
00FC0000
7FFC0000
7FF80000
FFE00000
FFC00000
ENDCHAR
STARTCHAR 00FE
ENCODING 254
SWIDTH 576 0
DWIDTH 32 0
BBX 26 53 4 -10
BITMAP
3C000000
FC000000
FC000000
FC000000
FC000000
FC000000
FC000000
FC000000
FC000000
FC000000
FC000000
FC000000
FC000000
FC000000
FFFF8000
FFFFE000
FFFFF800
FFFFFC00
FF03FE00
FC00FE00
FC003F00
FC001F80
FC001F80
FC000F80
FC000F80
FC000FC0
FC000FC0
FC000FC0
FC000FC0
FC000FC0
FC000FC0
FC000FC0
FC000FC0
FC000F80
FC001F80
FC001F80
FC003F00
FE007F00
FF80FE00
FFFFFC00
FFFFFC00
FFFFF000
FDFFE000
FC3E0000
FC000000
FC000000
FC000000
FC000000
FC000000
FC000000
FC000000
FC000000
FC000000
ENDCHAR
STARTCHAR 00FF
ENCODING 255
SWIDTH 486 0
DWIDTH 27 0
BBX 27 51 0 -10
BITMAP
00E03800
01F07C00
03F07E00
03F07E00
03F07E00
01F07C00
00E03800
00000000
00000000
00000000
00000000
00000000
7E0007E0
7E0007C0
3E0007C0
3E000FC0
3F000F80
3F000F80
1F000F80
1F801F80
1F801F00
0F801F00
0FC01F00
0FC03F00
07C03E00
07E03E00
03E03E00
03E07C00
03F07C00
01F07C00
01F0F800
00F8F800
00F8F800
007DF000
007DF000
003FE000
003FE000
003FE000
001FC000
001FC000
000FC000
000F8000
000F8000
001F0000
001F0000
003E0000
00FC0000
7FFC0000
7FF80000
FFE00000
FFC00000
ENDCHAR
STARTCHAR 0100
ENCODING 256
SWIDTH 648 0
DWIDTH 36 0
BBX 35 48 1 0
BITMAP
003FFF8000
003FFF8000
003FFF8000
003FFF8000
0000000000
0000000000
0000000000
0000000000
0000000000
0001F00000
0003F00000
0003F80000
0003F80000
0007FC0000
0007FC0000
000FFE0000
000FBE0000
001F3F0000
001F3F0000
003F1F0000
003E1F8000
003E0F8000
007C0FC000
007C07C000
00FC07C000
00F807E000
00F803E000
01F003F000
01F003F000
03F001F000
03E001F800
03E000F800
07E000FC00
07C000FC00
0FFFFFFC00
0FFFFFFE00
0FFFFFFE00
1FFFFFFF00
1F00003F00
1F00003F00
3F00001F80
3E00001F80
7E00001F80
7E00000FC0
7C00000FC0
FC000007C0
FC000007E0
F8000007E0
ENDCHAR
STARTCHAR 0101
ENCODING 257
SWIDTH 522 0
DWIDTH 29 0
BBX 23 41 2 -1
BITMAP
07FFF8
07FFF8
07FFF8
07FFF8
07FFF8
000000
000000
000000
000000
000000
003800
0FFFC0
0FFFE0
0FFFF8
0FFFF8
0801FC
0000FC
00007C
00007E
00003E
00003E
00003E
001C3E
03FFFE
0FFFFE
1FFFFE
3FFFFE
7F003E
7E003E
7C003E
FC003E
FC003E
FC003E
7C003E
7E003E
7F003E
3FFFFE
3FFFFE
1FFFFE
07FFFE
003C00
ENDCHAR
STARTCHAR 0102
ENCODING 258
SWIDTH 648 0
DWIDTH 36 0
BBX 35 50 1 0
BITMAP
0038078000
003C078000
003C0F8000
001F1F0000
001FFF0000
000FFE0000
0003F80000
0000000000
0000000000
0000000000
0000000000
0001F00000
0003F00000
0003F80000
0003F80000
0007FC0000
0007FC0000
000FFE0000
000FBE0000
001F3F0000
001F3F0000
003F1F0000
003E1F8000
003E0F8000
007C0FC000
007C07C000
00FC07C000
00F807E000
00F803E000
01F003F000
01F003F000
03F001F000
03E001F800
03E000F800
07E000FC00
07C000FC00
0FFFFFFC00
0FFFFFFE00
0FFFFFFE00
1FFFFFFF00
1F00003F00
1F00003F00
3F00001F80
3E00001F80
7E00001F80
7E00000FC0
7C00000FC0
FC000007C0
FC000007E0
F8000007E0
ENDCHAR
STARTCHAR 0103
ENCODING 259
SWIDTH 522 0
DWIDTH 29 0
BBX 23 43 2 -1
BITMAP
078070
0780F0
0780F0
03C1F0
03FFE0
01FFC0
00FF80
003F00
000000
000000
000000
000000
003800
0FFFC0
0FFFE0
0FFFF8
0FFFF8
0801FC
0000FC
00007C
00007E
00003E
00003E
00003E
001C3E
03FFFE
0FFFFE
1FFFFE
3FFFFE
7F003E
7E003E
7C003E
FC003E
FC003E
FC003E
7C003E
7E003E
7F003E
3FFFFE
3FFFFE
1FFFFE
07FFFE
003C00
ENDCHAR
STARTCHAR 0104
ENCODING 260
SWIDTH 648 0
DWIDTH 36 0
BBX 36 49 1 -10
BITMAP
0001F00000
0003F00000
0003F80000
0003F80000
0007FC0000
0007FC0000
000FFE0000
000FBE0000
001F3F0000
001F3F0000
003F1F0000
003E1F8000
003E0F8000
007C0FC000
007C07C000
00FC07C000
00F807E000
00F803E000
01F003F000
01F003F000
03F001F000
03E001F800
03E000F800
07E000FC00
07C000FC00
0FFFFFFC00
0FFFFFFE00
0FFFFFFE00
1FFFFFFE00
1F00003F00
1F00003F00
3F00001F80
3E00001F80
7E00000F80
7E00000FC0
7C00000FC0
FC000007C0
FC000007E0
F8000007E0
00000007C0
0000000F80
0000001F00
0000001E00
0000003E00
0000003E00
0000003F00
0000003FE0
0000001FE0
0000000FF0
ENDCHAR
STARTCHAR 0105
ENCODING 261
SWIDTH 522 0
DWIDTH 29 0
BBX 23 40 2 -10
BITMAP
003800
0FFFC0
0FFFE0
0FFFF8
0FFFF8
0801FC
0000FC
00007C
00007E
00003E
00003E
00003E
001C3E
03FFFE
0FFFFE
1FFFFE
3FFFFE
7F003E
7E003E
7C003E
FC003E
FC003E
FC003E
7C003E
7E003E
7F003E
3FFFFE
3FFFFE
1FFFFE
07FFFE
003C7C
0000F0
0001F0
0003E0
0007C0
0007C0
0007E2
0007FE
0003FE
0001FE
ENDCHAR
STARTCHAR 0106
ENCODING 262
SWIDTH 612 0
DWIDTH 34 0
BBX 30 52 3 0
BITMAP
00000C00
00001E00
00003F00
00007E00
0000FC00
0000F800
0001F000
0003E000
0003C000
00008000
00000000
00000000
0007FF80
003FFFF0
00FFFFFC
01FFFFF8
03FF87F8
07F80078
0FF00000
0FC00000
1F800000
3F800000
3F000000
3F000000
7E000000
7E000000
7E000000
7C000000
FC000000
FC000000
FC000000
FC000000
FC000000
FC000000
FC000000
FC000000
7C000000
7E000000
7E000000
7E000000
3F000000
3F000000
3F800000
1FC00000
0FE00000
0FF00018
07FE00F8
03FFFFF8
01FFFFFC
007FFFFC
001FFFF0
0003FE00
ENDCHAR
STARTCHAR 0107
ENCODING 263
SWIDTH 450 0
DWIDTH 25 0
BBX 22 44 3 -1
BITMAP
000080
0001C0
0003E0
0007E0
000FC0
000F80
001F00
003E00
007C00
003800
000000
000000
000000
000600
00FFF8
03FFF8
07FFF8
0FFFF8
1FE030
3F8000
3F0000
7E0000
7C0000
FC0000
FC0000
F80000
F80000
F80000
F80000
F80000
F80000
F80000
FC0000
FC0000
7C0000
7E0000
7F0000
3F8000
1FE018
1FFFF8
0FFFF8
03FFFC
00FFF8
000F80
ENDCHAR
STARTCHAR 0108
ENCODING 264
SWIDTH 612 0
DWIDTH 34 0
BBX 30 52 3 -1
BITMAP
00004000
0000E000
0001F000
0003F800
0007FC00
000FBE00
001F1F00
003E0F80
001C0700
00080200
00000000
00000000
0007FF80
003FFFF0
00FFFFFC
01FFFFF8
03FF87F8
07F80078
0FF00000
0FC00000
1F800000
3F800000
3F000000
3F000000
7E000000
7E000000
7E000000
7C000000
FC000000
FC000000
FC000000
FC000000
FC000000
FC000000
FC000000
FC000000
7C000000
7E000000
7E000000
7E000000
3F000000
3F000000
3F800000
1FC00000
0FE00000
0FF00018
07FE00F8
03FFFFF8
01FFFFFC
007FFFFC
001FFFF0
0003FE00
ENDCHAR
STARTCHAR 0109
ENCODING 265
SWIDTH 450 0
DWIDTH 25 0
BBX 22 43 3 0
BITMAP
000C00
001E00
003F00
007F80
00FFC0
01F3E0
03E1F0
03C0F0
018060
010000
000000
000000
000600
00FFF8
03FFF8
07FFF8
0FFFF8
1FE030
3F8000
3F0000
7E0000
7C0000
FC0000
FC0000
F80000
F80000
F80000
F80000
F80000
F80000
F80000
FC0000
FC0000
7C0000
7E0000
7F0000
3F8000
1FE018
1FFFF8
0FFFF8
03FFFC
00FFF8
000F80
ENDCHAR
STARTCHAR 010A
ENCODING 266
SWIDTH 612 0
DWIDTH 34 0
BBX 30 51 3 -1
BITMAP
00004000
0001F000
0003F800
0003F800
0003F800
0003F000
0001E000
00000000
00000000
00000000
00000000
0007FF80
003FFFF0
00FFFFFC
01FFFFF8
03FF87F8
07F80078
0FF00000
0FC00000
1F800000
3F800000
3F000000
3F000000
7E000000
7E000000
7E000000
7C000000
FC000000
FC000000
FC000000
FC000000
FC000000
FC000000
FC000000
FC000000
7C000000
7E000000
7E000000
7E000000
3F000000
3F000000
3F800000
1FC00000
0FE00000
0FF00018
07FE00F8
03FFFFF8
01FFFFFC
007FFFFC
001FFFF0
0003FE00
ENDCHAR
STARTCHAR 010B
ENCODING 267
SWIDTH 450 0
DWIDTH 25 0
BBX 22 42 3 -1
BITMAP
001E00
003F00
003F00
003F00
003F00
003F00
001E00
000000
000000
000000
000000
000600
00FFF8
03FFF8
07FFF8
0FFFF8
1FE030
3F8000
3F0000
7E0000
7C0000
FC0000
FC0000
F80000
F80000
F80000
F80000
F80000
F80000
F80000
FC0000
FC0000
7C0000
7E0000
7F0000
3F8000
1FE018
1FFFF8
0FFFF8
03FFFC
00FFF8
000F80
ENDCHAR
STARTCHAR 010C
ENCODING 268
SWIDTH 612 0
DWIDTH 34 0
BBX 30 52 3 0
BITMAP
00180300
003C0F80
003E1F00
001FBE00
000FFC00
0007F800
0003F800
0001F000
0000E000
00004000
00000000
00000000
0007FF80
003FFFF0
00FFFFFC
01FFFFF8
03FF87F8
07F80078
0FF00000
0FC00000
1F800000
3F800000
3F000000
3F000000
7E000000
7E000000
7E000000
7C000000
FC000000
FC000000
FC000000
FC000000
FC000000
FC000000
FC000000
FC000000
7C000000
7E000000
7E000000
7E000000
3F000000
3F000000
3F800000
1FC00000
0FE00000
0FF00018
07FE00F8
03FFFFF8
01FFFFFC
007FFFFC
001FFFF0
0003FE00
ENDCHAR
STARTCHAR 010D
ENCODING 269
SWIDTH 450 0
DWIDTH 25 0
BBX 22 44 3 -1
BITMAP
010020
038070
07C0F8
03E1F0
01F7E0
00FFC0
007F80
003F00
001E00
000C00
000000
000000
000000
000600
00FFF8
03FFF8
07FFF8
0FFFF8
1FE030
3F8000
3F0000
7E0000
7C0000
FC0000
FC0000
F80000
F80000
F80000
F80000
F80000
F80000
F80000
FC0000
FC0000
7C0000
7E0000
7F0000
3F8000
1FE018
1FFFF8
0FFFF8
03FFFC
00FFF8
000F80
ENDCHAR
STARTCHAR 010E
ENCODING 270
SWIDTH 702 0
DWIDTH 39 0
BBX 31 51 5 1
BITMAP
01803000
03C0F800
03E1F000
01FBE000
00FFC000
007F8000
003F8000
001F0000
000E0000
00040000
00000000
00000000
1FFE0000
FFFFE000
FFFFFC00
FFFFFF00
FFFFFF80
F800FFC0
F8001FE0
F8000FF0
F80003F8
F80001F8
F80001FC
F80000FC
F80000FC
F800007E
F800007E
F800007E
F800007E
F800003E
F800003E
F800003E
F800003E
F800003E
F800007E
F800007E
F800007E
F800007E
F800007E
F80000FC
F80000FC
F80001F8
F80003F8
F80007F0
F8000FE0
F8003FE0
FC0FFF80
FFFFFF00
FFFFFE00
FFFFF800
FFFF8000
ENDCHAR
STARTCHAR 010F
ENCODING 271
SWIDTH 612 0
DWIDTH 34 0
BBX 34 44 3 -1
BITMAP
00000387C0
00000F87C0
00000F87C0
00000F87C0
00000F87C0
00000F8780
00000F8780
00000F8780
00000F8780
00000F8780
00000F8780
00000F8780
00000F8000
000C0F8000
01FFCF8000
03FFFF8000
0FFFFF8000
1FFFFF8000
1FC07F8000
3F801F8000
7F000F8000
7E000F8000
7C000F8000
FC000F8000
FC000F8000
F8000F8000
F8000F8000
F8000F8000
F8000F8000
F8000F8000
F8000F8000
F8000F8000
FC000F8000
FC000F8000
7C000F8000
7E000F8000
3F000F8000
3F800F8000
1FE00F8000
0FFFFF8000
07FFFF8000
03FFFF8000
00FFFF0000
000FC00000
ENDCHAR
STARTCHAR 0110
ENCODING 272
SWIDTH 720 0
DWIDTH 40 0
BBX 36 39 1 0
BITMAP
00FFF00000
0FFFFF0000
0FFFFFC000
0FFFFFF000
0FFFFFFC00
0FC007FE00
0FC001FF00
0FC0007F80
0FC0003F80
0FC0001FC0
0FC0000FC0
0FC00007E0
0FC00007E0
0FC00007E0
0FC00003F0
0FC00003F0
0FC00003F0
FFFF8003F0
FFFF8003F0
FFFF8003F0
FFFF8003F0
0FC00003F0
0FC00003F0
0FC00003F0
0FC00003F0
0FC00003E0
0FC00007E0
0FC00007E0
0FC0000FE0
0FC0000FC0
0FC0001FC0
0FC0003F80
0FC000FF00
0FC003FE00
0FE07FFC00
0FFFFFF800
0FFFFFE000
0FFFFF8000
07FFFC0000
ENDCHAR
STARTCHAR 0111
ENCODING 273
SWIDTH 576 0
DWIDTH 32 0
BBX 29 44 3 -1
BITMAP
00000380
00000F80
00000F80
00000F80
00000F80
003FFFF8
003FFFF8
003FFFF8
003FFFF8
00000F80
00000F80
00000F80
00000F80
00000F80
00FFCF80
03FFFF80
07FFFF80
1FFFFF80
1FE0FF80
3F801F80
7F000F80
7E000F80
7C000F80
FC000F80
FC000F80
F8000F80
F8000F80
F8000F80
F8000F80
F8000F80
F8000F80
F8000F80
FC000F80
FC000F80
7C000F80
7E000F80
3F000F80
3F800F80
1FE00F80
0FFFFF80
07FFFF80
03FFFF80
00FFFF00
000FC000
ENDCHAR
STARTCHAR 0112
ENCODING 274
SWIDTH 558 0
DWIDTH 31 0
BBX 25 48 5 0
BITMAP
0FFFE000
0FFFE000
0FFFE000
0FFFE000
00000000
00000000
00000000
00000000
00000000
FFFFFE00
FFFFFE00
FFFFFE00
FFFFFE00
FFFFFE00
F8000000
F8000000
F8000000
F8000000
F8000000
F8000000
F8000000
F8000000
F8000000
F8000000
F8000000
F8000000
FFFFF800
FFFFF800
FFFFF800
FFFFF800
F8000000
F8000000
F8000000
F8000000
F8000000
F8000000
F8000000
F8000000
F8000000
F8000000
F8000000
F8000000
F8000000
FFFFFF80
FFFFFF80
FFFFFF80
FFFFFF80
FFFFFF80
ENDCHAR
STARTCHAR 0113
ENCODING 275
SWIDTH 558 0
DWIDTH 31 0
BBX 25 41 3 -1
BITMAP
07FFF000
07FFF000
07FFF000
07FFF000
07FFF000
00000000
00000000
00000000
00000000
00000000
001C0000
00FFE000
03FFF000
07FFF800
0FFFFC00
1FC0FE00
3F007F00
3E003F00
7E001F00
7C001F00
FC001F80
FC000F80
F8000F80
FFFFFF80
FFFFFF80
FFFFFF80
FFFFFF80
F8000000
F8000000
FC000000
FC000000
7C000000
7E000000
7F000000
3F800000
1FE00C00
1FFFFE00
0FFFFE00
03FFFE00
00FFFC00
001F8000
ENDCHAR
STARTCHAR 0114
ENCODING 276
SWIDTH 558 0
DWIDTH 31 0
BBX 25 50 5 0
BITMAP
0E01C000
0E01C000
0F03C000
0FCFC000
07FF8000
03FF0000
01FE0000
00000000
00000000
00000000
00000000
FFFFFE00
FFFFFE00
FFFFFE00
FFFFFE00
FFFFFE00
F8000000
F8000000
F8000000
F8000000
F8000000
F8000000
F8000000
F8000000
F8000000
F8000000
F8000000
F8000000
FFFFF800
FFFFF800
FFFFF800
FFFFF800
F8000000
F8000000
F8000000
F8000000
F8000000
F8000000
F8000000
F8000000
F8000000
F8000000
F8000000
F8000000
F8000000
FFFFFF80
FFFFFF80
FFFFFF80
FFFFFF80
FFFFFF80
ENDCHAR
STARTCHAR 0115
ENCODING 277
SWIDTH 558 0
DWIDTH 31 0
BBX 25 43 3 -1
BITMAP
07807000
07807000
0780F000
03C1F000
03FFE000
01FFE000
00FFC000
003F0000
00000000
00000000
00000000
00000000
001C0000
00FFE000
03FFF000
07FFF800
0FFFFC00
1FC0FE00
3F007F00
3E003F00
7E001F00
7C001F00
FC001F80
FC000F80
F8000F80
FFFFFF80
FFFFFF80
FFFFFF80
FFFFFF80
F8000000
F8000000
FC000000
FC000000
7C000000
7E000000
7F000000
3F800000
1FE00C00
1FFFFE00
0FFFFE00
03FFFE00
00FFFC00
001F8000
ENDCHAR
STARTCHAR 0116
ENCODING 278
SWIDTH 558 0
DWIDTH 31 0
BBX 25 50 5 0
BITMAP
00100000
007C0000
00FE0000
00FE0000
00FE0000
007C0000
007C0000
00000000
00000000
00000000
00000000
FFFFFE00
FFFFFE00
FFFFFE00
FFFFFE00
FFFFFE00
F8000000
F8000000
F8000000
F8000000
F8000000
F8000000
F8000000
F8000000
F8000000
F8000000
F8000000
F8000000
FFFFF800
FFFFF800
FFFFF800
FFFFF800
F8000000
F8000000
F8000000
F8000000
F8000000
F8000000
F8000000
F8000000
F8000000
F8000000
F8000000
F8000000
F8000000
FFFFFF80
FFFFFF80
FFFFFF80
FFFFFF80
FFFFFF80
ENDCHAR
STARTCHAR 0117
ENCODING 279
SWIDTH 558 0
DWIDTH 31 0
BBX 25 42 3 -1
BITMAP
001E0000
003F0000
003F0000
003F0000
003F0000
003F0000
001C0000
00000000
00000000
00000000
00000000
001C0000
00FFE000
03FFF000
07FFF800
0FFFFC00
1FC0FE00
3F007F00
3E003F00
7E001F00
7C001F00
FC001F80
FC000F80
F8000F80
FFFFFF80
FFFFFF80
FFFFFF80
FFFFFF80
F8000000
F8000000
FC000000
FC000000
7C000000
7E000000
7F000000
3F800000
1FE00C00
1FFFFE00
0FFFFE00
03FFFE00
00FFFC00
001F8000
ENDCHAR
STARTCHAR 0118
ENCODING 280
SWIDTH 558 0
DWIDTH 31 0
BBX 25 49 5 -10
BITMAP
FFFFFE00
FFFFFE00
FFFFFE00
FFFFFE00
FFFFFE00
F8000000
F8000000
F8000000
F8000000
F8000000
F8000000
F8000000
F8000000
F8000000
F8000000
F8000000
F8000000
FFFFF800
FFFFF800
FFFFF800
FFFFF800
F8000000
F8000000
F8000000
F8000000
F8000000
F8000000
F8000000
F8000000
F8000000
F8000000
F8000000
F8000000
F8000000
FFFFFF80
FFFFFF80
FFFFFF80
FFFFFF80
FFFFFF80
00003F00
00007C00
00007800
0000F800
0001F000
0001F000
0001F880
0001FF80
0000FF80
00007F80
ENDCHAR
STARTCHAR 0119
ENCODING 281
SWIDTH 558 0
DWIDTH 31 0
BBX 25 40 3 -10
BITMAP
001C0000
00FFE000
03FFF000
07FFF800
0FFFFC00
1FC0FE00
3F007F00
3E003F00
7E001F00
7C001F00
FC001F80
FC000F80
F8000F80
FFFFFF80
FFFFFF80
FFFFFF80
FFFFFF80
F8000000
F8000000
FC000000
FC000000
7C000000
7E000000
7F000000
3F800000
1FE00C00
1FFFFE00
0FFFFE00
03FFFE00
00FFFC00
001FF800
0001F000
0003E000
0003C000
0007C000
0007C000
0007C000
0007FC00
0007FC00
0003FC00
ENDCHAR
STARTCHAR 011A
ENCODING 282
SWIDTH 558 0
DWIDTH 31 0
BBX 25 52 5 0
BITMAP
00008000
06018000
0F03C000
0F87C000
07CF8000
03FF0000
01FE0000
00FC0000
00780000
00300000
00000000
00000000
00000000
FFFFFE00
FFFFFE00
FFFFFE00
FFFFFE00
FFFFFE00
F8000000
F8000000
F8000000
F8000000
F8000000
F8000000
F8000000
F8000000
F8000000
F8000000
F8000000
F8000000
FFFFF800
FFFFF800
FFFFF800
FFFFF800
F8000000
F8000000
F8000000
F8000000
F8000000
F8000000
F8000000
F8000000
F8000000
F8000000
F8000000
F8000000
F8000000
FFFFFF80
FFFFFF80
FFFFFF80
FFFFFF80
FFFFFF80
ENDCHAR
STARTCHAR 011B
ENCODING 283
SWIDTH 558 0
DWIDTH 31 0
BBX 25 44 3 -1
BITMAP
01002000
03807000
07C0F000
03E3F000
01F7E000
00FFC000
007F8000
003F0000
001E0000
000C0000
00000000
00000000
00000000
001C0000
00FFE000
03FFF000
07FFF800
0FFFFC00
1FC0FE00
3F007F00
3E003F00
7E001F00
7C001F00
FC001F80
FC000F80
F8000F80
FFFFFF80
FFFFFF80
FFFFFF80
FFFFFF80
F8000000
F8000000
FC000000
FC000000
7C000000
7E000000
7F000000
3F800000
1FE00C00
1FFFFE00
0FFFFE00
03FFFE00
00FFFC00
001F8000
ENDCHAR
STARTCHAR 011C
ENCODING 284
SWIDTH 666 0
DWIDTH 37 0
BBX 31 52 3 -1
BITMAP
00006000
0000F000
0001F800
0003FC00
0007FC00
000FBE00
001F1F00
003E0F80
001C0380
00080100
00000000
00000000
0007FFC0
003FFFF8
00FFFFFC
01FFFFFC
03FF87FC
07F80038
0FF00008
0FC00000
1F800000
3F800000
3F000000
3F000000
7E000000
7E000000
7E000000
7C000000
FC000000
FC000000
FC000000
FC000000
FC00007E
FC00007E
FC00007E
FC00007E
7C00007E
7E00007E
7E00007E
7E00007E
3F00007E
3F00007E
3F80007E
1FC0007E
0FE0007E
0FF0007E
07FE007E
03FFFFFE
01FFFFFE
007FFFFE
001FFFF8
0001FE00
ENDCHAR
STARTCHAR 011D
ENCODING 285
SWIDTH 576 0
DWIDTH 32 0
BBX 25 52 3 -9
BITMAP
00060000
000F0000
001F8000
003FC000
007FE000
00F9F000
01F0F800
01E07800
01C03000
00800000
00000000
00000000
00000000
00FFFE00
03FFFF80
07FFFF80
0FFFFF80
1FE01F80
3F801F80
7F001F80
7E001F80
7C001F80
FC001F80
FC001F80
F8001F80
F8001F80
F8001F80
F8001F80
F8001F80
F8001F80
FC001F80
FC001F80
7C001F80
7E001F80
7F001F80
3F803F80
1FFFFF80
0FFFFF80
07FFFF80
03FFEF80
007F0F80
00001F80
00001F80
00001F00
00001F00
00003F00
20007E00
3C01FE00
3FFFFC00
3FFFF800
3FFFF000
1FFFC000
ENDCHAR
STARTCHAR 011E
ENCODING 286
SWIDTH 666 0
DWIDTH 37 0
BBX 31 51 3 -1
BITMAP
003C0380
001C0780
001E0780
001F9F80
000FFF00
0007FE00
0003FC00
00000000
00000000
00000000
00000000
0007FFC0
003FFFF8
00FFFFFC
01FFFFFC
03FF87FC
07F80038
0FF00008
0FC00000
1F800000
3F800000
3F000000
3F000000
7E000000
7E000000
7E000000
7C000000
FC000000
FC000000
FC000000
FC000000
FC00007E
FC00007E
FC00007E
FC00007E
7C00007E
7E00007E
7E00007E
7E00007E
3F00007E
3F00007E
3F80007E
1FC0007E
0FE0007E
0FF0007E
07FE007E
03FFFFFE
01FFFFFE
007FFFFE
001FFFF8
0001FE00
ENDCHAR
STARTCHAR 011F
ENCODING 287
SWIDTH 576 0
DWIDTH 32 0
BBX 25 52 3 -10
BITMAP
03C03800
03C03800
01C07800
01E07800
01FFF000
00FFF000
007FE000
001F8000
00000000
00000000
00000000
00000000
00000000
00FFFE00
03FFFF80
07FFFF80
0FFFFF80
1FE01F80
3F801F80
7F001F80
7E001F80
7C001F80
FC001F80
FC001F80
F8001F80
F8001F80
F8001F80
F8001F80
F8001F80
F8001F80
FC001F80
FC001F80
7C001F80
7E001F80
7F001F80
3F803F80
1FFFFF80
0FFFFF80
07FFFF80
03FFEF80
007F0F80
00001F80
00001F80
00001F00
00001F00
00003F00
20007E00
3C01FE00
3FFFFC00
3FFFF800
3FFFF000
1FFFC000
ENDCHAR
STARTCHAR 0120
ENCODING 288
SWIDTH 666 0
DWIDTH 37 0
BBX 31 51 3 -1
BITMAP
00006000
0001F000
0001F800
0003F800
0001F800
0001F800
0000F000
00000000
00000000
00000000
00000000
0007FFC0
003FFFF8
00FFFFFC
01FFFFFC
03FF87FC
07F80038
0FF00008
0FC00000
1F800000
3F800000
3F000000
3F000000
7E000000
7E000000
7E000000
7C000000
FC000000
FC000000
FC000000
FC000000
FC00007E
FC00007E
FC00007E
FC00007E
7C00007E
7E00007E
7E00007E
7E00007E
3F00007E
3F00007E
3F80007E
1FC0007E
0FE0007E
0FF0007E
07FE007E
03FFFFFE
01FFFFFE
007FFFFE
001FFFF8
0001FE00
ENDCHAR
STARTCHAR 0121
ENCODING 289
SWIDTH 576 0
DWIDTH 32 0
BBX 25 51 3 -10
BITMAP
000E0000
001F8000
001F8000
003F8000
001F8000
001F8000
000F0000
00000000
00000000
00000000
00000000
00000000
00FFFE00
03FFFF80
07FFFF80
0FFFFF80
1FE01F80
3F801F80
7F001F80
7E001F80
7C001F80
FC001F80
FC001F80
F8001F80
F8001F80
F8001F80
F8001F80
F8001F80
F8001F80
FC001F80
FC001F80
7C001F80
7E001F80
7F001F80
3F803F80
1FFFFF80
0FFFFF80
07FFFF80
03FFEF80
007F0F80
00001F80
00001F80
00001F00
00001F00
00003F00
20007E00
3C01FE00
3FFFFC00
3FFFF800
3FFFF000
1FFFC000
ENDCHAR
STARTCHAR 0122
ENCODING 290
SWIDTH 666 0
DWIDTH 37 0
BBX 31 49 3 -10
BITMAP
0007FFC0
003FFFF8
00FFFFFC
01FFFFFC
03FF87FC
07F80038
0FF00008
0FC00000
1F800000
3F800000
3F000000
3F000000
7E000000
7E000000
7E000000
7C000000
FC000000
FC000000
FC000000
FC000000
FC00007E
FC00007E
FC00007E
FC00007E
7C00007E
7E00007E
7E00007E
7E00007E
3F00007E
3F00007E
3F80007E
1FC0007E
0FE0007E
0FF0007E
07FE007E
03FFFFFE
01FFFFFE
007FFFFE
001FFFF8
0001FE00
00000000
00000000
0000F800
0001F800
0001F000
0001F000
000FF000
000FE000
000FC000
ENDCHAR
STARTCHAR 0123
ENCODING 291
SWIDTH 576 0
DWIDTH 32 0
BBX 25 53 3 -10
BITMAP
0001C000
0003E000
0007E000
000FC000
000F8000
000F8000
001F0000
001F0000
001F0000
00000000
00000000
00000000
00000000
00000000
00FFFE00
03FFFF80
07FFFF80
0FFFFF80
1FE01F80
3F801F80
7F001F80
7E001F80
7C001F80
FC001F80
FC001F80
F8001F80
F8001F80
F8001F80
F8001F80
F8001F80
F8001F80
FC001F80
FC001F80
7C001F80
7E001F80
7F001F80
3F803F80
1FFFFF80
0FFFFF80
07FFFF80
03FFEF80
007F0F80
00001F80
00001F80
00001F00
00001F00
00003F00
20007E00
3C01FE00
3FFFFC00
3FFFF800
3FFFF000
1FFFC000
ENDCHAR
STARTCHAR 0124
ENCODING 292
SWIDTH 702 0
DWIDTH 39 0
BBX 29 51 5 0
BITMAP
00020000
00070000
000F8000
001FC000
003FE000
007DF000
00F8F800
01F07C00
00E03800
00401000
00000000
00000000
F80000F8
F80000F8
F80000F8
F80000F8
F80000F8
F80000F8
F80000F8
F80000F8
F80000F8
F80000F8
F80000F8
F80000F8
F80000F8
F80000F8
F80000F8
F80000F8
F80000F8
FFFFFFF8
FFFFFFF8
FFFFFFF8
FFFFFFF8
F80000F8
F80000F8
F80000F8
F80000F8
F80000F8
F80000F8
F80000F8
F80000F8
F80000F8
F80000F8
F80000F8
F80000F8
F80000F8
F80000F8
F80000F8
F80000F8
F80000F8
F80000F8
ENDCHAR
STARTCHAR 0125
ENCODING 293
SWIDTH 558 0
DWIDTH 31 0
BBX 25 53 3 0
BITMAP
03000000
0F800000
1FE00000
3FF00000
FCF80000
F0780000
60180000
00000000
00000000
00000000
1E000000
7E000000
7E000000
7E000000
7E000000
7E000000
7E000000
7E000000
7E000000
7E000000
7E000000
7E000000
7E000000
7E000000
7FFFE000
7FFFF800
7FFFFC00
7FFFFE00
7F80FE00
7E007F00
7E003F00
7E001F00
7E001F00
7E001F80
7E001F80
7E000F80
7E000F80
7E000F80
7E000F80
7E000F80
7E000F80
7E000F80
7E000F80
7E000F80
7E000F80
7E000F80
7E000F80
7E000F80
7E000F80
7E000F80
7E000F80
7E000F80
7E000F80
ENDCHAR
STARTCHAR 0126
ENCODING 294
SWIDTH 720 0
DWIDTH 40 0
BBX 39 39 1 0
BITMAP
0FC00007C0
0FC00007C0
0FC00007C0
0FC00007C0
0FC00007C0
0FC00007C0
FFFFFFFFFE
FFFFFFFFFE
FFFFFFFFFE
FFFFFFFFFE
0FC00007C0
0FC00007C0
0FC00007C0
0FC00007C0
0FC00007C0
0FC00007C0
0FC00007C0
0FFFFFFFC0
0FFFFFFFC0
0FFFFFFFC0
0FFFFFFFC0
0FC00007C0
0FC00007C0
0FC00007C0
0FC00007C0
0FC00007C0
0FC00007C0
0FC00007C0
0FC00007C0
0FC00007C0
0FC00007C0
0FC00007C0
0FC00007C0
0FC00007C0
0FC00007C0
0FC00007C0
0FC00007C0
0FC00007C0
0FC00007C0
ENDCHAR
STARTCHAR 0127
ENCODING 295
SWIDTH 558 0
DWIDTH 31 0
BBX 28 43 0 0
BITMAP
03C00000
0FC00000
0FC00000
0FC00000
0FC00000
FFFFE000
FFFFE000
FFFFE000
FFFFE000
0FC00000
0FC00000
0FC00000
0FC00000
0FC00000
0FDFF800
0FFFFE00
0FFFFF00
0FFFFF80
0FF83FC0
0FC00FE0
0FC007E0
0FC003E0
0FC003E0
0FC003F0
0FC003F0
0FC003F0
0FC001F0
0FC001F0
0FC001F0
0FC001F0
0FC001F0
0FC001F0
0FC001F0
0FC001F0
0FC001F0
0FC001F0
0FC001F0
0FC001F0
0FC001F0
0FC001F0
0FC001F0
0FC001F0
0FC001F0
ENDCHAR
STARTCHAR 0128
ENCODING 296
SWIDTH 252 0
DWIDTH 14 0
BBX 18 49 -2 1
BITMAP
0F81C0
3FE3C0
3FFFC0
7FFF80
F07F00
201E00
000000
000000
000000
000000
01F000
01F000
01F000
01F000
01F000
01F000
01F000
01F000
01F000
01F000
01F000
01F000
01F000
01F000
01F000
01F000
01F000
01F000
01F000
01F000
01F000
01F000
01F000
01F000
01F000
01F000
01F000
01F000
01F000
01F000
01F000
01F000
01F000
01F000
01F000
01F000
01F000
01F000
01F000
ENDCHAR
STARTCHAR 0129
ENCODING 297
SWIDTH 252 0
DWIDTH 14 0
BBX 18 41 -2 0
BITMAP
000100
1F81C0
3FF7C0
7FFF80
FBFF00
F07E00
200800
000000
000000
000000
000000
000000
03F000
03F000
03F000
03F000
03F000
03F000
03F000
03F000
03F000
03F000
03F000
03F000
03F000
03F000
03F000
03F000
03F000
03F000
03F000
03F000
03F000
03F000
03F000
03F000
03F000
03F000
03F000
03F000
03F000
ENDCHAR
STARTCHAR 012A
ENCODING 298
SWIDTH 252 0
DWIDTH 14 0
BBX 15 48 0 0
BITMAP
FFFE
FFFE
FFFE
FFFE
0000
0000
0000
0000
0000
07C0
07C0
07C0
07C0
07C0
07C0
07C0
07C0
07C0
07C0
07C0
07C0
07C0
07C0
07C0
07C0
07C0
07C0
07C0
07C0
07C0
07C0
07C0
07C0
07C0
07C0
07C0
07C0
07C0
07C0
07C0
07C0
07C0
07C0
07C0
07C0
07C0
07C0
07C0
ENDCHAR
STARTCHAR 012B
ENCODING 299
SWIDTH 252 0
DWIDTH 14 0
BBX 16 40 -1 0
BITMAP
FFFF
FFFF
FFFF
FFFF
FFFF
0000
0000
0000
0000
0000
0000
07E0
07E0
07E0
07E0
07E0
07E0
07E0
07E0
07E0
07E0
07E0
07E0
07E0
07E0
07E0
07E0
07E0
07E0
07E0
07E0
07E0
07E0
07E0
07E0
07E0
07E0
07E0
07E0
07E0
ENDCHAR
STARTCHAR 012C
ENCODING 300
SWIDTH 252 0
DWIDTH 14 0
BBX 15 50 0 0
BITMAP
F01E
F01E
F01E
7C7C
7FFC
3FF8
0FE0
0000
0000
0000
0000
07C0
07C0
07C0
07C0
07C0
07C0
07C0
07C0
07C0
07C0
07C0
07C0
07C0
07C0
07C0
07C0
07C0
07C0
07C0
07C0
07C0
07C0
07C0
07C0
07C0
07C0
07C0
07C0
07C0
07C0
07C0
07C0
07C0
07C0
07C0
07C0
07C0
07C0
07C0
ENDCHAR
STARTCHAR 012D
ENCODING 301
SWIDTH 252 0
DWIDTH 14 0
BBX 14 42 0 0
BITMAP
E01C
E01C
F01C
F03C
7FFC
7FF8
3FF0
0FC0
0000
0000
0000
0000
0000
0FC0
0FC0
0FC0
0FC0
0FC0
0FC0
0FC0
0FC0
0FC0
0FC0
0FC0
0FC0
0FC0
0FC0
0FC0
0FC0
0FC0
0FC0
0FC0
0FC0
0FC0
0FC0
0FC0
0FC0
0FC0
0FC0
0FC0
0FC0
0FC0
ENDCHAR
STARTCHAR 012E
ENCODING 302
SWIDTH 252 0
DWIDTH 14 0
BBX 10 49 1 -10
BITMAP
0F80
0F80
0F80
0F80
0F80
0F80
0F80
0F80
0F80
0F80
0F80
0F80
0F80
0F80
0F80
0F80
0F80
0F80
0F80
0F80
0F80
0F80
0F80
0F80
0F80
0F80
0F80
0F80
0F80
0F80
0F80
0F80
0F80
0F80
0F80
0F80
0F80
0F80
0F80
1F80
3E00
7C00
7C00
F800
F800
FC00
FF80
7FC0
3FC0
ENDCHAR
STARTCHAR 012F
ENCODING 303
SWIDTH 252 0
DWIDTH 14 0
BBX 9 51 1 -10
BITMAP
0F00
1F80
1F80
1F80
1F80
1F80
0F00
0000
0000
0000
0000
0000
1F80
1F80
1F80
1F80
1F80
1F80
1F80
1F80
1F80
1F80
1F80
1F80
1F80
1F80
1F80
1F80
1F80
1F80
1F80
1F80
1F80
1F80
1F80
1F80
1F80
1F80
1F80
1F80
1F80
1F00
3E00
7C00
F800
F800
F000
F880
FF80
FF80
7F80
ENDCHAR
STARTCHAR 0130
ENCODING 304
SWIDTH 252 0
DWIDTH 14 0
BBX 7 50 4 0
BITMAP
10
7C
FE
FE
FE
7C
7C
00
00
00
00
7C
7C
7C
7C
7C
7C
7C
7C
7C
7C
7C
7C
7C
7C
7C
7C
7C
7C
7C
7C
7C
7C
7C
7C
7C
7C
7C
7C
7C
7C
7C
7C
7C
7C
7C
7C
7C
7C
7C
ENDCHAR
STARTCHAR 0131
ENCODING 305
SWIDTH 252 0
DWIDTH 14 0
BBX 6 29 4 0
BITMAP
FC
FC
FC
FC
FC
FC
FC
FC
FC
FC
FC
FC
FC
FC
FC
FC
FC
FC
FC
FC
FC
FC
FC
FC
FC
FC
FC
FC
FC
ENDCHAR
STARTCHAR 0132
ENCODING 306
SWIDTH 756 0
DWIDTH 42 0
BBX 33 40 5 -1
BITMAP
F800000F80
F800000F80
F800000F80
F800000F80
F800000F80
F800000F80
F800000F80
F800000F80
F800000F80
F800000F80
F800000F80
F800000F80
F800000F80
F800000F80
F800000F80
F800000F80
F800000F80
F800000F80
F800000F80
F800000F80
F800000F80
F800000F80
F800000F80
F800000F80
F800000F80
F800000F80
F800000F80
F800000F80
F800000F80
F800000F80
F800000F80
F800001F80
F800001F80
F80C003F00
F80F00FF00
F81FFFFE00
F81FFFFC00
F80FFFF800
F803FFF000
00007F8000
ENDCHAR
STARTCHAR 0133
ENCODING 307
SWIDTH 504 0
DWIDTH 28 0
BBX 21 51 4 -10
BITMAP
7800E0
FC03F0
FC03F0
FC03F8
FC03F0
FC03F0
7800E0
000000
000000
000000
000000
000000
FC01F0
FC01F0
FC01F0
FC01F0
FC01F0
FC01F0
FC01F0
FC01F0
FC01F0
FC01F0
FC01F0
FC01F0
FC01F0
FC01F0
FC01F0
FC01F0
FC01F0
FC01F0
FC01F0
FC01F0
FC01F0
FC01F0
FC01F0
FC01F0
FC01F0
FC01F0
FC01F0
FC01F0
FC01F0
0001F0
0001F0
0003F0
0003E0
0007E0
000FE0
01FFC0
01FFC0
01FF00
01FE00
ENDCHAR
STARTCHAR 0134
ENCODING 308
SWIDTH 486 0
DWIDTH 27 0
BBX 27 52 1 -1
BITMAP
00001000
00003800
00007C00
0000FE00
0001FF00
0003EF80
0007C7C0
000F83E0
000701C0
00020080
00000000
00000000
00007C00
00007C00
00007C00
00007C00
00007C00
00007C00
00007C00
00007C00
00007C00
00007C00
00007C00
00007C00
00007C00
00007C00
00007C00
00007C00
00007C00
00007C00
00007C00
00007C00
00007C00
00007C00
00007C00
00007C00
00007C00
00007C00
00007C00
00007C00
00007C00
00007C00
0000FC00
0000FC00
0001F800
6001F800
7807F800
FFFFF000
FFFFE000
FFFFC000
3FFF0000
03F80000
ENDCHAR
STARTCHAR 0135
ENCODING 309
SWIDTH 252 0
DWIDTH 14 0
BBX 18 52 -4 -9
BITMAP
003000
007800
00FC00
01FE00
03FF00
07CF80
0F87C0
0F03C0
060180
000080
000000
000000
000000
00FC00
00FC00
00FC00
00FC00
00FC00
00FC00
00FC00
00FC00
00FC00
00FC00
00FC00
00FC00
00FC00
00FC00
00FC00
00FC00
00FC00
00FC00
00FC00
00FC00
00FC00
00FC00
00FC00
00FC00
00FC00
00FC00
00FC00
00FC00
00FC00
00FC00
00F800
00F800
00F800
01F800
07F000
7FF000
7FE000
FFC000
FF0000
ENDCHAR
STARTCHAR 0136
ENCODING 310
SWIDTH 612 0
DWIDTH 34 0
BBX 29 49 5 -10
BITMAP
F80003F0
F80007E0
F8000FC0
F8001FC0
F8003F80
F8007F00
F800FE00
F801FC00
F803F800
F807F000
F80FE000
F81FC000
F83F8000
F87F0000
F8FE0000
F9FC0000
FBF80000
FFF00000
FFE00000
FFF00000
FFF80000
FBFE0000
F8FF0000
F87F8000
F83FC000
F81FE000
F807F000
F803F800
F801FC00
F800FE00
F8007E00
F8007F00
F8003F80
F8001FC0
F8000FE0
F80007E0
F80003F0
F80003F8
F80001F8
00000000
00000000
00000000
001F0000
001F0000
001F0000
003F0000
01FE0000
01FE0000
01F80000
ENDCHAR
STARTCHAR 0137
ENCODING 311
SWIDTH 522 0
DWIDTH 29 0
BBX 24 53 4 -10
BITMAP
3C0000
FC0000
FC0000
FC0000
FC0000
FC0000
FC0000
FC0000
FC0000
FC0000
FC0000
FC0000
FC0000
FC0000
FC007E
FC00FC
FC01F8
FC03F0
FC07E0
FC0FC0
FC1F80
FC3F00
FC7E00
FCFC00
FDF800
FFF000
FFE000
FFE000
FFF800
FFFC00
FDFE00
FC7F00
FC3F00
FC1F80
FC0FC0
FC07E0
FC07F0
FC03F8
FC01F8
FC00FC
FC007E
FC007E
FC003F
000000
000000
000000
007C00
007C00
007C00
00FC00
07F800
07F000
07E000
ENDCHAR
STARTCHAR 0138
ENCODING 312
SWIDTH 522 0
DWIDTH 29 0
BBX 25 29 4 0
BITMAP
FC007E00
FC007E00
FC00FC00
FC01F800
FC03F000
FC07E000
FC0FC000
FC1F8000
FC3F0000
FC7E0000
FCFC0000
FDF80000
FFF00000
FFE00000
FFF80000
FFFC0000
FDFE0000
FCFF0000
FC3F8000
FC1FC000
FC0FE000
FC07F000
FC03F000
FC01F800
FC00FC00
FC00FE00
FC007E00
FC003F00
FC001F80
ENDCHAR
STARTCHAR 0139
ENCODING 313
SWIDTH 504 0
DWIDTH 28 0
BBX 23 52 5 0
BITMAP
010000
038000
07C000
0FE000
0FC000
1F8000
3E0000
7C0000
F80000
700000
200000
000000
000000
F80000
F80000
F80000
F80000
F80000
F80000
F80000
F80000
F80000
F80000
F80000
F80000
F80000
F80000
F80000
F80000
F80000
F80000
F80000
F80000
F80000
F80000
F80000
F80000
F80000
F80000
F80000
F80000
F80000
F80000
F80000
F80000
F80000
F80000
FFFFFE
FFFFFE
FFFFFE
FFFFFE
FFFFFE
ENDCHAR
STARTCHAR 013A
ENCODING 314
SWIDTH 270 0
DWIDTH 15 0
BBX 11 54 3 -1
BITMAP
0080
03C0
0FC0
3FE0
FFC0
7E00
7000
0000
0000
0000
1E00
7E00
7E00
7E00
7E00
7E00
7E00
7E00
7E00
7E00
7E00
7E00
7E00
7E00
7E00
7E00
7E00
7E00
7E00
7E00
7E00
7E00
7E00
7E00
7E00
7E00
7E00
7E00
7E00
7E00
7E00
7E00
7E00
7E00
7E00
7E00
7E00
7E00
3F00
3FE0
1FE0
1FC0
07C0
0040
ENDCHAR
STARTCHAR 013B
ENCODING 315
SWIDTH 504 0
DWIDTH 28 0
BBX 23 49 5 -10
BITMAP
F80000
F80000
F80000
F80000
F80000
F80000
F80000
F80000
F80000
F80000
F80000
F80000
F80000
F80000
F80000
F80000
F80000
F80000
F80000
F80000
F80000
F80000
F80000
F80000
F80000
F80000
F80000
F80000
F80000
F80000
F80000
F80000
F80000
F80000
FFFFFE
FFFFFE
FFFFFE
FFFFFE
FFFFFE
000000
000000
000000
007C00
007C00
007C00
00FC00
07F800
07F800
07E000
ENDCHAR
STARTCHAR 013C
ENCODING 316
SWIDTH 270 0
DWIDTH 15 0
BBX 12 53 2 -10
BITMAP
0F00
3F00
3F00
3F00
3F00
3F00
3F00
3F00
3F00
3F00
3F00
3F00
3F00
3F00
3F00
3F00
3F00
3F00
3F00
3F00
3F00
3F00
3F00
3F00
3F00
3F00
3F00
3F00
3F00
3F00
3F00
3F00
3F00
3F00
3F00
3F00
3F00
3F00
1F80
1FF0
0FF0
0FE0
03E0
0020
0000
0000
0F80
0F80
1F80
1F00
FF00
FE00
FC00
ENDCHAR
STARTCHAR 013D
ENCODING 317
SWIDTH 504 0
DWIDTH 28 0
BBX 23 39 5 0
BITMAP
F83E00
F83E00
F83E00
F83E00
F83E00
F83E00
F83C00
F83C00
F83C00
F83C00
F83C00
F83C00
F83C00
F80000
F80000
F80000
F80000
F80000
F80000
F80000
F80000
F80000
F80000
F80000
F80000
F80000
F80000
F80000
F80000
F80000
F80000
F80000
F80000
F80000
FFFFFE
FFFFFE
FFFFFE
FFFFFE
FFFFFE
ENDCHAR
STARTCHAR 013E
ENCODING 318
SWIDTH 270 0
DWIDTH 15 0
BBX 14 44 4 -1
BITMAP
3C7C
FC7C
FC7C
FC7C
FC7C
FC7C
FC7C
FC78
FC78
FC78
FC78
FC78
FC00
FC00
FC00
FC00
FC00
FC00
FC00
FC00
FC00
FC00
FC00
FC00
FC00
FC00
FC00
FC00
FC00
FC00
FC00
FC00
FC00
FC00
FC00
FC00
FC00
FC00
7E00
7FC0
3FC0
3F80
0F80
0080
ENDCHAR
STARTCHAR 013F
ENCODING 319
SWIDTH 504 0
DWIDTH 28 0
BBX 23 39 5 0
BITMAP
F80000
F80000
F80000
F80000
F80000
F80000
F80000
F80000
F80000
F80000
F80000
F80000
F80000
F80000
F80000
F80000
F803E0
F803F0
F803F0
F803F0
F803F0
F801E0
F80000
F80000
F80000
F80000
F80000
F80000
F80000
F80000
F80000
F80000
F80000
F80000
FFFFFE
FFFFFE
FFFFFE
FFFFFE
FFFFFE
ENDCHAR
STARTCHAR 0140
ENCODING 320
SWIDTH 360 0
DWIDTH 20 0
BBX 17 44 4 -1
BITMAP
3C0000
FC0000
FC0000
FC0000
FC0000
FC0000
FC0000
FC0000
FC0000
FC0000
FC0000
FC0000
FC0000
FC0000
FC0000
FC0000
FC0000
FC0000
FC0000
FC0400
FC1F00
FC3F00
FC3F80
FC3F80
FC3F00
FC1E00
FC0000
FC0000
FC0000
FC0000
FC0000
FC0000
FC0000
FC0000
FC0000
FC0000
FC0000
FC0000
7E0000
7FC000
3FC000
3F8000
0F8000
008000
ENDCHAR
STARTCHAR 0141
ENCODING 321
SWIDTH 522 0
DWIDTH 29 0
BBX 29 39 0 0
BITMAP
03E00000
03E00000
03E00000
03E00000
03E00000
03E00000
03E00000
03E00000
03E00000
03E00000
03E00000
03E00000
03E04000
03E1C000
03E3E000
03EFE000
03FFE000
03FF8000
03FE0000
0FF80000
3FE00000
FFE00000
FFE00000
7BE00000
63E00000
03E00000
03E00000
03E00000
03E00000
03E00000
03E00000
03E00000
03E00000
03E00000
03FFFFF8
03FFFFF8
03FFFFF8
03FFFFF8
03FFFFF8
ENDCHAR
STARTCHAR 0142
ENCODING 322
SWIDTH 270 0
DWIDTH 15 0
BBX 16 44 0 -1
BITMAP
01C0
07C0
07C0
07C0
07C0
07C0
07C0
07C0
07C0
07C0
07C0
07C0
07C0
07C0
07C0
07C6
07DE
07FF
07FF
07FC
0FF0
3FC0
FFC0
7FC0
77C0
07C0
07C0
07C0
07C0
07C0
07C0
07C0
07C0
07C0
07C0
07C0
07C0
07E0
07F0
03FE
03FC
01FC
007C
0004
ENDCHAR
STARTCHAR 0143
ENCODING 323
SWIDTH 720 0
DWIDTH 40 0
BBX 31 52 5 0
BITMAP
00002000
00003000
00007800
0000FC00
0001F800
0003F000
0007E000
0007C000
000F8000
000F0000
00060000
00000000
00000000
F000007E
F800007E
FC00007E
FE00007E
FF00007E
FF00007E
FF80007E
FFC0007E
FFE0007E
FBF0007E
FBF0007E
F9F8007E
F8FC007E
F87E007E
F83E007E
F83F007E
F81F807E
F80FC07E
F807C07E
F807E07E
F803F07E
F801F07E
F801F87E
F800FC7E
F8007E7E
F8007E7E
F8003F7E
F8001F7E
F8000FFE
F8000FFE
F80007FE
F80003FE
F80003FE
F80001FE
F80001FE
F80000FE
F800007E
F800007E
F800003E
ENDCHAR
STARTCHAR 0144
ENCODING 324
SWIDTH 558 0
DWIDTH 31 0
BBX 24 43 4 0
BITMAP
000100
000380
0007C0
000FC0
000F80
001F00
003E00
007C00
00F800
003000
000000
000000
000000
000000
3FFFC0
FFFFF0
FFFFF8
FFFFFC
FC01FC
FC00FE
FC007E
FC003E
FC003E
FC003F
FC003F
FC001F
FC001F
FC001F
FC001F
FC001F
FC001F
FC001F
FC001F
FC001F
FC001F
FC001F
FC001F
FC001F
FC001F
FC001F
FC001F
FC001F
FC001F
ENDCHAR
STARTCHAR 0145
ENCODING 325
SWIDTH 720 0
DWIDTH 40 0
BBX 31 49 5 -10
BITMAP
F000007E
F800007E
FC00007E
FE00007E
FF00007E
FF00007E
FF80007E
FFC0007E
FFE0007E
FBF0007E
FBF0007E
F9F8007E
F8FC007E
F87E007E
F83E007E
F83F007E
F81F807E
F80FC07E
F807C07E
F807E07E
F803F07E
F801F07E
F801F87E
F800FC7E
F8007E7E
F8007E7E
F8003F7E
F8001F7E
F8000FFE
F8000FFE
F80007FE
F80003FE
F80003FE
F80001FE
F80001FE
F80000FE
F800007E
F800007E
F800003E
00000000
00000000
00000000
0007C000
0007C000
0007C000
000FC000
007F8000
007F0000
007E0000
ENDCHAR
STARTCHAR 0146
ENCODING 326
SWIDTH 558 0
DWIDTH 31 0
BBX 24 39 4 -9
BITMAP
3FFFC0
FFFFF0
FFFFF8
FFFFFC
FC01FC
FC00FE
FC007E
FC003E
FC003E
FC003F
FC003F
FC001F
FC001F
FC001F
FC001F
FC001F
FC001F
FC001F
FC001F
FC001F
FC001F
FC001F
FC001F
FC001F
FC001F
FC001F
FC001F
FC001F
FC001F
000000
000000
000000
003E00
003E00
003E00
007C00
03FC00
03F800
03F000
ENDCHAR
STARTCHAR 0147
ENCODING 327
SWIDTH 720 0
DWIDTH 40 0
BBX 31 52 5 0
BITMAP
00000800
00601C00
00F03E00
00F87C00
007CF800
003FF000
001FE000
000FC000
00078000
00030000
00010000
00000000
00000000
F000007E
F800007E
FC00007E
FE00007E
FF00007E
FF00007E
FF80007E
FFC0007E
FFE0007E
FBF0007E
FBF0007E
F9F8007E
F8FC007E
F87E007E
F83E007E
F83F007E
F81F807E
F80FC07E
F807C07E
F807E07E
F803F07E
F801F07E
F801F87E
F800FC7E
F8007E7E
F8007E7E
F8003F7E
F8001F7E
F8000FFE
F8000FFE
F80007FE
F80003FE
F80003FE
F80001FE
F80001FE
F80000FE
F800007E
F800007E
F800003E
ENDCHAR
STARTCHAR 0148
ENCODING 328
SWIDTH 558 0
DWIDTH 31 0
BBX 24 43 4 0
BITMAP
020040
0700E0
0781F0
03E3E0
03F7C0
01FF80
00FF00
007E00
003C00
001800
000000
000000
000000
000000
3FFFC0
FFFFF0
FFFFF8
FFFFFC
FC01FC
FC00FE
FC007E
FC003E
FC003E
FC003F
FC003F
FC001F
FC001F
FC001F
FC001F
FC001F
FC001F
FC001F
FC001F
FC001F
FC001F
FC001F
FC001F
FC001F
FC001F
FC001F
FC001F
FC001F
FC001F
ENDCHAR
STARTCHAR 0149
ENCODING 329
SWIDTH 558 0
DWIDTH 31 0
BBX 27 43 1 0
BITMAP
7E000000
7E000000
7C000000
7C000000
7C000000
7C000000
7C000000
F8000000
F8000000
F0000000
F0000000
00000000
00000000
00000000
07FFF800
1FFFFE00
1FFFFF00
1FFFFF80
1F803F80
1F801FC0
1F800FC0
1F8007C0
1F8007C0
1F8007E0
1F8007E0
1F8003E0
1F8003E0
1F8003E0
1F8003E0
1F8003E0
1F8003E0
1F8003E0
1F8003E0
1F8003E0
1F8003E0
1F8003E0
1F8003E0
1F8003E0
1F8003E0
1F8003E0
1F8003E0
1F8003E0
1F8003E0
ENDCHAR
STARTCHAR 014A
ENCODING 330
SWIDTH 720 0
DWIDTH 40 0
BBX 31 49 5 -10
BITMAP
F000007E
F800007E
FC00007E
FE00007E
FF00007E
FF00007E
FF80007E
FFC0007E
FFE0007E
FBF0007E
FBF0007E
F9F8007E
F8FC007E
F87E007E
F83E007E
F83F007E
F81F807E
F80FC07E
F807C07E
F807E07E
F803F07E
F801F07E
F801F87E
F800FC7E
F8007E7E
F8007E7E
F8003F7E
F8001F7E
F8001FFE
F8000FFE
F80007FE
F80007FE
F80003FE
F80001FE
F80001FE
F80000FE
F800007E
F800007E
F800007E
0000007E
0000007E
0000007E
0000007C
0000007C
000000FC
00001FFC
00001FF8
00001FF8
00001FE0
ENDCHAR
STARTCHAR 014B
ENCODING 331
SWIDTH 558 0
DWIDTH 31 0
BBX 24 39 4 -9
BITMAP
3FFFC0
FFFFF0
FFFFF8
FFFFFC
FC01FC
FC00FE
FC007E
FC003E
FC003E
FC003F
FC003F
FC001F
FC001F
FC001F
FC001F
FC001F
FC001F
FC001F
FC001F
FC001F
FC001F
FC001F
FC001F
FC001F
FC001F
FC001F
FC001F
FC001F
FC001F
00001F
00001F
00003F
00003F
00003E
00007E
000FFE
000FFC
000FF8
000FF0
ENDCHAR
STARTCHAR 014C
ENCODING 332
SWIDTH 774 0
DWIDTH 43 0
BBX 37 49 3 -1
BITMAP
001FFFE000
001FFFE000
001FFFE000
001FFFE000
0000000000
0000000000
0000000000
0000000000
0000000000
0007FF8000
003FFFE000
00FFFFF800
01FFFFFC00
03FF8FFE00
07F800FF00
0FE0003F80
1FC0001FC0
1F80000FC0
3F800007E0
3F000007E0
7E000003F0
7E000003F0
7E000003F0
7C000001F8
FC000001F8
FC000001F8
FC000001F8
FC000001F8
FC000001F8
FC000001F8
FC000001F8
FC000001F8
FC000001F8
7C000001F8
7E000001F0
7E000003F0
7E000003F0
3F000007F0
3F000007E0
1F80000FE0
1FC0001FC0
0FE0003F80
07F0007F80
07FE01FF00
03FFFFFE00
00FFFFFC00
007FFFF000
001FFFC000
0001FC0000
ENDCHAR
STARTCHAR 014D
ENCODING 333
SWIDTH 576 0
DWIDTH 32 0
BBX 27 41 3 -1
BITMAP
07FFF800
07FFF800
07FFF800
07FFF800
07FFF800
00000000
00000000
00000000
00000000
00000000
000E0000
00FFE000
03FFF800
07FFFC00
0FFFFE00
1FC0FF00
3F803F80
3F001F80
7E000FC0
7C000FC0
FC0007C0
FC0007E0
F80007E0
F80007E0
F80003E0
F80003E0
F80003E0
F80007E0
F80007E0
FC0007E0
FC0007C0
7C000FC0
7E000FC0
3F001F80
3F803F80
1FC07F00
0FFFFE00
07FFFC00
03FFF800
00FFE000
001F0000
ENDCHAR
STARTCHAR 014E
ENCODING 334
SWIDTH 774 0
DWIDTH 43 0
BBX 37 51 3 -1
BITMAP
001E01C000
001E03C000
000F03C000
000FCF8000
000FFF8000
0007FF0000
0001FC0000
0000000000
0000000000
0000000000
0000000000
0007FF8000
003FFFE000
00FFFFF800
01FFFFFC00
03FF8FFE00
07F800FF00
0FE0003F80
1FC0001FC0
1F80000FC0
3F800007E0
3F000007E0
7E000003F0
7E000003F0
7E000003F0
7C000001F8
FC000001F8
FC000001F8
FC000001F8
FC000001F8
FC000001F8
FC000001F8
FC000001F8
FC000001F8
FC000001F8
7C000001F8
7E000001F0
7E000003F0
7E000003F0
3F000007F0
3F000007E0
1F80000FE0
1FC0001FC0
0FE0003F80
07F0007F80
07FE01FF00
03FFFFFE00
00FFFFFC00
007FFFF000
001FFFC000
0001FC0000
ENDCHAR
STARTCHAR 014F
ENCODING 335
SWIDTH 576 0
DWIDTH 32 0
BBX 27 43 3 -1
BITMAP
03807800
03C07800
03C07800
03E0F000
01FFF000
00FFE000
007FC000
003F8000
00000000
00000000
00000000
00000000
000E0000
00FFE000
03FFF800
07FFFC00
0FFFFE00
1FC0FF00
3F803F80
3F001F80
7E000FC0
7C000FC0
FC0007C0
FC0007E0
F80007E0
F80007E0
F80003E0
F80003E0
F80003E0
F80007E0
F80007E0
FC0007E0
FC0007C0
7C000FC0
7E000FC0
3F001F80
3F803F80
1FC07F00
0FFFFE00
07FFFC00
03FFF800
00FFE000
001F0000
ENDCHAR
STARTCHAR 0150
ENCODING 336
SWIDTH 774 0
DWIDTH 43 0
BBX 37 52 3 0
BITMAP
0000603000
0000F03800
0000F87C00
0001F0F800
0003E1F000
0007C1F000
000783E000
000F87C000
000F078000
0006010000
0000000000
0000000000
0007FF8000
003FFFE000
00FFFFF800
01FFFFFC00
03FF8FFE00
07F800FF00
0FE0003F80
1FC0001FC0
1F80000FC0
3F800007E0
3F000007E0
7E000003F0
7E000003F0
7E000003F0
7C000001F8
FC000001F8
FC000001F8
FC000001F8
FC000001F8
FC000001F8
FC000001F8
FC000001F8
FC000001F8
FC000001F8
7C000001F8
7E000001F0
7E000003F0
7E000003F0
3F000007F0
3F000007E0
1F80000FE0
1FC0001FC0
0FE0003F80
07F0007F80
07FE01FF00
03FFFFFE00
00FFFFFC00
007FFFF000
001FFFC000
0001FC0000
ENDCHAR
STARTCHAR 0151
ENCODING 337
SWIDTH 576 0
DWIDTH 32 0
BBX 27 44 3 -1
BITMAP
00080200
000C0700
001E0F80
003E1F80
007E1F00
007C3E00
00F87C00
01F0F800
01E0F000
01C06000
00000000
00000000
00000000
000E0000
00FFE000
03FFF800
07FFFC00
0FFFFE00
1FC0FF00
3F803F80
3F001F80
7E000FC0
7C000FC0
FC0007C0
FC0007E0
F80007E0
F80007E0
F80003E0
F80003E0
F80003E0
F80007E0
F80007E0
FC0007E0
FC0007C0
7C000FC0
7E000FC0
3F001F80
3F803F80
1FC07F00
0FFFFE00
07FFFC00
03FFF800
00FFE000
001F0000
ENDCHAR
STARTCHAR 0152
ENCODING 338
SWIDTH 990 0
DWIDTH 55 0
BBX 50 39 3 0
BITMAP
0000FFFFFFFF80
000FFFFFFFFF80
003FFFFFFFFF80
00FFFFFFFFFF80
01FFFFFFFFFF80
03FF003E000000
07F8003E000000
0FF0003E000000
1FC0003E000000
1F80003E000000
3F80003E000000
3F00003E000000
7E00003E000000
7E00003E000000
7E00003E000000
7C00003E000000
FC00003E000000
FC00003FFFFE00
FC00003FFFFE00
FC00003FFFFE00
FC00003FFFFE00
FC00003E000000
FC00003E000000
FC00003E000000
7C00003E000000
7E00003E000000
7E00003E000000
7F00003E000000
3F00003E000000
3F80003E000000
1FC0003E000000
1FE0003E000000
0FF0003E000000
07FC003E000000
03FFC03FFFFFC0
01FFFFFFFFFFC0
007FFFFFFFFFC0
001FFFFFFFFFC0
0003FFFFFFFFC0
ENDCHAR
STARTCHAR 0153
ENCODING 339
SWIDTH 936 0
DWIDTH 52 0
BBX 47 31 3 -1
BITMAP
000C00003000
00FFE003FF00
03FFF00FFFC0
07FFFC3FFFE0
0FFFFE3FFFF0
1FC0FE7E03F8
3F803FFC01F8
3F001FF800F8
7E000FF000FC
7C000FF0007C
FC0007E0007C
FC0007E0007C
F80007E0007E
F80007FFFFFE
F80003FFFFFE
F80003FFFFFE
F80003FFFFFE
F80007E00000
F80007E00000
FC0007E00000
FC0007E00000
7C000FF00000
7E000FF00000
3F001FF80000
3F803FFC0000
1FC07F7F0030
0FFFFE7FFFF0
07FFFC3FFFF0
03FFF80FFFF8
00FFE007FFF0
001E00003E00
ENDCHAR
STARTCHAR 0154
ENCODING 340
SWIDTH 612 0
DWIDTH 34 0
BBX 29 52 5 0
BITMAP
00020000
00030000
00078000
000FC000
001F8000
003F0000
007E0000
007C0000
00F80000
00F00000
00200000
00000000
00000000
1FFE0000
FFFFE000
FFFFF800
FFFFFE00
FFFFFF00
F800FF80
F8003F80
F8001FC0
F8000FC0
F80007C0
F80007C0
F80007E0
F80007E0
F80007E0
F80007C0
F8000FC0
F8000FC0
F8001F80
F8007F80
FFFFFF00
FFFFFE00
FFFFFC00
FFFFF000
FFFFE000
F807F000
F803F800
F801F800
F800FC00
F8007E00
F8007E00
F8003F00
F8001F80
F8001F80
F8000FC0
F8000FE0
F80007E0
F80003F0
F80003F0
F80001F8
ENDCHAR
STARTCHAR 0155
ENCODING 341
SWIDTH 378 0
DWIDTH 21 0
BBX 17 43 4 0
BITMAP
000800
001C00
003E00
007E00
00FC00
01F800
01F000
03E000
07C000
038000
010000
000000
000000
000000
1FFF80
FFFF80
FFFF00
FFFF00
FE0100
FC0000
FC0000
FC0000
FC0000
FC0000
FC0000
FC0000
FC0000
FC0000
FC0000
FC0000
FC0000
FC0000
FC0000
FC0000
FC0000
FC0000
FC0000
FC0000
FC0000
FC0000
FC0000
FC0000
FC0000
ENDCHAR
STARTCHAR 0156
ENCODING 342
SWIDTH 612 0
DWIDTH 34 0
BBX 29 49 5 -10
BITMAP
1FFE0000
FFFFE000
FFFFF800
FFFFFE00
FFFFFF00
F800FF80
F8003F80
F8001FC0
F8000FC0
F80007C0
F80007C0
F80007E0
F80007E0
F80007E0
F80007C0
F8000FC0
F8000FC0
F8001F80
F8007F80
FFFFFF00
FFFFFE00
FFFFFC00
FFFFF000
FFFFE000
F807F000
F803F800
F801F800
F800FC00
F8007E00
F8007E00
F8003F00
F8001F80
F8001F80
F8000FC0
F8000FE0
F80007E0
F80003F0
F80003F0
F80001F8
00000000
00000000
00000000
001F0000
001F0000
001F0000
003F0000
01FE0000
01FC0000
01F80000
ENDCHAR
STARTCHAR 0157
ENCODING 343
SWIDTH 378 0
DWIDTH 21 0
BBX 20 39 1 -9
BITMAP
03FFF0
1FFFF0
1FFFE0
1FFFE0
1FC020
1F8000
1F8000
1F8000
1F8000
1F8000
1F8000
1F8000
1F8000
1F8000
1F8000
1F8000
1F8000
1F8000
1F8000
1F8000
1F8000
1F8000
1F8000
1F8000
1F8000
1F8000
1F8000
1F8000
1F8000
000000
000000
000000
0F8000
0F8000
1F0000
1F0000
FF0000
FE0000
FC0000
ENDCHAR
STARTCHAR 0158
ENCODING 344
SWIDTH 612 0
DWIDTH 34 0
BBX 29 51 5 1
BITMAP
0601C000
0F03E000
0F87C000
07EF8000
03FF0000
01FE0000
00FC0000
007C0000
00380000
00100000
00000000
00000000
1FFE0000
FFFFE000
FFFFF800
FFFFFE00
FFFFFF00
F800FF80
F8003F80
F8001FC0
F8000FC0
F80007C0
F80007C0
F80007E0
F80007E0
F80007E0
F80007C0
F8000FC0
F8000FC0
F8001F80
F8007F80
FFFFFF00
FFFFFE00
FFFFFC00
FFFFF000
FFFFE000
F807F000
F803F800
F801F800
F800FC00
F8007E00
F8007E00
F8003F00
F8001F80
F8001F80
F8000FC0
F8000FE0
F80007E0
F80003F0
F80003F0
F80001F8
ENDCHAR
STARTCHAR 0159
ENCODING 345
SWIDTH 378 0
DWIDTH 21 0
BBX 17 43 4 0
BITMAP
100200
380600
7C1F00
3E3E00
1F7C00
0FF800
07F000
03F000
01E000
00C000
000000
000000
000000
000000
1FFF80
FFFF80
FFFF00
FFFF00
FE0100
FC0000
FC0000
FC0000
FC0000
FC0000
FC0000
FC0000
FC0000
FC0000
FC0000
FC0000
FC0000
FC0000
FC0000
FC0000
FC0000
FC0000
FC0000
FC0000
FC0000
FC0000
FC0000
FC0000
FC0000
ENDCHAR
STARTCHAR 015A
ENCODING 346
SWIDTH 522 0
DWIDTH 29 0
BBX 26 53 2 -1
BITMAP
00008000
0000C000
0001E000
0003F000
0007E000
000FC000
001F8000
001F0000
003E0000
003C0000
00080000
00000000
00000000
00FFF800
03FFFE00
0FFFFF00
1FFFFF00
3FF07E00
3F800600
7E000000
7E000000
7C000000
7C000000
7C000000
7E000000
7E000000
7F000000
3F800000
3FE00000
1FF80000
0FFF0000
07FFC000
01FFF000
007FFC00
000FFE00
0003FF00
0000FF00
00003F80
00001F80
00001FC0
00000FC0
00000FC0
00000FC0
00000FC0
00000FC0
00001F80
60003F80
7C00FF80
FFFFFF00
FFFFFE00
7FFFFC00
1FFFF000
01FF0000
ENDCHAR
STARTCHAR 015B
ENCODING 347
SWIDTH 432 0
DWIDTH 24 0
BBX 21 44 2 -1
BITMAP
000600
000700
000F80
001F80
003F00
007E00
00FC00
00F800
01F000
00E000
004000
000000
000000
007800
07FFE0
0FFFE0
1FFFE0
3FFFC0
7F0040
7C0000
7C0000
7C0000
7C0000
7E0000
7F0000
3FC000
3FF000
1FFE00
07FF80
01FFC0
007FE0
000FF0
0007F0
0001F0
0001F8
0001F8
0001F8
0001F0
7003F0
7FFFF0
7FFFE0
FFFFC0
7FFF00
07F000
ENDCHAR
STARTCHAR 015C
ENCODING 348
SWIDTH 522 0
DWIDTH 29 0
BBX 26 52 2 -1
BITMAP
000C0000
000E0000
001F0000
003F8000
007FC000
00FBE000
01F1F000
03E0F800
01C07000
00002000
00000000
00000000
00FFF800
03FFFE00
0FFFFF00
1FFFFF00
3FF07E00
3F800600
7E000000
7E000000
7C000000
7C000000
7C000000
7E000000
7E000000
7F000000
3F800000
3FE00000
1FF80000
0FFF0000
07FFC000
01FFF000
007FFC00
000FFE00
0003FF00
0000FF00
00003F80
00001F80
00001FC0
00000FC0
00000FC0
00000FC0
00000FC0
00000FC0
00001F80
60003F80
7C00FF80
FFFFFF00
FFFFFE00
7FFFFC00
1FFFF000
01FF0000
ENDCHAR
STARTCHAR 015D
ENCODING 349
SWIDTH 432 0
DWIDTH 24 0
BBX 21 44 2 -1
BITMAP
002000
007000
00F800
00FC00
01FE00
03FF00
07DF80
0F87C0
1F03C0
0E0180
000000
000000
000000
007800
07FFE0
0FFFE0
1FFFE0
3FFFC0
7F0040
7C0000
7C0000
7C0000
7C0000
7E0000
7F0000
3FC000
3FF000
1FFE00
07FF80
01FFC0
007FE0
000FF0
0007F0
0001F0
0001F8
0001F8
0001F8
0001F0
7003F0
7FFFF0
7FFFE0
FFFFC0
7FFF00
07F000
ENDCHAR
STARTCHAR 015E
ENCODING 350
SWIDTH 522 0
DWIDTH 29 0
BBX 26 50 2 -11
BITMAP
00FFF800
03FFFE00
0FFFFF00
1FFFFF00
3FF07E00
3F800600
7E000000
7E000000
7C000000
7C000000
7C000000
7E000000
7E000000
7F000000
3F800000
3FE00000
1FF80000
0FFF0000
07FFC000
01FFF000
007FFC00
000FFE00
0003FF00
0000FF00
00003F80
00001F80
00001FC0
00000FC0
00000FC0
00000FC0
00000FC0
00000FC0
00001F80
60003F80
7C00FF80
FFFFFF00
FFFFFE00
7FFFFC00
1FFFF000
01FF0000
003C0000
003E0000
003F0000
001F0000
000F8000
000F8000
01FF8000
01FF0000
01FE0000
00200000
ENDCHAR
STARTCHAR 015F
ENCODING 351
SWIDTH 432 0
DWIDTH 24 0
BBX 21 41 2 -11
BITMAP
007800
07FFE0
0FFFE0
1FFFE0
3FFFC0
7F0040
7C0000
7C0000
7C0000
7C0000
7E0000
7F0000
3FC000
3FF000
1FFE00
07FF80
01FFC0
007FE0
000FF0
0007F0
0001F0
0001F8
0001F8
0001F8
0001F0
7003F0
7FFFF0
7FFFE0
FFFFC0
7FFF00
03F000
00F000
00F000
01F800
007C00
003C00
003C00
0FFC00
0FFC00
0FF800
008000
ENDCHAR
STARTCHAR 0160
ENCODING 352
SWIDTH 522 0
DWIDTH 29 0
BBX 26 52 2 0
BITMAP
01807000
03C0F800
03E1F000
01FBE000
00FFC000
007F8000
003F0000
001F0000
000E0000
00040000
00000000
00000000
00FFF800
03FFFE00
0FFFFF00
1FFFFF00
3FF07E00
3F800600
7E000000
7E000000
7C000000
7C000000
7C000000
7E000000
7E000000
7F000000
3F800000
3FE00000
1FF80000
0FFF0000
07FFC000
01FFF000
007FFC00
000FFE00
0003FF00
0000FF00
00003F80
00001F80
00001FC0
00000FC0
00000FC0
00000FC0
00000FC0
00000FC0
00001F80
60003F80
7C00FF80
FFFFFF00
FFFFFE00
7FFFFC00
1FFFF000
01FF0000
ENDCHAR
STARTCHAR 0161
ENCODING 353
SWIDTH 432 0
DWIDTH 24 0
BBX 21 44 2 -1
BITMAP
040100
0E0380
1F07C0
0F8F80
07DF00
03FE00
01FC00
00F800
007000
006000
000000
000000
000000
007800
07FFE0
0FFFE0
1FFFE0
3FFFC0
7F0040
7C0000
7C0000
7C0000
7C0000
7E0000
7F0000
3FC000
3FF000
1FFE00
07FF80
01FFC0
007FE0
000FF0
0007F0
0001F0
0001F8
0001F8
0001F8
0001F0
7003F0
7FFFF0
7FFFE0
FFFFC0
7FFF00
07F000
ENDCHAR
STARTCHAR 0162
ENCODING 354
SWIDTH 558 0
DWIDTH 31 0
BBX 30 50 1 -11
BITMAP
FFFFFFFC
FFFFFFFC
FFFFFFFC
FFFFFFFC
FFFFFFFC
000F8000
000F8000
000F8000
000F8000
000F8000
000F8000
000F8000
000F8000
000F8000
000F8000
000F8000
000F8000
000F8000
000F8000
000F8000
000F8000
000F8000
000F8000
000F8000
000F8000
000F8000
000F8000
000F8000
000F8000
000F8000
000F8000
000F8000
000F8000
000F8000
000F8000
000F8000
000F8000
000F8000
000F8000
00070000
000F0000
000F0000
001F8000
0007C000
0003C000
0003C000
007FC000
00FFC000
00FF8000
00080000
ENDCHAR
STARTCHAR 0163
ENCODING 355
SWIDTH 396 0
DWIDTH 22 0
BBX 17 49 4 -11
BITMAP
180000
F80000
F80000
F80000
F80000
F80000
F80000
F80000
F80000
FFFF00
FFFF00
FFFF00
FFFF00
F80000
F80000
F80000
F80000
F80000
F80000
F80000
F80000
F80000
F80000
F80000
F80000
F80000
F80000
F80000
F80000
F80000
FC0000
FC0000
7E0000
7F0380
7FFF80
3FFF80
1FFF80
0FFF00
00F000
01E000
01E000
03F800
00F800
007C00
007C00
0FF800
0FF800
1FF000
010000
ENDCHAR
STARTCHAR 0164
ENCODING 356
SWIDTH 558 0
DWIDTH 31 0
BBX 30 51 1 1
BITMAP
00E01800
01F03C00
00F87C00
007CF800
003FF000
001FE000
000FC000
00078000
00070000
00020000
00000000
00000000
FFFFFFFC
FFFFFFFC
FFFFFFFC
FFFFFFFC
FFFFFFFC
000F8000
000F8000
000F8000
000F8000
000F8000
000F8000
000F8000
000F8000
000F8000
000F8000
000F8000
000F8000
000F8000
000F8000
000F8000
000F8000
000F8000
000F8000
000F8000
000F8000
000F8000
000F8000
000F8000
000F8000
000F8000
000F8000
000F8000
000F8000
000F8000
000F8000
000F8000
000F8000
000F8000
000F8000
ENDCHAR
STARTCHAR 0165
ENCODING 357
SWIDTH 396 0
DWIDTH 22 0
BBX 17 44 4 -1
BITMAP
007C00
007C00
007C00
007C00
007800
187800
F87800
F87800
F87800
F87800
F87800
F80000
F80000
F80000
FFFF00
FFFF00
FFFF00
FFFF00
F80000
F80000
F80000
F80000
F80000
F80000
F80000
F80000
F80000
F80000
F80000
F80000
F80000
F80000
F80000
F80000
F80000
FC0000
FC0000
7E0000
7F0380
7FFF80
3FFF80
1FFF80
0FFF00
007000
ENDCHAR
STARTCHAR 0166
ENCODING 358
SWIDTH 558 0
DWIDTH 31 0
BBX 30 39 1 0
BITMAP
FFFFFFFC
FFFFFFFC
FFFFFFFC
FFFFFFFC
FFFFFFFC
000F8000
000F8000
000F8000
000F8000
000F8000
000F8000
000F8000
000F8000
000F8000
000F8000
000F8000
000F8000
07FFFF80
07FFFF80
07FFFF80
07FFFF80
000F8000
000F8000
000F8000
000F8000
000F8000
000F8000
000F8000
000F8000
000F8000
000F8000
000F8000
000F8000
000F8000
000F8000
000F8000
000F8000
000F8000
000F8000
ENDCHAR
STARTCHAR 0167
ENCODING 359
SWIDTH 396 0
DWIDTH 22 0
BBX 17 39 4 -1
BITMAP
180000
F80000
F80000
F80000
F80000
F80000
F80000
F80000
F80000
FFFF00
FFFF00
FFFF00
FFFF00
F80000
F80000
F80000
F80000
F80000
F80000
F80000
F80000
FFFF00
FFFF00
FFFF00
FFFF00
F80000
F80000
F80000
F80000
F80000
FC0000
FC0000
7E0000
7F0380
7FFF80
3FFF80
1FFF80
0FFF00
007000
ENDCHAR
STARTCHAR 0168
ENCODING 360
SWIDTH 684 0
DWIDTH 38 0
BBX 30 50 4 0
BITMAP
007E0700
00FF8F00
01FFFE00
01FFFE00
03C3FC00
01807000
00000000
00000000
00000000
00000000
FC0000FC
FC0000FC
FC0000FC
FC0000FC
FC0000FC
FC0000FC
FC0000FC
FC0000FC
FC0000FC
FC0000FC
FC0000FC
FC0000FC
FC0000FC
FC0000FC
FC0000FC
FC0000FC
FC0000FC
FC0000FC
FC0000FC
FC0000FC
FC0000FC
FC0000FC
FC0000FC
FC0000FC
FC0000FC
7C0000FC
7C0000FC
7C0000FC
7C0000F8
7E0001F8
7E0001F8
3F0003F8
3F0003F0
1FC007F0
1FF01FE0
0FFFFFC0
07FFFF80
03FFFF00
00FFFC00
001FE000
ENDCHAR
STARTCHAR 0169
ENCODING 361
SWIDTH 558 0
DWIDTH 31 0
BBX 23 42 4 -1
BITMAP
000020
03F078
07FEF8
0FFFF0
1F7FE0
1C0FC0
040100
000000
000000
000000
000000
000000
F8003E
F8003E
F8003E
F8003E
F8003E
F8003E
F8003E
F8003E
F8003E
F8003E
F8003E
F8003E
F8003E
F8003E
F8003E
F8003E
F8003E
F8003E
F8003E
FC003E
FC003E
7C003E
7E003E
7F003E
3F803E
3FFFFE
1FFFFE
0FFFFE
03FFFC
001E00
ENDCHAR
STARTCHAR 016A
ENCODING 362
SWIDTH 684 0
DWIDTH 38 0
BBX 30 49 4 -1
BITMAP
01FFFE00
01FFFE00
01FFFE00
01FFFE00
00000000
00000000
00000000
00000000
00000000
FC0000FC
FC0000FC
FC0000FC
FC0000FC
FC0000FC
FC0000FC
FC0000FC
FC0000FC
FC0000FC
FC0000FC
FC0000FC
FC0000FC
FC0000FC
FC0000FC
FC0000FC
FC0000FC
FC0000FC
FC0000FC
FC0000FC
FC0000FC
FC0000FC
FC0000FC
FC0000FC
FC0000FC
FC0000FC
7C0000FC
7C0000FC
7C0000FC
7C0000F8
7E0001F8
7E0001F8
3F0003F8
3F0003F0
1FC007F0
1FF01FE0
0FFFFFC0
07FFFF80
03FFFF00
00FFFC00
001FE000
ENDCHAR
STARTCHAR 016B
ENCODING 363
SWIDTH 558 0
DWIDTH 31 0
BBX 23 41 4 -1
BITMAP
0FFFF0
0FFFF0
0FFFF0
0FFFF0
0FFFF0
000000
000000
000000
000000
000000
000000
F8003E
F8003E
F8003E
F8003E
F8003E
F8003E
F8003E
F8003E
F8003E
F8003E
F8003E
F8003E
F8003E
F8003E
F8003E
F8003E
F8003E
F8003E
F8003E
FC003E
FC003E
7C003E
7E003E
7F003E
3F803E
3FFFFE
1FFFFE
0FFFFE
03FFFC
001E00
ENDCHAR
STARTCHAR 016C
ENCODING 364
SWIDTH 684 0
DWIDTH 38 0
BBX 30 51 4 -1
BITMAP
00E01E00
00E01C00
00F03C00
00FCFC00
007FF800
003FF000
001FE000
00000000
00000000
00000000
00000000
FC0000FC
FC0000FC
FC0000FC
FC0000FC
FC0000FC
FC0000FC
FC0000FC
FC0000FC
FC0000FC
FC0000FC
FC0000FC
FC0000FC
FC0000FC
FC0000FC
FC0000FC
FC0000FC
FC0000FC
FC0000FC
FC0000FC
FC0000FC
FC0000FC
FC0000FC
FC0000FC
FC0000FC
FC0000FC
7C0000FC
7C0000FC
7C0000FC
7C0000F8
7E0001F8
7E0001F8
3F0003F8
3F0003F0
1FC007F0
1FF01FE0
0FFFFFC0
07FFFF80
03FFFF00
00FFFC00
001FE000
ENDCHAR
STARTCHAR 016D
ENCODING 365
SWIDTH 558 0
DWIDTH 31 0
BBX 23 43 4 -1
BITMAP
0F00E0
0F00E0
0701E0
0783E0
07FFC0
03FFC0
01FF80
007E00
000000
000000
000000
000000
000000
F8003E
F8003E
F8003E
F8003E
F8003E
F8003E
F8003E
F8003E
F8003E
F8003E
F8003E
F8003E
F8003E
F8003E
F8003E
F8003E
F8003E
F8003E
F8003E
FC003E
FC003E
7C003E
7E003E
7F003E
3F803E
3FFFFE
1FFFFE
0FFFFE
03FFFC
001E00
ENDCHAR
STARTCHAR 016E
ENCODING 366
SWIDTH 684 0
DWIDTH 38 0
BBX 30 53 4 -1
BITMAP
00078000
001FE000
003FF000
00387000
00703800
00703800
00703800
00383800
003CF000
001FE000
000FC000
00000000
00000000
FC0000FC
FC0000FC
FC0000FC
FC0000FC
FC0000FC
FC0000FC
FC0000FC
FC0000FC
FC0000FC
FC0000FC
FC0000FC
FC0000FC
FC0000FC
FC0000FC
FC0000FC
FC0000FC
FC0000FC
FC0000FC
FC0000FC
FC0000FC
FC0000FC
FC0000FC
FC0000FC
FC0000FC
FC0000FC
7C0000FC
7C0000FC
7C0000FC
7C0000F8
7E0001F8
7E0001F8
3F0003F8
3F0003F0
1FC007F0
1FF01FE0
0FFFFFC0
07FFFF80
03FFFF00
00FFFC00
001FE000
ENDCHAR
STARTCHAR 016F
ENCODING 367
SWIDTH 558 0
DWIDTH 31 0
BBX 23 44 4 -1
BITMAP
007E00
00FF00
01E780
038380
038180
0381C0
038180
03C380
01FF80
00FF00
007C00
000000
000000
000000
F8003E
F8003E
F8003E
F8003E
F8003E
F8003E
F8003E
F8003E
F8003E
F8003E
F8003E
F8003E
F8003E
F8003E
F8003E
F8003E
F8003E
F8003E
F8003E
FC003E
FC003E
7C003E
7E003E
7F003E
3F803E
3FFFFE
1FFFFE
0FFFFE
03FFFC
001E00
ENDCHAR
STARTCHAR 0170
ENCODING 368
SWIDTH 684 0
DWIDTH 38 0
BBX 30 53 4 -1
BITMAP
00020100
00030180
000783C0
000F87E0
001F87C0
001F0F80
003E1F00
007C3E00
00783C00
00703800
00201000
00000000
00000000
FC0000FC
FC0000FC
FC0000FC
FC0000FC
FC0000FC
FC0000FC
FC0000FC
FC0000FC
FC0000FC
FC0000FC
FC0000FC
FC0000FC
FC0000FC
FC0000FC
FC0000FC
FC0000FC
FC0000FC
FC0000FC
FC0000FC
FC0000FC
FC0000FC
FC0000FC
FC0000FC
FC0000FC
FC0000FC
7C0000FC
7C0000FC
7C0000FC
7C0000F8
7E0001F8
7E0001F8
3F0003F8
3F0003F0
1FC007F0
1FF01FE0
0FFFFFC0
07FFFF80
03FFFF00
00FFFC00
001FE000
ENDCHAR
STARTCHAR 0171
ENCODING 369
SWIDTH 558 0
DWIDTH 31 0
BBX 23 44 4 -1
BITMAP
001008
00381C
007C3E
007C3E
00F87C
01F0F8
03E0F0
03C1F0
0783E0
0381C0
010080
000000
000000
000000
F8003E
F8003E
F8003E
F8003E
F8003E
F8003E
F8003E
F8003E
F8003E
F8003E
F8003E
F8003E
F8003E
F8003E
F8003E
F8003E
F8003E
F8003E
F8003E
FC003E
FC003E
7C003E
7E003E
7F003E
3F803E
3FFFFE
1FFFFE
0FFFFE
03FFFC
001E00
ENDCHAR
STARTCHAR 0172
ENCODING 370
SWIDTH 684 0
DWIDTH 38 0
BBX 30 49 4 -10
BITMAP
FC0000FC
FC0000FC
FC0000FC
FC0000FC
FC0000FC
FC0000FC
FC0000FC
FC0000FC
FC0000FC
FC0000FC
FC0000FC
FC0000FC
FC0000FC
FC0000FC
FC0000FC
FC0000FC
FC0000FC
FC0000FC
FC0000FC
FC0000FC
FC0000FC
FC0000FC
FC0000FC
FC0000FC
FC0000FC
7C0000FC
7C0000FC
7C0000FC
7C0000F8
7E0001F8
7E0001F8
3F0003F8
3F0003F0
1FC007F0
1FF01FE0
0FFFFFC0
07FFFF80
03FFFF00
00FFFC00
001FF800
0001E000
0003E000
0007C000
00078000
000F8000
000FC400
000FFC00
0007FC00
0003FC00
ENDCHAR
STARTCHAR 0173
ENCODING 371
SWIDTH 558 0
DWIDTH 31 0
BBX 23 39 4 -10
BITMAP
F8003E
F8003E
F8003E
F8003E
F8003E
F8003E
F8003E
F8003E
F8003E
F8003E
F8003E
F8003E
F8003E
F8003E
F8003E
F8003E
F8003E
F8003E
F8003E
FC003E
FC003E
7C003E
7E003E
7F003E
3F803E
3FFFFE
1FFFFE
0FFFFE
03FFFE
001E7C
0000F8
0001F0
0001E0
0003E0
0003E0
0003F0
0003FE
0003FE
0000FE
ENDCHAR
STARTCHAR 0174
ENCODING 372
SWIDTH 918 0
DWIDTH 51 0
BBX 48 51 2 0
BITMAP
000001800000
000003C00000
000007E00000
00000FF00000
00001FF00000
00003EF80000
00007C7C0000
0000F83E0000
0000700C0000
000020040000
000000000000
000000000000
F8000000001F
F8000000003F
FC000000003F
FC000000003F
FC000000003E
FC0007C0003E
7C0007E0007E
7C0007E0007E
7E000FE0007E
7E000FF0007C
7E000FF0007C
3E000FF000FC
3E001FF800FC
3F001FF800FC
3F001EF800F8
3F003E7C00F8
1F003E7C01F8
1F803C7C01F8
1F807C3E01F0
1F807C3E01F0
0F80783E01F0
0F80F81F03F0
0FC0F81F03E0
0FC1F01F03E0
07C1F00F83E0
07C1F00F87E0
07E3E00FC7C0
07E3E007C7C0
03E3C007C7C0
03E7C003EFC0
03F7C003EF80
01FF8003EF80
01FF8001FF80
01FF0001FF00
01FF0001FF00
00FF0000FF00
00FE0000FE00
00FE00007E00
007E00007E00
ENDCHAR
STARTCHAR 0175
ENCODING 373
SWIDTH 774 0
DWIDTH 43 0
BBX 41 43 1 0
BITMAP
000008000000
00001C000000
00003E000000
00007F000000
00007F800000
0000FFC00000
0001F7C00000
0003E3E00000
0007C0F00000
000300600000
000000000000
000000000000
000000000000
000000000000
FC001E000F80
FC003E000F80
7C003E001F80
7C003F001F00
7E003F001F00
7E007F001F00
3E007F003E00
3E007F803E00
3F00FF803E00
1F00F7807E00
1F00F7807C00
1F00F7C07C00
1F81F7C07C00
0F81E3C0F800
0F81E3E0F800
0FC3E3E0F800
07C3C1E1F000
07C3C1F1F000
07E3C1F1F000
03E7C0F3E000
03E780FBE000
01F780FBE000
01FF807FC000
01FF007FC000
00FF007F8000
00FE003F8000
007E003F8000
007E003F0000
007C001F0000
ENDCHAR
STARTCHAR 0176
ENCODING 374
SWIDTH 594 0
DWIDTH 33 0
BBX 33 51 0 0
BITMAP
0000800000
0001C00000
0003E00000
0007F00000
000FF80000
001F7C0000
003E3E0000
007C1F0000
00380E0000
0010040000
0000000000
0000000000
FE00001F80
7E00003F00
7F00003F00
3F00007E00
1F80007E00
1F8000FC00
0FC000FC00
0FC001F800
07E001F000
07E003F000
03F003E000
01F007E000
01F807C000
00FC0F8000
00FC1F8000
007E1F0000
007E3F0000
003F3E0000
001FFC0000
001FFC0000
000FF80000
0007F80000
0007F00000
0003E00000
0003E00000
0003E00000
0003E00000
0003E00000
0003E00000
0003E00000
0003E00000
0003E00000
0003E00000
0003E00000
0003E00000
0003E00000
0003E00000
0003E00000
0003E00000
ENDCHAR
STARTCHAR 0177
ENCODING 375
SWIDTH 486 0
DWIDTH 27 0
BBX 27 53 0 -10
BITMAP
00020000
00070000
000F8000
001FC000
003FE000
003FF000
007DF000
00F8F800
01F03C00
00C01800
00000000
00000000
00000000
00000000
7E0007E0
7E0007C0
3E0007C0
3E000FC0
3F000F80
3F000F80
1F000F80
1F801F80
1F801F00
0F801F00
0FC01F00
0FC03F00
07C03E00
07E03E00
03E03E00
03E07C00
03F07C00
01F07C00
01F0F800
00F8F800
00F8F800
007DF000
007DF000
003FE000
003FE000
003FE000
001FC000
001FC000
000FC000
000F8000
000F8000
001F0000
001F0000
003E0000
00FC0000
7FFC0000
7FF80000
FFE00000
FFC00000
ENDCHAR
STARTCHAR 0178
ENCODING 376
SWIDTH 594 0
DWIDTH 33 0
BBX 33 49 0 0
BITMAP
007C0F0000
00FC1F8000
00FE1F8000
00FE1F8000
007C1F8000
00780F0000
0000000000
0000000000
0000000000
0000000000
FE00001F80
7E00003F00
7F00003F00
3F00007E00
1F80007E00
1F8000FC00
0FC000FC00
0FC001F800
07E001F000
07E003F000
03F003E000
01F007E000
01F807C000
00FC0F8000
00FC1F8000
007E1F0000
007E3F0000
003F3E0000
001FFC0000
001FFC0000
000FF80000
0007F80000
0007F00000
0003E00000
0003E00000
0003E00000
0003E00000
0003E00000
0003E00000
0003E00000
0003E00000
0003E00000
0003E00000
0003E00000
0003E00000
0003E00000
0003E00000
0003E00000
0003E00000
ENDCHAR
STARTCHAR 0179
ENCODING 377
SWIDTH 558 0
DWIDTH 31 0
BBX 28 52 2 0
BITMAP
00004000
00006000
0000F000
0001F800
0003F000
0007E000
000FC000
000F8000
001F0000
001E0000
000C0000
00000000
00000000
7FFFFFE0
7FFFFFE0
7FFFFFE0
7FFFFFE0
7FFFFFE0
00000FE0
00001FC0
00001F80
00003F00
00007E00
0000FC00
0001FC00
0001F800
0003F000
0007E000
000FE000
000FC000
001F8000
003F0000
003F0000
007E0000
00FC0000
00FC0000
01F80000
03F00000
03F00000
07E00000
0FC00000
0FC00000
1F800000
1F000000
3F000000
7E000000
7E000000
FFFFFFF0
FFFFFFF0
FFFFFFF0
FFFFFFF0
FFFFFFF0
ENDCHAR
STARTCHAR 017A
ENCODING 378
SWIDTH 468 0
DWIDTH 26 0
BBX 22 43 2 0
BITMAP
000200
000700
000F80
001F80
003F00
003E00
007C00
00F800
01F000
00E000
004000
000000
000000
000000
7FFFFC
7FFFFC
7FFFFC
7FFFFC
0001F8
0003F0
0007E0
0007E0
000FC0
001F80
003F00
007E00
007E00
00FC00
01F800
03F000
03F000
07E000
0FC000
0F8000
1F8000
3F0000
3E0000
7E0000
7C0000
FFFFFC
FFFFFC
FFFFFC
FFFFFC
ENDCHAR
STARTCHAR 017B
ENCODING 379
SWIDTH 558 0
DWIDTH 31 0
BBX 28 50 2 0
BITMAP
00020000
000F8000
001F8000
001FC000
001FC000
001F8000
000F0000
00000000
00000000
00000000
00000000
7FFFFFE0
7FFFFFE0
7FFFFFE0
7FFFFFE0
7FFFFFE0
00000FE0
00001FC0
00001F80
00003F00
00007E00
0000FC00
0001FC00
0001F800
0003F000
0007E000
000FE000
000FC000
001F8000
003F0000
003F0000
007E0000
00FC0000
00FC0000
01F80000
03F00000
03F00000
07E00000
0FC00000
0FC00000
1F800000
1F000000
3F000000
7E000000
7E000000
FFFFFFF0
FFFFFFF0
FFFFFFF0
FFFFFFF0
FFFFFFF0
ENDCHAR
STARTCHAR 017C
ENCODING 380
SWIDTH 468 0
DWIDTH 26 0
BBX 22 41 2 0
BITMAP
007000
00FC00
00FC00
01FC00
00FC00
00FC00
007800
000000
000000
000000
000000
000000
7FFFFC
7FFFFC
7FFFFC
7FFFFC
0001F8
0003F0
0007E0
0007E0
000FC0
001F80
003F00
007E00
007E00
00FC00
01F800
03F000
03F000
07E000
0FC000
0F8000
1F8000
3F0000
3E0000
7E0000
7C0000
FFFFFC
FFFFFC
FFFFFC
FFFFFC
ENDCHAR
STARTCHAR 017D
ENCODING 381
SWIDTH 558 0
DWIDTH 31 0
BBX 28 52 2 0
BITMAP
00001000
00C03800
01E07C00
01F0F800
00F9F000
007FE000
003FC000
001F8000
000F0000
00060000
00020000
00000000
00000000
7FFFFFE0
7FFFFFE0
7FFFFFE0
7FFFFFE0
7FFFFFE0
00000FE0
00001FC0
00001F80
00003F00
00007E00
0000FC00
0001FC00
0001F800
0003F000
0007E000
000FE000
000FC000
001F8000
003F0000
003F0000
007E0000
00FC0000
00FC0000
01F80000
03F00000
03F00000
07E00000
0FC00000
0FC00000
1F800000
1F000000
3F000000
7E000000
7E000000
FFFFFFF0
FFFFFFF0
FFFFFFF0
FFFFFFF0
FFFFFFF0
ENDCHAR
STARTCHAR 017E
ENCODING 382
SWIDTH 468 0
DWIDTH 26 0
BBX 22 43 2 0
BITMAP
040080
0E01C0
1F03C0
0F8F80
07DF80
03FF00
01FE00
00FC00
007800
003000
000000
000000
000000
000000
7FFFFC
7FFFFC
7FFFFC
7FFFFC
0001F8
0003F0
0007E0
0007E0
000FC0
001F80
003F00
007E00
007E00
00FC00
01F800
03F000
03F000
07E000
0FC000
0F8000
1F8000
3F0000
3E0000
7E0000
7C0000
FFFFFC
FFFFFC
FFFFFC
FFFFFC
ENDCHAR
STARTCHAR 017F
ENCODING 383
SWIDTH 270 0
DWIDTH 15 0
BBX 18 43 4 0
BITMAP
01FF80
07FFC0
0FFFC0
1FFF80
3FE380
7F0000
7E0000
7C0000
7C0000
7C0000
FC0000
FC0000
FC0000
FC0000
FC0000
FC0000
FC0000
FC0000
FC0000
FC0000
FC0000
FC0000
FC0000
FC0000
FC0000
FC0000
FC0000
FC0000
FC0000
FC0000
FC0000
FC0000
FC0000
FC0000
FC0000
FC0000
FC0000
FC0000
FC0000
FC0000
FC0000
FC0000
FC0000
ENDCHAR
STARTCHAR 0180
ENCODING 384
SWIDTH 576 0
DWIDTH 32 0
BBX 30 44 0 -1
BITMAP
03C00000
0FC00000
0FC00000
0FC00000
0FC00000
FFFFE000
FFFFE000
FFFFE000
FFFFE000
0FC00000
0FC00000
0FC00000
0FC00000
0FC00000
0FCFFC00
0FFFFF00
0FFFFF80
0FFFFFC0
0FFC1FE0
0FE007F0
0FC003F0
0FC001F8
0FC001F8
0FC000F8
0FC000FC
0FC000FC
0FC000FC
0FC000FC
0FC000FC
0FC000FC
0FC000FC
0FC000FC
0FC000FC
0FC000F8
0FC001F8
0FC001F8
0FC003F0
0FC007F0
0FC01FE0
0FFFFFC0
0FFFFF80
0FFFFF00
03FFFC00
000F8000
ENDCHAR
STARTCHAR 0181
ENCODING 385
SWIDTH 738 0
DWIDTH 41 0
BBX 37 39 1 0
BITMAP
003FFF8000
07FFFFF800
1FFFFFFE00
3FFFFFFF80
7FFFFFFFC0
FE7E003FE0
F87E000FE0
F87E0007E0
F87E0003F0
F07E0003F0
F07E0003F0
C07E0003F0
007E0003F0
007E0003E0
007E0007E0
007E001FC0
007E00FF80
007FFFFF00
007FFFFC00
007FFFFF80
007FFFFFC0
007E003FE0
007E0007F0
007E0003F8
007E0001F8
007E0000F8
007E0000F8
007E0000F8
007E0000F8
007E0000F8
007E0001F8
007E0001F8
007E0003F8
007E000FF0
007E007FE0
007FFFFFC0
007FFFFF80
007FFFFE00
003FFFF000
ENDCHAR
STARTCHAR 0182
ENCODING 386
SWIDTH 612 0
DWIDTH 34 0
BBX 27 39 5 0
BITMAP
FFFFFF00
FFFFFF00
FFFFFF00
FFFFFF00
FFFFFF00
F8000000
F8000000
F8000000
F8000000
F8000000
F8000000
F8000000
F8000000
F8000000
F8000000
FFFF8000
FFFFF000
FFFFFC00
FFFFFF00
F80FFF80
F8007F80
F8001FC0
F8000FC0
F80007E0
F80007E0
F80007E0
F80007E0
F80007E0
F80007E0
F80007E0
F80007E0
F8000FC0
F8001FC0
F8003FC0
F807FF80
FFFFFF00
FFFFFC00
FFFFF800
FFFFC000
ENDCHAR
STARTCHAR 0183
ENCODING 387
SWIDTH 576 0
DWIDTH 32 0
BBX 26 44 4 -1
BITMAP
FFFFFE00
FFFFFE00
FFFFFE00
FFFFFE00
FFFFFE00
FC000000
FC000000
FC000000
FC000000
FC000000
FC000000
FC000000
FC000000
FC000000
FCFFC000
FFFFF000
FFFFF800
FFFFFC00
FFC1FE00
FE007F00
FC003F00
FC001F80
FC001F80
FC000F80
FC000FC0
FC000FC0
FC000FC0
FC000FC0
FC000FC0
FC000FC0
FC000FC0
FC000FC0
FC000FC0
FC000F80
FC001F80
FC001F80
FC003F00
FC007F00
FC01FE00
FFFFFC00
FFFFF800
FFFFF000
3FFFC000
00F80000
ENDCHAR
STARTCHAR 0184
ENCODING 388
SWIDTH 576 0
DWIDTH 32 0
BBX 29 44 1 -1
BITMAP
01800000
0F800000
3F800000
FF800000
FF800000
7F800000
3F800000
1F800000
1F800000
1F800000
1F800000
1F800000
1F800000
1F818000
1FBFF800
1FFFFE00
1FFFFF00
1FFFFF80
1FF03FC0
1FC00FE0
1F8007E0
1F8003F0
1F8003F0
1F8001F0
1F8001F8
1F8001F8
1F8001F8
1F8001F8
1F8001F8
1F8001F8
1F8001F8
1F8001F8
1F8001F8
1F8001F0
1F8003F0
1F8003F0
1F8007E0
1F800FE0
1F803FC0
1FFFFF80
1FFFFF00
1FFFFE00
07FFF800
001F0000
ENDCHAR
STARTCHAR 0185
ENCODING 389
SWIDTH 612 0
DWIDTH 34 0
BBX 30 39 2 0
BITMAP
01000000
0F000000
3F000000
FF000000
FF000000
7F000000
7F000000
3F000000
1F000000
1F000000
1F000000
1F000000
1F000000
1F000000
1FFF8000
1FFFFC00
1FFFFF00
1FFFFFC0
1FFFFFE0
1F003FF0
1F0007F8
1F0001F8
1F0001FC
1F0000FC
1F0000FC
1F00007C
1F00007C
1F00007C
1F00007C
1F0000FC
1F0000FC
1F0001FC
1F0003F8
1F0007F8
1F80FFF0
1FFFFFE0
1FFFFFC0
1FFFFF00
1FFFF800
ENDCHAR
STARTCHAR 0186
ENCODING 390
SWIDTH 612 0
DWIDTH 34 0
BBX 29 40 2 -1
BITMAP
0FFF8000
7FFFF000
FFFFF800
FFFFFE00
FE0FFF00
6000FF80
00003F80
00001FC0
00000FE0
000007E0
000003F0
000003F0
000003F0
000001F8
000001F8
000001F8
000001F8
000001F8
000001F8
000001F8
000001F8
000001F8
000001F8
000001F8
000001F8
000001F8
000003F0
000003F0
000003F0
000007E0
00000FE0
00000FC0
00001FC0
40007F80
F801FF00
FFFFFE00
FFFFFC00
FFFFF000
3FFFC000
01FE0000
ENDCHAR
STARTCHAR 0187
ENCODING 391
SWIDTH 648 0
DWIDTH 36 0
BBX 37 45 3 -1
BITMAP
00000000E0
0000000FF8
0000001FF0
0000003FF0
0000003FF0
0007FF7E00
003FFFFC00
00FFFFF800
01FFFFF800
03FF87F800
07F8003800
0FF0000000
0FC0000000
1F80000000
3F80000000
3F00000000
3F00000000
7E00000000
7E00000000
7E00000000
7C00000000
FC00000000
FC00000000
FC00000000
FC00000000
FC00000000
FC00000000
FC00000000
FC00000000
7C00000000
7E00000000
7E00000000
7E00000000
3F00000000
3F00000000
3F80000000
1FC0000000
0FE0000000
0FF0001800
07FE00F800
03FFFFF800
01FFFFFC00
007FFFFC00
001FFFF000
0003FE0000
ENDCHAR
STARTCHAR 0188
ENCODING 392
SWIDTH 504 0
DWIDTH 28 0
BBX 28 36 3 -1
BITMAP
000007F0
00001FF0
00001FF0
00003FE0
00007E00
00077C00
00FFF800
03FFF800
07FFF800
0FFFF800
1FE03000
3F800000
3F000000
7E000000
7C000000
FC000000
FC000000
F8000000
F8000000
F8000000
F8000000
F8000000
F8000000
F8000000
FC000000
FC000000
7C000000
7E000000
7F000000
3F800000
1FE01800
1FFFF800
0FFFF800
03FFFC00
00FFF800
000F8000
ENDCHAR
STARTCHAR 0189
ENCODING 393
SWIDTH 720 0
DWIDTH 40 0
BBX 36 39 1 0
BITMAP
00FFF00000
0FFFFF0000
0FFFFFC000
0FFFFFF000
0FFFFFFC00
0FC007FE00
0FC001FF00
0FC0007F80
0FC0003F80
0FC0001FC0
0FC0000FC0
0FC00007E0
0FC00007E0
0FC00007E0
0FC00003F0
0FC00003F0
0FC00003F0
FFFF8003F0
FFFF8003F0
FFFF8003F0
FFFF8003F0
0FC00003F0
0FC00003F0
0FC00003F0
0FC00003F0
0FC00003E0
0FC00007E0
0FC00007E0
0FC0000FE0
0FC0000FC0
0FC0001FC0
0FC0003F80
0FC000FF00
0FC003FE00
0FE07FFC00
0FFFFFF800
0FFFFFE000
0FFFFF8000
07FFFC0000
ENDCHAR
STARTCHAR 018A
ENCODING 394
SWIDTH 810 0
DWIDTH 45 0
BBX 41 39 1 0
BITMAP
007FFF800000
07FFFFF80000
1FFFFFFE0000
3FFFFFFF8000
7FFFFFFFE000
FE7E003FF000
F87E000FF800
F87E0003F800
F07E0001FC00
F07E0000FE00
F07E00007E00
807E00007F00
007E00003F00
007E00003F00
007E00001F00
007E00001F80
007E00001F80
007E00001F80
007E00001F80
007E00001F80
007E00001F80
007E00001F80
007E00001F80
007E00001F80
007E00001F80
007E00003F00
007E00003F00
007E00003F00
007E00007E00
007E0000FE00
007E0000FC00
007E0001FC00
007E0007F800
007E001FF000
007F03FFE000
007FFFFFC000
007FFFFF0000
007FFFFC0000
003FFFE00000
ENDCHAR
STARTCHAR 018B
ENCODING 395
SWIDTH 612 0
DWIDTH 34 0
BBX 27 39 3 0
BITMAP
1FFFFFE0
1FFFFFE0
1FFFFFE0
1FFFFFE0
1FFFFFE0
000003E0
000003E0
000003E0
000003E0
000003E0
000003E0
000003E0
000003E0
000003E0
000003E0
003FFFE0
03FFFFE0
0FFFFFE0
1FFFFFE0
3FFE03E0
7F8003E0
7F0003E0
FE0003E0
FC0003E0
FC0003E0
F80003E0
F80003E0
F80003E0
F80003E0
FC0003E0
FC0003E0
FE0003E0
7F0003E0
7F8003E0
3FFC03E0
1FFFFFE0
0FFFFFE0
03FFFFE0
007FFFE0
ENDCHAR
STARTCHAR 018C
ENCODING 396
SWIDTH 576 0
DWIDTH 32 0
BBX 25 44 3 -1
BITMAP
1FFFFF80
1FFFFF80
1FFFFF80
1FFFFF80
1FFFFF80
00000F80
00000F80
00000F80
00000F80
00000F80
00000F80
00000F80
00000F80
00000F80
00FFCF80
03FFFF80
07FFFF80
1FFFFF80
1FE0FF80
3F801F80
7F000F80
7E000F80
7C000F80
FC000F80
FC000F80
F8000F80
F8000F80
F8000F80
F8000F80
F8000F80
F8000F80
F8000F80
FC000F80
FC000F80
7C000F80
7E000F80
3F000F80
3F800F80
1FE00F80
0FFFFF80
07FFFF80
03FFFF80
00FFFF00
000FC000
ENDCHAR
STARTCHAR 018D
ENCODING 397
SWIDTH 576 0
DWIDTH 32 0
BBX 26 40 3 -10
BITMAP
001E0000
01FFE000
07FFF800
0FFFFC00
1FFFFE00
3FC07F00
3F003F80
7E001F80
7C000FC0
FC000FC0
FC0007C0
F80007C0
F80007C0
F80007C0
F80007C0
F80007C0
F80007C0
FC0007C0
FC000FC0
7E000F80
7E001F80
3F003F00
1FC07E00
0FE1FC00
07FFF800
03FFF000
01FFC000
007FC000
001FF000
0007F800
0001F800
0000FC00
00007C00
00007C00
0000FC00
1C01F800
1FFFF800
1FFFF000
3FFFE000
0FFF8000
ENDCHAR
STARTCHAR 018E
ENCODING 398
SWIDTH 558 0
DWIDTH 31 0
BBX 25 39 2 0
BITMAP
7FFFFF80
7FFFFF80
7FFFFF80
7FFFFF80
7FFFFF80
00000F80
00000F80
00000F80
00000F80
00000F80
00000F80
00000F80
00000F80
00000F80
00000F80
00000F80
00000F80
1FFFFF80
1FFFFF80
1FFFFF80
1FFFFF80
00000F80
00000F80
00000F80
00000F80
00000F80
00000F80
00000F80
00000F80
00000F80
00000F80
00000F80
00000F80
00000F80
FFFFFF80
FFFFFF80
FFFFFF80
FFFFFF80
FFFFFF80
ENDCHAR
STARTCHAR 018F
ENCODING 399
SWIDTH 702 0
DWIDTH 39 0
BBX 33 40 3 -1
BITMAP
01FFF80000
0FFFFE0000
1FFFFF8000
1FFFFFC000
1FE0FFF000
0E000FF800
000003F800
000001FC00
000000FE00
0000007E00
0000007E00
0000003F00
0000003F00
0000001F00
0000001F00
0000001F80
0000001F80
0000001F80
FFFFFFFF80
FFFFFFFF80
FFFFFFFF80
FFFFFFFF80
FFFFFFFF80
FC00001F80
FC00001F80
FC00001F00
7C00003F00
7C00003F00
7E00003F00
7E00007E00
3F00007E00
3F0000FC00
1F8001FC00
1FC003F800
0FF00FF000
07FFFFE000
03FFFFC000
01FFFF8000
007FFE0000
000FE00000
ENDCHAR
STARTCHAR 0190
ENCODING 400
SWIDTH 558 0
DWIDTH 31 0
BBX 27 40 3 -1
BITMAP
007FFC00
03FFFF80
07FFFFC0
0FFFFF80
1FF83F80
3FC00300
3F000000
3F000000
3E000000
3E000000
3E000000
3E000000
3F000000
3F000000
1FC00000
0FE00000
07FFF800
03FFF800
01FFF800
07FFF800
1FFFF800
3FE00000
3F800000
7E000000
FC000000
FC000000
FC000000
FC000000
FC000000
FC000000
FC000000
FC000000
FE000000
7F0000C0
7FC007C0
3FFFFFE0
1FFFFFE0
07FFFFC0
01FFFF00
001FF000
ENDCHAR
STARTCHAR 0191
ENCODING 401
SWIDTH 522 0
DWIDTH 29 0
BBX 30 49 -2 -10
BITMAP
01FFFFFC
01FFFFFC
01FFFFFC
01FFFFFC
01FFFFFC
01F00000
01F00000
01F00000
01F00000
01F00000
01F00000
01F00000
01F00000
01F00000
01F00000
01F00000
01F00000
01FFFFF0
01FFFFF0
01FFFFF0
01FFFFF0
01F00000
01F00000
01F00000
01F00000
01F00000
01F00000
01F00000
01F00000
01F00000
01F00000
01F00000
01F00000
01F00000
01F00000
01F00000
01F00000
01F00000
01F00000
01F00000
01F00000
01F00000
03F00000
03F00000
03F00000
7FE00000
7FE00000
7FC00000
FF800000
ENDCHAR
STARTCHAR 0192
ENCODING 402
SWIDTH 378 0
DWIDTH 21 0
BBX 26 53 -4 -10
BITMAP
0001FF80
0007FFC0
000FFFC0
001FFF80
003FE380
007F0000
007E0000
007C0000
007C0000
007C0000
00FC0000
00FC0000
00FC0000
00FC0000
00FFFF80
00FFFF80
00FFFF80
00FFFF80
00FC0000
00FC0000
00FC0000
00FC0000
00FC0000
00FC0000
00FC0000
00FC0000
00FC0000
00FC0000
00FC0000
00FC0000
00FC0000
00FC0000
00FC0000
00FC0000
00FC0000
00FC0000
00FC0000
00FC0000
00FC0000
00FC0000
00FC0000
00FC0000
00FC0000
00FC0000
00FC0000
00F80000
00F80000
01F80000
03F80000
7FF00000
7FE00000
FFC00000
FF800000
ENDCHAR
STARTCHAR 0193
ENCODING 403
SWIDTH 666 0
DWIDTH 37 0
BBX 37 45 3 -1
BITMAP
00000000E0
0000000FF8
0000001FF8
0000001FF0
0000003FF0
0007FFBE00
003FFFFC00
00FFFFFC00
01FFFFF800
03FF87F800
07F8003800
0FF0000000
1FC0000000
1F80000000
3F80000000
3F00000000
3F00000000
7E00000000
7E00000000
7E00000000
7C00000000
FC00000000
FC00000000
FC00000000
FC00000000
FC00007E00
FC00007E00
FC00007E00
FC00007E00
7C00007E00
7E00007E00
7E00007E00
7E00007E00
3F00007E00
3F00007E00
3F80007E00
1FC0007E00
0FE0007E00
0FF0007E00
07FE007E00
03FFFFFE00
01FFFFFE00
007FFFFE00
001FFFF800
0001FE0000
ENDCHAR
STARTCHAR 0194
ENCODING 404
SWIDTH 648 0
DWIDTH 36 0
BBX 36 49 0 -10
BITMAP
FC000003F0
7E000003E0
7E000007E0
3E000007C0
3F00000FC0
1F00000F80
1F80001F80
0F80001F00
0FC0003F00
07C0003F00
07E0007E00
07E0007E00
03F0007C00
03F000FC00
01F800F800
01F801F800
00FC01F000
00FC03F000
007E03E000
007E07E000
003F07C000
003F0FC000
001F8F8000
001F9F8000
000FDF0000
000FFF0000
0007FE0000
0003FC0000
0003FC0000
0001F80000
0001F80000
0003FC0000
0003FC0000
0007FE0000
0007FF0000
000F9F0000
000F9F8000
001F0F8000
001E07C000
003E07C000
003E07C000
003E07C000
003E07C000
003E07C000
003F0FC000
001FFF8000
000FFF0000
0007FE0000
0003FC0000
ENDCHAR
STARTCHAR 0195
ENCODING 405
SWIDTH 882 0
DWIDTH 49 0
BBX 41 44 4 -1
BITMAP
3C0000000000
FC0000000000
FC0000000000
FC0000000000
FC0000000000
FC0000000000
FC0000000000
FC0000000000
FC0000000000
FC0000000000
FC0000000000
FC0000000000
FC0000000000
FC0000000000
FFFFC0000F80
FFFFE0000F80
FFFFF0000F80
FFFFF8000F80
FE03FC000F80
FC00FC000F80
FC007E000F80
FC007E000F80
FC003E000F80
FC003E000F80
FC003E000F80
FC003E000F80
FC003E000F80
FC003E000F80
FC003E000F80
FC003E000F80
FC003E000F80
FC003E000F80
FC003E000F80
FC003E000F80
FC003F000F80
FC001F001F80
FC001F801F80
FC001F803F00
FC000FE0FF00
FC000FFFFE00
FC0007FFFC00
FC0003FFF800
FC0000FFF000
0000000E0000
ENDCHAR
STARTCHAR 0196
ENCODING 406
SWIDTH 360 0
DWIDTH 20 0
BBX 15 40 5 -1
BITMAP
F800
F800
F800
F800
F800
F800
F800
F800
F800
F800
F800
F800
F800
F800
F800
F800
F800
F800
F800
F800
F800
F800
F800
F800
F800
F800
F800
F800
F800
F800
F800
F800
FC00
FC00
7F00
7FFE
3FFE
3FFE
0FFE
03F8
ENDCHAR
STARTCHAR 0197
ENCODING 407
SWIDTH 324 0
DWIDTH 18 0
BBX 16 39 1 0
BITMAP
07E0
07E0
07E0
07E0
07E0
07E0
07E0
07E0
07E0
07E0
07E0
07E0
07E0
07E0
07E0
07E0
07E0
FFFF
FFFF
FFFF
FFFF
07E0
07E0
07E0
07E0
07E0
07E0
07E0
07E0
07E0
07E0
07E0
07E0
07E0
07E0
07E0
07E0
07E0
07E0
ENDCHAR
STARTCHAR 0198
ENCODING 408
SWIDTH 648 0
DWIDTH 36 0
BBX 31 39 5 0
BITMAP
F80007F0
F8001FFC
F8003FFE
F8007FFC
F800FF7C
F801FC08
F803F800
F803F000
F807E000
F80FC000
F81F8000
F83F0000
F87E0000
F87E0000
F8FC0000
F9F80000
FBF00000
FFE00000
FFE00000
FFF00000
FFF80000
FBFE0000
F8FF0000
F87F8000
F83FC000
F80FE000
F807F000
F803F800
F801FC00
F800FE00
F8007F00
F8003F80
F8001F80
F8000FC0
F8000FE0
F80007F0
F80003F0
F80001F8
F80001FC
ENDCHAR
STARTCHAR 0199
ENCODING 409
SWIDTH 522 0
DWIDTH 29 0
BBX 24 43 4 0
BITMAP
07F000
1FF000
3FF000
7FF000
7E0000
7C0000
7C0000
7C0000
FC0000
FC0000
FC0000
FC0000
FC0000
FC0000
FC007E
FC00FC
FC01F8
FC03F0
FC07E0
FC0FC0
FC1F80
FC3F00
FC7E00
FCFC00
FDF800
FFF000
FFE000
FFE000
FFF800
FFFC00
FDFE00
FC7F00
FC3F00
FC1F80
FC0FC0
FC07E0
FC07F0
FC03F8
FC01F8
FC00FC
FC007E
FC007E
FC003F
ENDCHAR
STARTCHAR 019A
ENCODING 410
SWIDTH 270 0
DWIDTH 15 0
BBX 14 44 1 -1
BITMAP
0380
0F80
0F80
0F80
0F80
0F80
0F80
0F80
0F80
0F80
0F80
0F80
0F80
0F80
0F80
0F80
0F80
0F80
0F80
FFFC
FFFC
FFFC
FFFC
0F80
0F80
0F80
0F80
0F80
0F80
0F80
0F80
0F80
0F80
0F80
0F80
0F80
0F80
0FC0
0FE0
07FC
07F8
03F8
00F8
0008
ENDCHAR
STARTCHAR 019B
ENCODING 411
SWIDTH 504 0
DWIDTH 28 0
BBX 26 43 1 0
BITMAP
7F000000
7FC00000
7FE00000
7FF00000
03F07800
01FBF800
00FFF800
00FFF000
07FF8000
1FFE0000
1FFE0000
0F3F0000
081F0000
001F8000
001F8000
001F8000
003FC000
003FC000
007FC000
007FE000
00FBE000
00FBF000
01F1F000
01F1F000
03E1F800
03E0F800
07C0F800
07C0FC00
07C07C00
0F807C00
0F807E00
1F803E00
1F003E00
1F003F00
3F001F00
3E001F00
3E001F00
7E001F80
7C000F80
7C000F80
7C000FC0
FC0007C0
F80007C0
ENDCHAR
STARTCHAR 019C
ENCODING 412
SWIDTH 972 0
DWIDTH 54 0
BBX 44 40 5 -1
BITMAP
F8001F8001F0
F8001F8001F0
F8001F8001F0
F8001F8001F0
F8001F8001F0
F8001F8001F0
F8001F8001F0
F8001F8001F0
F8001F8001F0
F8001F8001F0
F8001F8001F0
F8001F8001F0
F8001F8001F0
F8001F8001F0
F8001F8001F0
F8001F8001F0
F8001F8001F0
F8001F8001F0
F8001F8001F0
F8001F8001F0
F8001F8001F0
F8001F8001F0
F8001F8001F0
F8001F8001F0
F8001F8001F0
F8001F8001F0
F8001F8001F0
F8000F8001F0
FC000F8001F0
FC000F8001F0
FC000FC001F0
FC000FC001F0
7E000FC001F0
7F001FE001F0
3F807FF801F0
3FFFFFFFFFF0
1FFFFFFFFFF0
0FFFF8FFFFF0
07FFE07FFFF0
00FE000FF800
ENDCHAR
STARTCHAR 019D
ENCODING 413
SWIDTH 720 0
DWIDTH 40 0
BBX 38 49 -2 -10
BITMAP
01E00000FC
01F00000FC
01F80000FC
01FC0000FC
01FE0000FC
01FE0000FC
01FF0000FC
01FF8000FC
01FFC000FC
01F7E000FC
01F7E000FC
01F3F000FC
01F1F800FC
01F0FC00FC
01F07C00FC
01F07E00FC
01F03F00FC
01F01F80FC
01F00F80FC
01F00FC0FC
01F007E0FC
01F003E0FC
01F003F0FC
01F001F8FC
01F000FCFC
01F000FCFC
01F0007EFC
01F0003EFC
01F0001FFC
01F0001FFC
01F0000FFC
01F00007FC
01F00007FC
01F00003FC
01F00003FC
01F00001FC
01F00000FC
01F00000FC
01F000007C
01F0000000
01F0000000
01F0000000
03F0000000
03F0000000
03F0000000
7FE0000000
7FE0000000
7FC0000000
FF80000000
ENDCHAR
STARTCHAR 019E
ENCODING 414
SWIDTH 558 0
DWIDTH 31 0
BBX 24 39 4 -9
BITMAP
3FFFC0
FFFFF0
FFFFF8
FFFFFC
FC01FC
FC00FE
FC007E
FC003E
FC003E
FC003F
FC003F
FC001F
FC001F
FC001F
FC001F
FC001F
FC001F
FC001F
FC001F
FC001F
FC001F
FC001F
FC001F
FC001F
FC001F
FC001F
FC001F
FC001F
FC001F
00001F
00001F
00001F
00001F
00001F
00001F
00001F
00001F
00001F
00001F
ENDCHAR
STARTCHAR 019F
ENCODING 415
SWIDTH 774 0
DWIDTH 43 0
BBX 37 40 3 -1
BITMAP
0007FF8000
003FFFE000
00FFFFF800
01FFFFFC00
03FF8FFE00
07F800FF00
0FE0003F80
1FC0001FC0
1F80000FC0
3F000007E0
3F000007E0
7E000003F0
7E000003F0
7E000003F0
7C000001F8
FC000001F8
FC000001F8
FFFFFFFFF8
FFFFFFFFF8
FFFFFFFFF8
FFFFFFFFF8
FFFFFFFFF8
FC000001F8
FC000001F8
7C000001F8
7E000001F0
7E000003F0
7E000003F0
3F000007F0
3F000007E0
1F80000FE0
1FC0001FC0
0FE0003F80
07F0007F80
07FC01FF00
03FFFFFE00
00FFFFFC00
007FFFF000
001FFFC000
0001FC0000
ENDCHAR
STARTCHAR 01A0
ENCODING 416
SWIDTH 774 0
DWIDTH 43 0
BBX 37 46 3 -1
BITMAP
00000000F8
00000000F8
00000000F8
00000000F8
00000000F8
00000000F8
0007FF81F0
003FFFE1F0
00FFFFFBE0
01FFFFFFE0
03FF8FFFC0
07F800FF80
0FE0003F80
1FC0001FC0
1F80000FC0
3F800007E0
3F000007E0
7E000003F0
7E000003F0
7E000003F0
7C000001F8
FC000001F8
FC000001F8
FC000001F8
FC000001F8
FC000001F8
FC000001F8
FC000001F8
FC000001F8
FC000001F8
7C000001F8
7E000001F0
7E000003F0
7E000003F0
3F000007F0
3F000007E0
1F80000FE0
1FC0001FC0
0FE0003F80
07F0007F80
07FE01FF00
03FFFFFE00
00FFFFFC00
007FFFF000
001FFFC000
0001FC0000
ENDCHAR
STARTCHAR 01A1
ENCODING 417
SWIDTH 576 0
DWIDTH 32 0
BBX 29 36 3 -1
BITMAP
000000F8
000000F8
000000F8
000000F8
000000F8
000E00F8
00FFE1F0
03FFF9F0
07FFFFE0
0FFFFFE0
1FC0FFC0
3F803F80
3F001F80
7E000FC0
7C000FC0
FC0007C0
FC0007E0
F80007E0
F80007E0
F80003E0
F80003E0
F80003E0
F80007E0
F80007E0
FC0007E0
FC0007C0
7C000FC0
7E000FC0
3F001F80
3F803F80
1FC07F00
0FFFFE00
07FFFC00
03FFF800
00FFE000
001F0000
ENDCHAR
STARTCHAR 01A2
ENCODING 418
SWIDTH 1008 0
DWIDTH 56 0
BBX 49 40 3 -1
BITMAP
000FFE00FFE000
003FFFC3FFF800
00FFFFE7FFFC00
01FFFFFFFFFE00
03FF9FFFF3FE00
07F801FF807F00
0FE0007F003F00
1FC0003F003F80
1F80001F801F80
3F00001F801F80
3F00000FC01F80
7E00000FC01F80
7E000007C01F80
7E000007E00F80
7C000007E00F80
FC000007E00F80
FC000003E00F80
FC000003E00F80
FC000003E00F80
FC000003E00F80
FC000003E00F80
FC000003E00F80
FC000003E00F80
FC000007E00F80
7C000007E00F80
7C000007E00F80
7E000007E00F80
7E00000FC00F80
3F00000FC00F80
3F00000FC00F80
3F80001F800F80
1FC0003F800F80
0FE0007F000F80
0FF000FE000F80
07FC03FC000F80
03FFFFF8000F80
01FFFFF0000F80
007FFFE0000F80
001FFF80000F80
0003F800000000
ENDCHAR
STARTCHAR 01A3
ENCODING 419
SWIDTH 810 0
DWIDTH 45 0
BBX 39 40 3 -10
BITMAP
001E000800
00FFC1FFC0
03FFF7FFE0
07FFFFFFF0
0FFFFFFFF8
1FC0FF83F8
3F803F00FC
3F001F00FC
7E001F807C
7C000F807C
FC000FC07C
FC000FC07C
FC0007C07C
F80007C07C
F80007C07E
F80007C07E
F80007C07E
F80007C07E
F80007C07E
FC000FC07E
FC000FC07E
7C000F807E
7E001F807E
3E001F007E
3F003F007E
1FC0FE007E
0FFFFE007E
07FFFC007E
03FFF0007E
01FFE0007E
003E00007E
000000007E
000000007E
000000007E
000000007E
000000007E
000000007E
000000007E
000000007E
000000007E
ENDCHAR
STARTCHAR 01A4
ENCODING 420
SWIDTH 702 0
DWIDTH 39 0
BBX 37 39 1 0
BITMAP
003FFF8000
07FFFFF800
1FFFFFFE00
3FFFFFFF80
7FFFFFFFC0
FE7E007FC0
F87E000FE0
F87E0007F0
F87E0003F0
F07E0003F0
F07E0001F0
C07E0001F0
007E0001F8
007E0001F0
007E0001F0
007E0003F0
007E0003F0
007E0007F0
007E000FE0
007E007FC0
007FFFFF80
007FFFFF00
007FFFFE00
007FFFF000
007FFE0000
007E000000
007E000000
007E000000
007E000000
007E000000
007E000000
007E000000
007E000000
007E000000
007E000000
007E000000
007E000000
007E000000
007E000000
ENDCHAR
STARTCHAR 01A5
ENCODING 421
SWIDTH 576 0
DWIDTH 32 0
BBX 26 53 4 -10
BITMAP
07F00000
1FF00000
3FF00000
7FF00000
7E000000
7C000000
7C000000
7C000000
FC000000
FC000000
FC000000
FC000000
FC000000
FC000000
FFFF8000
FFFFE000
FFFFF800
FFFFFC00
FF03FE00
FC00FE00
FC003F00
FC001F80
FC001F80
FC000F80
FC000F80
FC000FC0
FC000FC0
FC000FC0
FC000FC0
FC000FC0
FC000FC0
FC000FC0
FC000FC0
FC000F80
FC001F80
FC001F80
FC003F00
FE007F00
FF80FE00
FFFFFC00
FFFFFC00
FFFFF000
FDFFE000
FC3E0000
FC000000
FC000000
FC000000
FC000000
FC000000
FC000000
FC000000
FC000000
FC000000
ENDCHAR
STARTCHAR 01A6
ENCODING 422
SWIDTH 612 0
DWIDTH 34 0
BBX 31 49 5 -6
BITMAP
F8000000
F8000000
F8000000
F8000000
FFFC0000
FFFFE000
FFFFF800
FFFFFE00
FFFFFF00
F800FF80
F8003F80
F8001FC0
F8000FC0
F80007C0
F80007C0
F80007E0
F80007E0
F80007E0
F80007C0
F8000FC0
F8000FC0
F8001F80
F8007F80
FFFFFF00
FFFFFE00
FFFFF800
FFFFE000
FFFFE000
F803F000
F803F800
F801F800
F800FC00
F800FE00
F8007E00
F8003F00
F8003F80
F8001F80
F8000FC0
F8000FC0
F80007E0
F80007E0
F80003F0
F80001F8
000001F8
000000FC
000000FC
0000007E
0000007E
0000003E
ENDCHAR
STARTCHAR 01A7
ENCODING 423
SWIDTH 522 0
DWIDTH 29 0
BBX 26 40 2 -1
BITMAP
07FFC000
3FFFF000
3FFFF800
3FFFFC00
3F83FE00
18007F00
00003F00
00001F80
00001F80
00001F80
00001F80
00001F80
00001F80
00003F00
0000FF00
0001FF00
000FFE00
003FFC00
00FFF800
03FFE000
0FFF8000
1FFC0000
3FE00000
7F800000
7F000000
FE000000
FC000000
FC000000
F8000000
F8000000
F8000000
FC000000
FC000000
FE000300
7F801F80
3FFFFF80
1FFFFFC0
0FFFFF80
03FFFE00
007FC000
ENDCHAR
STARTCHAR 01A8
ENCODING 424
SWIDTH 432 0
DWIDTH 24 0
BBX 20 31 2 -1
BITMAP
00F000
3FFE00
3FFF80
3FFFC0
3FFFE0
1007E0
0003F0
0001F0
0001F0
0001F0
0003F0
0007F0
001FE0
007FC0
03FF80
0FFF00
1FFC00
3FE000
7F8000
7E0000
FC0000
FC0000
F80000
F80000
FC0000
7E0070
7FFFF0
3FFFF0
1FFFF0
07FFE0
00FE00
ENDCHAR
STARTCHAR 01A9
ENCODING 425
SWIDTH 558 0
DWIDTH 31 0
BBX 27 39 2 0
BITMAP
7FFFFFE0
7FFFFFE0
7FFFFFE0
7FFFFFE0
7FFFFFE0
3F000000
1F800000
1F800000
0FC00000
07E00000
03F00000
01F80000
01F80000
00FC0000
007E0000
003F0000
003F8000
001FC000
000FC000
000FC000
001F8000
003F8000
003F0000
007E0000
00FC0000
01F80000
03F00000
07F00000
07E00000
0FC00000
1F800000
3F000000
7F000000
7E000000
FFFFFFE0
FFFFFFE0
FFFFFFE0
FFFFFFE0
FFFFFFE0
ENDCHAR
STARTCHAR 01AA
ENCODING 426
SWIDTH 270 0
DWIDTH 15 0
BBX 21 53 -5 -10
BITMAP
0FF000
1FFC00
3FFC00
7FFE00
F83F00
F01F00
F01F00
F01F00
F01F00
F01F00
F83F00
7FFF00
3FFF00
1FFF00
079F00
001F00
001F00
001F00
001F00
001F00
001F00
001F00
001F00
001F00
001F00
001F00
001F00
001F00
001F00
001F00
001F00
001F00
001F00
001F00
001F00
001F00
001F00
001F00
001F00
001F00
001F00
001F00
001F00
001F00
001F00
001F00
001F80
001F80
000FC0
000FF8
0007F8
0007F0
0001F0
ENDCHAR
STARTCHAR 01AB
ENCODING 427
SWIDTH 396 0
DWIDTH 22 0
BBX 17 48 4 -10
BITMAP
180000
F80000
F80000
F80000
F80000
F80000
F80000
F80000
F80000
FFFF00
FFFF00
FFFF00
FFFF00
F80000
F80000
F80000
F80000
F80000
F80000
F80000
F80000
F80000
F80000
F80000
F80000
F80000
F80000
F80000
F80000
F80000
FC0000
7C0000
7E0000
7F0080
3FFF80
3FFF80
1FFF80
0FFF80
000F80
000F80
000F80
000F80
000F80
001F80
01FF00
03FF00
03FE00
03FC00
ENDCHAR
STARTCHAR 01AC
ENCODING 428
SWIDTH 576 0
DWIDTH 32 0
BBX 31 39 1 0
BITMAP
007FFFFE
0FFFFFFE
1FFFFFFE
3FFFFFFE
7FFFFFFE
FE07E000
FC07E000
F807E000
F807E000
F807E000
F807E000
C007E000
0007E000
0007E000
0007E000
0007E000
0007E000
0007E000
0007E000
0007E000
0007E000
0007E000
0007E000
0007E000
0007E000
0007E000
0007E000
0007E000
0007E000
0007E000
0007E000
0007E000
0007E000
0007E000
0007E000
0007E000
0007E000
0007E000
0007E000
ENDCHAR
STARTCHAR 01AD
ENCODING 429
SWIDTH 396 0
DWIDTH 22 0
BBX 17 44 4 -1
BITMAP
01FF80
07FF80
1FFF80
3FFF80
3FE780
7F0000
7E0000
FC0000
FC0000
F80000
F80000
F80000
F80000
F80000
FFFF80
FFFF80
FFFF80
FFFF80
F80000
F80000
F80000
F80000
F80000
F80000
F80000
F80000
F80000
F80000
F80000
F80000
F80000
F80000
F80000
F80000
F80000
FC0000
FC0000
7E0000
7F0300
7FFF80
3FFF80
1FFF80
0FFF00
007000
ENDCHAR
STARTCHAR 01AE
ENCODING 430
SWIDTH 558 0
DWIDTH 31 0
BBX 30 49 1 -10
BITMAP
FFFFFFFC
FFFFFFFC
FFFFFFFC
FFFFFFFC
FFFFFFFC
000F8000
000F8000
000F8000
000F8000
000F8000
000F8000
000F8000
000F8000
000F8000
000F8000
000F8000
000F8000
000F8000
000F8000
000F8000
000F8000
000F8000
000F8000
000F8000
000F8000
000F8000
000F8000
000F8000
000F8000
000F8000
000F8000
000F8000
000F8000
000F8000
000F8000
000F8000
000F8000
000F8000
000F8000
000F8000
000F8000
000F8000
000FC000
000FC000
0007E000
0007FE00
0007FE00
0003FF00
0000FF00
ENDCHAR
STARTCHAR 01AF
ENCODING 431
SWIDTH 702 0
DWIDTH 39 0
BBX 37 46 4 -1
BITMAP
00000001F8
00000000F8
00000000F8
00000000F8
00000001F8
00000001F0
FC0000FFF0
FC0000FFE0
FC0000FFC0
FC0000FF80
FC0000FC00
FC0000FC00
FC0000FC00
FC0000FC00
FC0000FC00
FC0000FC00
FC0000FC00
FC0000FC00
FC0000FC00
FC0000FC00
FC0000FC00
FC0000FC00
FC0000FC00
FC0000FC00
FC0000FC00
FC0000FC00
FC0000FC00
FC0000FC00
FC0000FC00
FC0000FC00
FC0000FC00
7C0000FC00
7C0000FC00
7C0000FC00
7C0000F800
7E0001F800
7E0001F800
3F0003F800
3F0003F000
1FC007F000
1FF01FE000
0FFFFFC000
07FFFF8000
03FFFF0000
00FFFC0000
001FE00000
ENDCHAR
STARTCHAR 01B0
ENCODING 432
SWIDTH 594 0
DWIDTH 33 0
BBX 30 36 4 -1
BITMAP
0000007C
0000007C
0000007C
0000007C
0000007C
000000FC
F8003FF8
F8003FF8
F8003FE0
F8003F80
F8003E00
F8003E00
F8003E00
F8003E00
F8003E00
F8003E00
F8003E00
F8003E00
F8003E00
F8003E00
F8003E00
F8003E00
F8003E00
F8003E00
F8003E00
FC003E00
FC003E00
7C003E00
7E003E00
7F003E00
3F803E00
3FFFFE00
1FFFFE00
0FFFFE00
03FFFC00
001E0000
ENDCHAR
STARTCHAR 01B1
ENCODING 433
SWIDTH 774 0
DWIDTH 43 0
BBX 38 40 3 -1
BITMAP
FFFE01FFFC
FFFE01FFFC
FFFE01FFFC
FFFE01FFFC
FFFC01FFFC
01F800FC00
03F0007E00
03E0003F00
07E0001F80
0FC0000F80
0F80000FC0
1F800007C0
1F000007E0
3F000003E0
3E000003F0
3E000003F0
7E000001F0
7E000001F0
7E000001F8
7E000001F8
7C000001F8
7C000001F8
7C000001F8
7E000001F8
7E000001F8
7E000001F0
7E000003F0
3F000003F0
3F000003F0
3F000007E0
1F80000FE0
1FC0000FC0
0FE0001FC0
07F0007F80
03FC01FF00
01FFFFFE00
00FFFFFC00
007FFFF000
001FFFC000
0001FE0000
ENDCHAR
STARTCHAR 01B2
ENCODING 434
SWIDTH 684 0
DWIDTH 38 0
BBX 31 40 4 -1
BITMAP
FC01F000
FC01FF00
FC01FF80
FC01FFE0
FC01FFE0
FC000FF0
FC0003F8
FC0001F8
FC0001F8
FC0000FC
FC0000FC
FC00007C
FC00007C
FC00007E
FC00007E
FC00007E
FC00007E
FC00007E
FC00007E
FC00007E
FC00007E
FC00007E
FC00007E
FC00007E
FC00007E
7C00007C
7C00007C
7C0000FC
7C0000FC
7E0000F8
7E0001F8
3F0003F0
3F0003F0
3FC00FE0
1FE03FE0
0FFFFFC0
07FFFF80
03FFFE00
00FFFC00
001FE000
ENDCHAR
STARTCHAR 01B3
ENCODING 435
SWIDTH 666 0
DWIDTH 37 0
BBX 38 39 0 0
BITMAP
FE00000FC0
7E00001FF0
7F00003FFC
3F00007FFC
1F8000FFF8
1F8000F830
0FC001F800
0FC001F000
07E003E000
07E003E000
03F007C000
01F007C000
01F80F8000
00FC1F8000
00FC1F0000
007E3F0000
007E3E0000
003F7E0000
001FFC0000
001FF80000
000FF80000
0007F00000
0007F00000
0003E00000
0003E00000
0003E00000
0003E00000
0003E00000
0003E00000
0003E00000
0003E00000
0003E00000
0003E00000
0003E00000
0003E00000
0003E00000
0003E00000
0003E00000
0003E00000
ENDCHAR
STARTCHAR 01B4
ENCODING 436
SWIDTH 558 0
DWIDTH 31 0
BBX 32 40 0 -10
BITMAP
00000070
7E0001FF
7E0003FE
3E0007FE
3E000FFE
3F000FC0
3F000F80
1F001F00
1F801F00
1F801F00
0F801F00
0FC03E00
0FC03E00
07C03E00
07E03E00
03E07C00
03E07C00
03F07C00
01F07800
01F0F800
00F8F800
00F8F000
007DF000
007DF000
007FE000
003FE000
003FE000
001FC000
001FC000
000F8000
000F8000
000F8000
001F0000
001F0000
003E0000
40FC0000
7FFC0000
7FF80000
FFE00000
FFC00000
ENDCHAR
STARTCHAR 01B5
ENCODING 437
SWIDTH 558 0
DWIDTH 31 0
BBX 28 39 2 0
BITMAP
7FFFFFE0
7FFFFFE0
7FFFFFE0
7FFFFFE0
7FFFFFE0
00000FE0
00001FC0
00001F80
00003F00
00007E00
0000FC00
0001FC00
0001F800
0003F000
0007E000
0007E000
000FC000
3FFFFFC0
3FFFFFC0
3FFFFFC0
3FFFFFC0
00FC0000
00FC0000
01F80000
03F00000
03F00000
07E00000
0FC00000
0FC00000
1F800000
1F000000
3F000000
7E000000
7E000000
FFFFFFF0
FFFFFFF0
FFFFFFF0
FFFFFFF0
FFFFFFF0
ENDCHAR
STARTCHAR 01B6
ENCODING 438
SWIDTH 468 0
DWIDTH 26 0
BBX 22 29 2 0
BITMAP
7FFFFC
7FFFFC
7FFFFC
7FFFFC
0001F8
0003F0
0007E0
0007C0
000FC0
001F80
003F00
003E00
3FFFF8
3FFFF8
3FFFF8
3FFFF8
03E000
07E000
0FC000
0F8000
1F8000
3F0000
3E0000
7E0000
7C0000
FFFFFC
FFFFFC
FFFFFC
FFFFFC
ENDCHAR
STARTCHAR 01B7
ENCODING 439
SWIDTH 558 0
DWIDTH 31 0
BBX 27 40 2 -1
BITMAP
7FFFFFC0
7FFFFFC0
7FFFFFC0
7FFFFFC0
7FFFFF80
00001F80
00003F00
00007E00
0000FC00
0001F800
0003F000
0003E000
0007E000
000FC000
001F8000
003F0000
007E0000
00FFC000
00FFF800
00FFFC00
00FFFF00
0000FF80
00003F80
00001FC0
00000FC0
000007C0
000007E0
000007E0
000007E0
000007E0
000007E0
00000FC0
00000FC0
60003FC0
FC00FF80
FFFFFF00
FFFFFE00
FFFFFC00
1FFFF000
01FE0000
ENDCHAR
STARTCHAR 01B8
ENCODING 440
SWIDTH 558 0
DWIDTH 31 0
BBX 27 40 3 -1
BITMAP
7FFFFF80
7FFFFF80
7FFFFF80
7FFFFF80
7FFFFF80
3F000000
1F800000
0FC00000
0FC00000
07E00000
03F00000
01F80000
00FC0000
007E0000
003F0000
001F8000
000FC000
007FC000
03FFC000
0FFFC000
1FFFC000
3FC00000
7F000000
7E000000
FC000000
FC000000
FC000000
F8000000
F8000000
FC000000
FC000000
FC000000
FE000000
7F0000C0
3FC007C0
3FFFFFE0
1FFFFFE0
07FFFFC0
01FFFF00
001FF000
ENDCHAR
STARTCHAR 01B9
ENCODING 441
SWIDTH 468 0
DWIDTH 26 0
BBX 24 39 2 -10
BITMAP
7FFFFE
7FFFFE
7FFFFE
3FFFFE
3F0000
1F8000
0F8000
0FC000
07E000
03F000
01F000
01F800
00FC00
007E00
003F00
001F00
001F80
01FFC0
07FFC0
1FFFC0
3FF000
3F8000
7E0000
7E0000
FC0000
FC0000
FC0000
FC0000
FC0000
FC0000
7C0000
7E0000
7F0000
3F8002
3FF03F
1FFFFF
0FFFFF
03FFFF
007FFC
ENDCHAR
STARTCHAR 01BA
ENCODING 442
SWIDTH 468 0
DWIDTH 26 0
BBX 24 39 0 -11
BITMAP
7FFFFE
7FFFFE
7FFFFE
7FFFFE
0000FC
0001F8
0001F0
0003E0
0007C0
000F80
001F00
007E00
00FC00
00FC00
00FFC0
00FFF0
00FFFC
0003FC
00007E
00003E
00003F
00003F
00003F
00003F
00003F
00007E
0001FE
000FFC
00FFF8
07FFF0
1FFFC0
3FFC00
7FC000
7E0000
FC0000
F80000
F80000
780000
780000
ENDCHAR
STARTCHAR 01BB
ENCODING 443
SWIDTH 540 0
DWIDTH 30 0
BBX 25 39 2 0
BITMAP
03FF8000
0FFFE000
3FFFF800
7FFFFC00
FFC7FC00
7C00FE00
30007E00
00007E00
00003E00
00003F00
00003F00
00003E00
00003E00
00007E00
00007C00
0000FC00
0001F800
0001F800
0003F000
1FFFFF00
1FFFFF00
1FFFFF00
1FFFFF00
007E0000
00FC0000
01F80000
03F00000
07E00000
0FC00000
0FC00000
1F800000
3F000000
3E000000
3E000000
7FFFFF80
7FFFFF80
7FFFFF80
7FFFFF80
7FFFFF80
ENDCHAR
STARTCHAR 01BC
ENCODING 444
SWIDTH 522 0
DWIDTH 29 0
BBX 27 40 1 -1
BITMAP
FFFFFFC0
FFFFFFC0
FFFFFFC0
FFFFFFC0
FFFFFFC0
03E00000
03E00000
03E00000
03E00000
03C00000
07C00000
07C00000
07C00000
07C00000
07C00000
07F00000
07FFC000
07FFF000
07FFFC00
07FFFE00
0003FF00
00007F80
00001FC0
00000FC0
00000FE0
000007E0
000007E0
000007E0
000007E0
000007E0
000007E0
000007E0
00000FC0
00001FC0
1C007F80
3FFFFF80
3FFFFE00
3FFFFC00
0FFFF000
00FF8000
ENDCHAR
STARTCHAR 01BD
ENCODING 445
SWIDTH 486 0
DWIDTH 27 0
BBX 23 30 2 -1
BITMAP
FFFFFC
FFFFFC
FFFFFC
FFFFFC
0F8000
0F0000
0F0000
0F0000
0F0000
0F0000
0F0000
1FFC00
1FFFC0
1FFFF0
1FFFF8
0007FC
0000FC
00007E
00003E
00003E
00003E
00003E
00003E
00007E
7001FC
7FFFFC
7FFFF8
7FFFE0
3FFFC0
00F800
ENDCHAR
STARTCHAR 01BE
ENCODING 446
SWIDTH 450 0
DWIDTH 25 0
BBX 21 39 3 -1
BITMAP
0C0000
7C0000
7C0000
7C0000
7C0000
7C0000
7C0000
7C0000
7C0000
7FFF80
7FFF80
7FFF80
7FFF80
7C0000
7C0000
7C0000
7C0000
7E0000
7E0000
3F0000
3FC000
1FF000
0FFC00
07FF00
01FFC0
003FE0
000FF0
0007F0
0001F0
0001F8
0001F8
0001F8
0001F0
E003F0
FFFFF0
FFFFE0
FFFFC0
7FFF00
07F000
ENDCHAR
STARTCHAR 01BF
ENCODING 447
SWIDTH 558 0
DWIDTH 31 0
BBX 25 40 4 -10
BITMAP
00100000
0FFF8000
7FFFE000
FFFFF800
FFFFFC00
FF03FE00
FC00FE00
FC003F00
FC003F00
FC001F00
FC001F80
FC001F80
FC000F80
FC000F80
FC001F80
FC001F80
FC001F80
FC001F80
FC001F00
FC003F00
FC003F00
FC007E00
FC00FE00
FC01FC00
FC03F800
FC0FF000
FC3FE000
FDFFC000
FFFF0000
FFFE0000
FFF00000
FFC00000
FE000000
FC000000
FC000000
FC000000
FC000000
FC000000
FC000000
FC000000
ENDCHAR
STARTCHAR 01C0
ENCODING 448
SWIDTH 270 0
DWIDTH 15 0
BBX 5 54 5 -10
BITMAP
F8
F8
F8
F8
F8
F8
F8
F8
F8
F8
F8
F8
F8
F8
F8
F8
F8
F8
F8
F8
F8
F8
F8
F8
F8
F8
F8
F8
F8
F8
F8
F8
F8
F8
F8
F8
F8
F8
F8
F8
F8
F8
F8
F8
F8
F8
F8
F8
F8
F8
F8
F8
F8
F8
ENDCHAR
STARTCHAR 01C1
ENCODING 449
SWIDTH 468 0
DWIDTH 26 0
BBX 17 54 5 -10
BITMAP
F80F80
F80F80
F80F80
F80F80
F80F80
F80F80
F80F80
F80F80
F80F80
F80F80
F80F80
F80F80
F80F80
F80F80
F80F80
F80F80
F80F80
F80F80
F80F80
F80F80
F80F80
F80F80
F80F80
F80F80
F80F80
F80F80
F80F80
F80F80
F80F80
F80F80
F80F80
F80F80
F80F80
F80F80
F80F80
F80F80
F80F80
F80F80
F80F80
F80F80
F80F80
F80F80
F80F80
F80F80
F80F80
F80F80
F80F80
F80F80
F80F80
F80F80
F80F80
F80F80
F80F80
F80F80
ENDCHAR
STARTCHAR 01C2
ENCODING 450
SWIDTH 558 0
DWIDTH 31 0
BBX 27 54 2 -10
BITMAP
001F0000
001F0000
001F0000
001F0000
001F0000
001F0000
001F0000
001F0000
001F0000
001F0000
001F0000
001F0000
001F0000
001F0000
001F0000
001F0000
001F0000
001F0000
001F0000
001F0000
FFFFFFE0
FFFFFFE0
FFFFFFE0
FFFFFFE0
001F0000
001F0000
001F0000
001F0000
001F0000
001F0000
FFFFFFE0
FFFFFFE0
FFFFFFE0
FFFFFFE0
FFFFFFE0
001F0000
001F0000
001F0000
001F0000
001F0000
001F0000
001F0000
001F0000
001F0000
001F0000
001F0000
001F0000
001F0000
001F0000
001F0000
001F0000
001F0000
001F0000
001F0000
ENDCHAR
STARTCHAR 01C3
ENCODING 451
SWIDTH 270 0
DWIDTH 15 0
BBX 7 40 4 -1
BITMAP
7C
7C
7C
7C
7C
7C
7C
7C
7C
7C
7C
7C
7C
7C
7C
7C
7C
7C
7C
7C
7C
7C
3C
3C
3C
38
38
00
00
00
00
00
38
7C
FE
FE
FE
FE
7C
38
ENDCHAR
STARTCHAR 01C4
ENCODING 452
SWIDTH 1278 0
DWIDTH 71 0
BBX 65 52 5 0
BITMAP
000000000000008000
000000000006018000
00000000000F03C000
00000000000F87C000
000000000007CF8000
000000000003FF0000
000000000001FE0000
000000000000FC0000
000000000000780000
000000000000300000
000000000000000000
000000000000000000
000000000000000000
1FFE000003FFFFFF00
FFFFE00003FFFFFF00
FFFFFC0003FFFFFF00
FFFFFF0003FFFFFF00
FFFFFF8003FFFFFF00
F800FFC00000007E00
F8001FE0000000FE00
F8000FF0000001FC00
F80003F8000001F800
F80001F8000003F000
F80001FC000007E000
F80000FC00000FC000
F80000FC00000FC000
F800007E00001F8000
F800007E00003F0000
F800007E00007E0000
F800007E00007E0000
F800003E0000FC0000
F800003E0001F80000
F800003E0001F80000
F800003E0003F00000
F800003E0007E00000
F800007E000FC00000
F800007E000FC00000
F800007E001F800000
F800007E001F000000
F800007E003F000000
F80000FC007E000000
F80000FC007C000000
F80001F800FC000000
F80003F801F8000000
F80007F001F8000000
F8000FE003F0000000
F8003FE003E0000000
FC0FFF8007FFFFFF80
FFFFFF0007FFFFFF80
FFFFFE0007FFFFFF80
FFFFF80007FFFFFF80
FFFF800007FFFFFF80
ENDCHAR
STARTCHAR 01C5
ENCODING 453
SWIDTH 1188 0
DWIDTH 66 0
BBX 59 43 5 0
BITMAP
0000000000200000
0000000000701C00
0000000000F83E00
00000000007C7C00
1FFE0000003EF800
FFFFE000001FF000
FFFFFC00000FE000
FFFFFF000007C000
FFFFFF800003C000
F800FFC000018000
F8001FE000000000
F8000FF000000000
F80003F800000000
F80001F800000000
F80001FC03FFFFC0
F80000FC03FFFFC0
F80000FC03FFFFC0
F800007E03FFFFC0
F800007E00000FC0
F800007E00001F80
F800007E00003F00
F800003E00007E00
F800003E00007E00
F800003E0000FC00
F800003E0001F800
F800003E0003F000
F800007E0003E000
F800007E0007E000
F800007E000FC000
F800007E001F8000
F800007E001F0000
F80000FC003F0000
F80000FC007E0000
F80001F8007C0000
F80003F800FC0000
F80007F001F80000
F8000FE001F00000
F8003FE003F00000
FC0FFF8007E00000
FFFFFF0007FFFFE0
FFFFFE0007FFFFE0
FFFFF80007FFFFE0
FFFF800007FFFFE0
ENDCHAR
STARTCHAR 01C6
ENCODING 454
SWIDTH 1062 0
DWIDTH 59 0
BBX 54 44 3 -1
BITMAP
00000380040080
00000F800E0180
00000F801F07C0
00000F800F8F80
00000F8007DF00
00000F8003FF00
00000F8001FE00
00000F8000FC00
00000F80007800
00000F80003000
00000F80000000
00000F80000000
00000F80000000
000C0F80000000
01FFCF807FFFFC
03FFFF807FFFFC
0FFFFF807FFFFC
1FFFFF807FFFFC
1FC07F800001F8
3F801F800003F0
7F000F800007E0
7E000F80000FE0
7C000F80000FC0
FC000F80001F80
FC000F80003F00
F8000F80007E00
F8000F80007E00
F8000F8000FC00
F8000F8001F800
F8000F8003F000
F8000F8003F000
F8000F8007E000
FC000F800FC000
FC000F800F8000
7C000F801F8000
7E000F803F0000
3F000F803E0000
3F800F807E0000
1FE00F807C0000
0FFFFF80FFFFFC
07FFFF80FFFFFC
03FFFF80FFFFFC
00FFFF00FFFFFC
000FC000000000
ENDCHAR
STARTCHAR 01C7
ENCODING 455
SWIDTH 1008 0
DWIDTH 56 0
BBX 47 40 5 -1
BITMAP
F8000000003E
F8000000003E
F8000000003E
F8000000003E
F8000000003E
F8000000003E
F8000000003E
F8000000003E
F8000000003E
F8000000003E
F8000000003E
F8000000003E
F8000000003E
F8000000003E
F8000000003E
F8000000003E
F8000000003E
F8000000003E
F8000000003E
F8000000003E
F8000000003E
F8000000003E
F8000000003E
F8000000003E
F8000000003E
F8000000003E
F8000000003E
F8000000003E
F8000000003E
F8000000003E
F8000000007E
F8000000007E
F8000000007E
F800003000FC
FFFFFE3C03FC
FFFFFE7FFFF8
FFFFFE7FFFF0
FFFFFE3FFFE0
FFFFFE0FFF80
00000001FC00
ENDCHAR
STARTCHAR 01C8
ENCODING 456
SWIDTH 774 0
DWIDTH 43 0
BBX 34 51 5 -10
BITMAP
0000000780
0000000FC0
F800000FC0
F800000FC0
F800000FC0
F800000FC0
F800000780
F800000000
F800000000
F800000000
F800000000
F800000000
F800000FC0
F800000FC0
F800000FC0
F800000FC0
F800000FC0
F800000FC0
F800000FC0
F800000FC0
F800000FC0
F800000FC0
F800000FC0
F800000FC0
F800000FC0
F800000FC0
F800000FC0
F800000FC0
F800000FC0
F800000FC0
F800000FC0
F800000FC0
F800000FC0
F800000FC0
F800000FC0
F800000FC0
FFFFFE0FC0
FFFFFE0FC0
FFFFFE0FC0
FFFFFE0FC0
FFFFFE0FC0
0000000FC0
0000000FC0
0000000F80
0000000F80
0000001F80
0000003F80
000007FF00
000007FE00
00000FFC00
00000FF800
ENDCHAR
STARTCHAR 01C9
ENCODING 457
SWIDTH 522 0
DWIDTH 29 0
BBX 22 53 4 -10
BITMAP
3C0000
FC0000
FC0070
FC00F8
FC01FC
FC01FC
FC01FC
FC00F8
FC0070
FC0000
FC0000
FC0000
FC0000
FC0000
FC00F8
FC00F8
FC00F8
FC00F8
FC00F8
FC00F8
FC00F8
FC00F8
FC00F8
FC00F8
FC00F8
FC00F8
FC00F8
FC00F8
FC00F8
FC00F8
FC00F8
FC00F8
FC00F8
FC00F8
FC00F8
FC00F8
FC00F8
FC00F8
7E00F8
7FC0F8
3FC0F8
3F80F8
0F80F8
0080F8
0000F8
0001F8
0001F8
0001F0
0007F0
00FFE0
00FFE0
00FFC0
00FF00
ENDCHAR
STARTCHAR 01CA
ENCODING 458
SWIDTH 1224 0
DWIDTH 68 0
BBX 59 40 5 -1
BITMAP
F000007E000003E0
F800007E000003E0
FC00007E000003E0
FE00007E000003E0
FF00007E000003E0
FF00007E000003E0
FF80007E000003E0
FFC0007E000003E0
FFE0007E000003E0
FBF0007E000003E0
FBF0007E000003E0
F9F8007E000003E0
F8FC007E000003E0
F87E007E000003E0
F83E007E000003E0
F83F007E000003E0
F81F807E000003E0
F80FC07E000003E0
F807C07E000003E0
F807E07E000003E0
F803F07E000003E0
F801F07E000003E0
F801F87E000003E0
F800FC7E000003E0
F8007E7E000003E0
F8007E7E000003E0
F8003F7E000003E0
F8001F7E000007E0
F8000FFE000007E0
F8000FFE000007E0
F80007FE000007E0
F80003FE000007C0
F80003FE00000FC0
F80001FE03001FC0
F80001FE07C03F80
F80000FE07FFFF80
F800007E0FFFFF00
F800007E07FFFE00
F800003E01FFF800
00000000001FC000
ENDCHAR
STARTCHAR 01CB
ENCODING 459
SWIDTH 972 0
DWIDTH 54 0
BBX 46 51 5 -10
BITMAP
000000000070
0000000000F8
F000007E01FC
F800007E01FC
FC00007E01FC
FE00007E00F8
FF00007E0070
FF00007E0000
FF80007E0000
FFC0007E0000
FFE0007E0000
FBF0007E0000
FBF0007E00F8
F9F8007E00F8
F8FC007E00F8
F87E007E00F8
F83E007E00F8
F83F007E00F8
F81F807E00F8
F80FC07E00F8
F807C07E00F8
F807E07E00F8
F803F07E00F8
F801F07E00F8
F801F87E00F8
F800FC7E00F8
F8007E7E00F8
F8007E7E00F8
F8003F7E00F8
F8001F7E00F8
F8000FFE00F8
F8000FFE00F8
F80007FE00F8
F80003FE00F8
F80003FE00F8
F80001FE00F8
F80001FE00F8
F80000FE00F8
F800007E00F8
F800007E00F8
F800003E00F8
0000000000F8
0000000000F8
0000000000F8
0000000001F8
0000000001F8
0000000003F0
00000000FFF0
00000000FFE0
00000000FFC0
00000000FF00
ENDCHAR
STARTCHAR 01CC
ENCODING 460
SWIDTH 828 0
DWIDTH 46 0
BBX 38 51 4 -10
BITMAP
0000000078
00000000FC
00000000FC
00000000FC
00000000FC
00000000FC
0000000078
0000000000
0000000000
0000000000
0000000000
0000000000
3FFFC0007C
FFFFF0007C
FFFFF8007C
FFFFFC007C
FC01FC007C
FC00FE007C
FC007E007C
FC003E007C
FC003E007C
FC003F007C
FC003F007C
FC001F007C
FC001F007C
FC001F007C
FC001F007C
FC001F007C
FC001F007C
FC001F007C
FC001F007C
FC001F007C
FC001F007C
FC001F007C
FC001F007C
FC001F007C
FC001F007C
FC001F007C
FC001F007C
FC001F007C
FC001F007C
00000000FC
00000000FC
00000000F8
00000000F8
00000001F8
00000003F8
0000007FF0
0000007FE0
0000007FC0
000000FF80
ENDCHAR
STARTCHAR 01CD
ENCODING 461
SWIDTH 648 0
DWIDTH 36 0
BBX 35 51 1 1
BITMAP
0018030000
003C0F8000
003E1F0000
001FBE0000
000FFC0000
0007F80000
0003F80000
0001F00000
0000E00000
0000400000
0000000000
0000000000
0001F00000
0003F00000
0003F80000
0003F80000
0007FC0000
0007FC0000
000FFE0000
000FBE0000
001F3F0000
001F3F0000
003F1F0000
003E1F8000
003E0F8000
007C0FC000
007C07C000
00FC07C000
00F807E000
00F803E000
01F003F000
01F003F000
03F001F000
03E001F800
03E000F800
07E000FC00
07C000FC00
0FFFFFFC00
0FFFFFFE00
0FFFFFFE00
1FFFFFFF00
1F00003F00
1F00003F00
3F00001F80
3E00001F80
7E00001F80
7E00000FC0
7C00000FC0
FC000007C0
FC000007E0
F8000007E0
ENDCHAR
STARTCHAR 01CE
ENCODING 462
SWIDTH 522 0
DWIDTH 29 0
BBX 23 44 2 -1
BITMAP
010040
0380E0
07C1F0
03E3E0
01F7C0
00FF80
007F00
003E00
001C00
000800
000000
000000
000000
003800
0FFFC0
0FFFE0
0FFFF8
0FFFF8
0801FC
0000FC
00007C
00007E
00003E
00003E
00003E
001C3E
03FFFE
0FFFFE
1FFFFE
3FFFFE
7F003E
7E003E
7C003E
FC003E
FC003E
FC003E
7C003E
7E003E
7F003E
3FFFFE
3FFFFE
1FFFFE
07FFFE
003C00
ENDCHAR
STARTCHAR 01CF
ENCODING 463
SWIDTH 252 0
DWIDTH 14 0
BBX 15 51 0 1
BITMAP
600C
F81E
7C7C
3EFC
1FF8
0FF0
0FE0
07C0
0380
0100
0000
0000
07C0
07C0
07C0
07C0
07C0
07C0
07C0
07C0
07C0
07C0
07C0
07C0
07C0
07C0
07C0
07C0
07C0
07C0
07C0
07C0
07C0
07C0
07C0
07C0
07C0
07C0
07C0
07C0
07C0
07C0
07C0
07C0
07C0
07C0
07C0
07C0
07C0
07C0
07C0
ENDCHAR
STARTCHAR 01D0
ENCODING 464
SWIDTH 252 0
DWIDTH 14 0
BBX 15 43 0 0
BITMAP
4008
E01C
F03E
7C7C
7EF8
3FF0
1FE0
0FC0
0780
0300
0000
0000
0000
0000
0FC0
0FC0
0FC0
0FC0
0FC0
0FC0
0FC0
0FC0
0FC0
0FC0
0FC0
0FC0
0FC0
0FC0
0FC0
0FC0
0FC0
0FC0
0FC0
0FC0
0FC0
0FC0
0FC0
0FC0
0FC0
0FC0
0FC0
0FC0
0FC0
ENDCHAR
STARTCHAR 01D1
ENCODING 465
SWIDTH 774 0
DWIDTH 43 0
BBX 37 52 3 0
BITMAP
000C018000
001F03C000
000F87C000
0007DF8000
0003FF0000
0001FE0000
0001FC0000
0000F80000
0000700000
0000200000
0000000000
0000000000
0007FF8000
003FFFE000
00FFFFF800
01FFFFFC00
03FF8FFE00
07F800FF00
0FE0003F80
1FC0001FC0
1F80000FC0
3F800007E0
3F000007E0
7E000003F0
7E000003F0
7E000003F0
7C000001F8
FC000001F8
FC000001F8
FC000001F8
FC000001F8
FC000001F8
FC000001F8
FC000001F8
FC000001F8
FC000001F8
7C000001F8
7E000001F0
7E000003F0
7E000003F0
3F000007F0
3F000007E0
1F80000FE0
1FC0001FC0
0FE0003F80
07F0007F80
07FE01FF00
03FFFFFE00
00FFFFFC00
007FFFF000
001FFFC000
0001FC0000
ENDCHAR
STARTCHAR 01D2
ENCODING 466
SWIDTH 576 0
DWIDTH 32 0
BBX 27 44 3 -1
BITMAP
00802000
01C07000
03E0F800
01F1F000
00FBE000
007FC000
003F8000
001F0000
000E0000
000C0000
00000000
00000000
00000000
000E0000
00FFE000
03FFF800
07FFFC00
0FFFFE00
1FC0FF00
3F803F80
3F001F80
7E000FC0
7C000FC0
FC0007C0
FC0007E0
F80007E0
F80007E0
F80003E0
F80003E0
F80003E0
F80007E0
F80007E0
FC0007E0
FC0007C0
7C000FC0
7E000FC0
3F001F80
3F803F80
1FC07F00
0FFFFE00
07FFFC00
03FFF800
00FFE000
001F0000
ENDCHAR
STARTCHAR 01D3
ENCODING 467
SWIDTH 684 0
DWIDTH 38 0
BBX 30 53 4 -1
BITMAP
00000800
00601C00
00F03C00
00F87C00
007CF800
003FF000
001FE000
000FC000
00078000
00030000
00000000
00000000
00000000
FC0000FC
FC0000FC
FC0000FC
FC0000FC
FC0000FC
FC0000FC
FC0000FC
FC0000FC
FC0000FC
FC0000FC
FC0000FC
FC0000FC
FC0000FC
FC0000FC
FC0000FC
FC0000FC
FC0000FC
FC0000FC
FC0000FC
FC0000FC
FC0000FC
FC0000FC
FC0000FC
FC0000FC
FC0000FC
7C0000FC
7C0000FC
7C0000FC
7C0000F8
7E0001F8
7E0001F8
3F0003F8
3F0003F0
1FC007F0
1FF01FE0
0FFFFFC0
07FFFF80
03FFFF00
00FFFC00
001FE000
ENDCHAR
STARTCHAR 01D4
ENCODING 468
SWIDTH 558 0
DWIDTH 31 0
BBX 23 44 4 -1
BITMAP
020040
0700C0
0F83E0
07C7C0
03EF80
01FF00
00FF00
007E00
003C00
001800
000000
000000
000000
000000
F8003E
F8003E
F8003E
F8003E
F8003E
F8003E
F8003E
F8003E
F8003E
F8003E
F8003E
F8003E
F8003E
F8003E
F8003E
F8003E
F8003E
F8003E
F8003E
FC003E
FC003E
7C003E
7E003E
7F003E
3F803E
3FFFFE
1FFFFE
0FFFFE
03FFFC
001E00
ENDCHAR
STARTCHAR 01D5
ENCODING 469
SWIDTH 684 0
DWIDTH 38 0
BBX 30 54 4 -1
BITMAP
00FFFC00
00FFFC00
00FFFC00
00000000
00000000
00400800
01F03E00
01F03F00
03F83F00
01F03F00
01F03E00
00400800
00000000
00000000
FC0000FC
FC0000FC
FC0000FC
FC0000FC
FC0000FC
FC0000FC
FC0000FC
FC0000FC
FC0000FC
FC0000FC
FC0000FC
FC0000FC
FC0000FC
FC0000FC
FC0000FC
FC0000FC
FC0000FC
FC0000FC
FC0000FC
FC0000FC
FC0000FC
FC0000FC
FC0000FC
FC0000FC
FC0000FC
7C0000FC
7C0000FC
7C0000FC
7C0000F8
7E0001F8
7E0001F8
3F0003F8
3F0003F0
1FC007F0
1FF01FE0
0FFFFFC0
07FFFF80
03FFFF00
00FFFC00
001FE000
ENDCHAR
STARTCHAR 01D6
ENCODING 470
SWIDTH 558 0
DWIDTH 31 0
BBX 23 46 4 -1
BITMAP
07FFE0
07FFE0
07FFE0
07FFE0
000000
000000
0600E0
0F81F0
1F83F0
1F83F0
1F81F0
0F01F0
000000
000000
000000
000000
F8003E
F8003E
F8003E
F8003E
F8003E
F8003E
F8003E
F8003E
F8003E
F8003E
F8003E
F8003E
F8003E
F8003E
F8003E
F8003E
F8003E
F8003E
F8003E
FC003E
FC003E
7C003E
7E003E
7F003E
3F803E
3FFFFE
1FFFFE
0FFFFE
03FFFC
001E00
ENDCHAR
STARTCHAR 01D7
ENCODING 471
SWIDTH 684 0
DWIDTH 38 0
BBX 30 54 4 -1
BITMAP
00006000
0000F000
0000F800
0001F000
0003E000
0103C300
07C78F80
07CF8FC0
07E30FC0
07C00FC0
07C00F80
01000200
00000000
00000000
FC0000FC
FC0000FC
FC0000FC
FC0000FC
FC0000FC
FC0000FC
FC0000FC
FC0000FC
FC0000FC
FC0000FC
FC0000FC
FC0000FC
FC0000FC
FC0000FC
FC0000FC
FC0000FC
FC0000FC
FC0000FC
FC0000FC
FC0000FC
FC0000FC
FC0000FC
FC0000FC
FC0000FC
FC0000FC
7C0000FC
7C0000FC
7C0000FC
7C0000F8
7E0001F8
7E0001F8
3F0003F8
3F0003F0
1FC007F0
1FF01FE0
0FFFFFC0
07FFFF80
03FFFF00
00FFFC00
001FE000
ENDCHAR
STARTCHAR 01D8
ENCODING 472
SWIDTH 558 0
DWIDTH 31 0
BBX 23 48 4 -1
BITMAP
000300
000780
0007C0
000F80
001F00
001E00
003E00
003C00
0618E0
1F01F0
1F81F8
1F81F8
1F81F0
0F01F0
000000
000000
000000
000000
F8003E
F8003E
F8003E
F8003E
F8003E
F8003E
F8003E
F8003E
F8003E
F8003E
F8003E
F8003E
F8003E
F8003E
F8003E
F8003E
F8003E
F8003E
F8003E
FC003E
FC003E
7C003E
7E003E
7F003E
3F803E
3FFFFE
1FFFFE
0FFFFE
03FFFC
001E00
ENDCHAR
STARTCHAR 01D9
ENCODING 473
SWIDTH 684 0
DWIDTH 38 0
BBX 30 54 4 -1
BITMAP
00601800
00787C00
007CF800
003FF000
001FE000
01078200
07C30F80
07C00FC0
07E00FC0
07C00FC0
07C00F80
01000200
00000000
00000000
FC0000FC
FC0000FC
FC0000FC
FC0000FC
FC0000FC
FC0000FC
FC0000FC
FC0000FC
FC0000FC
FC0000FC
FC0000FC
FC0000FC
FC0000FC
FC0000FC
FC0000FC
FC0000FC
FC0000FC
FC0000FC
FC0000FC
FC0000FC
FC0000FC
FC0000FC
FC0000FC
FC0000FC
FC0000FC
7C0000FC
7C0000FC
7C0000FC
7C0000F8
7E0001F8
7E0001F8
3F0003F8
3F0003F0
1FC007F0
1FF01FE0
0FFFFFC0
07FFFF80
03FFFF00
00FFFC00
001FE000
ENDCHAR
STARTCHAR 01DA
ENCODING 474
SWIDTH 558 0
DWIDTH 31 0
BBX 23 47 4 -1
BITMAP
030080
0783C0
07E7C0
03FF80
00FF00
007E00
003800
060060
1F01F0
1F81F8
1F81F8
1F81F8
0F00F0
000000
000000
000000
000000
F8003E
F8003E
F8003E
F8003E
F8003E
F8003E
F8003E
F8003E
F8003E
F8003E
F8003E
F8003E
F8003E
F8003E
F8003E
F8003E
F8003E
F8003E
F8003E
FC003E
FC003E
7C003E
7E003E
7F003E
3F803E
3FFFFE
1FFFFE
0FFFFE
03FFFC
001E00
ENDCHAR
STARTCHAR 01DB
ENCODING 475
SWIDTH 684 0
DWIDTH 38 0
BBX 30 54 4 -1
BITMAP
00080000
003C0000
007E0000
003E0000
001F0000
010F8300
07C78F80
07C3CFC0
07E18FC0
07C10FC0
07C00F80
01000200
00000000
00000000
FC0000FC
FC0000FC
FC0000FC
FC0000FC
FC0000FC
FC0000FC
FC0000FC
FC0000FC
FC0000FC
FC0000FC
FC0000FC
FC0000FC
FC0000FC
FC0000FC
FC0000FC
FC0000FC
FC0000FC
FC0000FC
FC0000FC
FC0000FC
FC0000FC
FC0000FC
FC0000FC
FC0000FC
FC0000FC
7C0000FC
7C0000FC
7C0000FC
7C0000F8
7E0001F8
7E0001F8
3F0003F8
3F0003F0
1FC007F0
1FF01FE0
0FFFFFC0
07FFFF80
03FFFF00
00FFFC00
001FE000
ENDCHAR
STARTCHAR 01DC
ENCODING 476
SWIDTH 558 0
DWIDTH 31 0
BBX 23 48 4 -1
BITMAP
008000
01C000
03E000
03F000
01F000
00F800
007C00
003C00
0618E0
1F01F0
1F81F8
1F81F8
1F81F0
0F01F0
000000
000000
000000
000000
F8003E
F8003E
F8003E
F8003E
F8003E
F8003E
F8003E
F8003E
F8003E
F8003E
F8003E
F8003E
F8003E
F8003E
F8003E
F8003E
F8003E
F8003E
F8003E
FC003E
FC003E
7C003E
7E003E
7F003E
3F803E
3FFFFE
1FFFFE
0FFFFE
03FFFC
001E00
ENDCHAR
STARTCHAR 01DD
ENCODING 477
SWIDTH 558 0
DWIDTH 31 0
BBX 25 31 3 -1
BITMAP
00F00000
1FFF8000
3FFFE000
3FFFF000
3FFFF800
3803FC00
0000FE00
00007E00
00003F00
00001F00
00001F00
00001F80
00001F80
00000F80
FFFFFF80
FFFFFF80
FFFFFF80
FFFFFF80
F8000F80
F8001F80
F8001F00
FC001F00
7C003F00
7E003E00
7E007E00
3F81FC00
1FFFF800
1FFFF000
07FFE000
03FF8000
003C0000
ENDCHAR
STARTCHAR 01DE
ENCODING 478
SWIDTH 648 0
DWIDTH 36 0
BBX 35 53 1 0
BITMAP
003FFF0000
003FFF0000
003FFF0000
0000000000
0000000000
0018030000
007C078000
007E0FC000
007E0FC000
007E0FC000
007C078000
0010000000
0000000000
0000000000
0001F00000
0003F00000
0003F80000
0003F80000
0007FC0000
0007FC0000
000FFE0000
000FBE0000
001F3F0000
001F3F0000
003F1F0000
003E1F8000
003E0F8000
007C0FC000
007C07C000
00FC07C000
00F807E000
00F803E000
01F003F000
01F003F000
03F001F000
03E001F800
03E000F800
07E000FC00
07C000FC00
0FFFFFFC00
0FFFFFFE00
0FFFFFFE00
1FFFFFFF00
1F00003F00
1F00003F00
3F00001F80
3E00001F80
7E00001F80
7E00000FC0
7C00000FC0
FC000007C0
FC000007E0
F8000007E0
ENDCHAR
STARTCHAR 01DF
ENCODING 479
SWIDTH 522 0
DWIDTH 29 0
BBX 23 46 2 -1
BITMAP
03FFF0
03FFF0
03FFF0
03FFF0
000000
000000
030060
0780F8
0FC1F8
0FC1F8
0FC1F8
0780F0
000000
000000
000000
003800
0FFFC0
0FFFE0
0FFFF8
0FFFF8
0801FC
0000FC
00007C
00007E
00003E
00003E
00003E
001C3E
03FFFE
0FFFFE
1FFFFE
3FFFFE
7F003E
7E003E
7C003E
FC003E
FC003E
FC003E
7C003E
7E003E
7F003E
3FFFFE
3FFFFE
1FFFFE
07FFFE
003C00
ENDCHAR
STARTCHAR 01E0
ENCODING 480
SWIDTH 648 0
DWIDTH 36 0
BBX 35 53 1 0
BITMAP
003FFF0000
003FFF0000
003FFF0000
0000000000
0000000000
0000E00000
0001F00000
0003F00000
0003F00000
0003F00000
0001F00000
0000400000
0000000000
0000000000
0001F00000
0003F00000
0003F80000
0003F80000
0007FC0000
0007FC0000
000FFE0000
000FBE0000
001F3F0000
001F3F0000
003F1F0000
003E1F8000
003E0F8000
007C0FC000
007C07C000
00FC07C000
00F807E000
00F803E000
01F003F000
01F003F000
03F001F000
03E001F800
03E000F800
07E000FC00
07C000FC00
0FFFFFFC00
0FFFFFFE00
0FFFFFFE00
1FFFFFFF00
1F00003F00
1F00003F00
3F00001F80
3E00001F80
7E00001F80
7E00000FC0
7C00000FC0
FC000007C0
FC000007E0
F8000007E0
ENDCHAR
STARTCHAR 01E1
ENCODING 481
SWIDTH 522 0
DWIDTH 29 0
BBX 23 46 2 -1
BITMAP
03FFF0
03FFF0
03FFF0
03FFF0
000000
000000
001C00
003E00
003F00
003F00
003E00
003E00
000000
000000
000000
003800
0FFFC0
0FFFE0
0FFFF8
0FFFF8
0801FC
0000FC
00007C
00007E
00003E
00003E
00003E
001C3E
03FFFE
0FFFFE
1FFFFE
3FFFFE
7F003E
7E003E
7C003E
FC003E
FC003E
FC003E
7C003E
7E003E
7F003E
3FFFFE
3FFFFE
1FFFFE
07FFFE
003C00
ENDCHAR
STARTCHAR 01E2
ENCODING 482
SWIDTH 918 0
DWIDTH 51 0
BBX 49 48 1 0
BITMAP
000001FFFE0000
000001FFFE0000
000001FFFE0000
000001FFFE0000
00000000000000
00000000000000
00000000000000
00000000000000
00000000000000
000001FFFFFF00
000003FFFFFF00
000007FFFFFF00
000007FFFFFF00
00000FFFFFFF00
00001FFE000000
00001F7E000000
00003E7E000000
00007E7E000000
00007C7E000000
0000F87E000000
0001F87E000000
0001F07E000000
0003F07E000000
0007E07E000000
0007C07E000000
000FC07E000000
000F807FFFFC00
001F007FFFFC00
003F007FFFFC00
003E007FFFFC00
007E007E000000
007C007E000000
00FC007E000000
01F8007E000000
01FFFFFE000000
03FFFFFE000000
03FFFFFE000000
07FFFFFE000000
0FC0007E000000
0FC0007E000000
1F80007E000000
1F00007E000000
3F00007E000000
3E00007FFFFF80
7E00007FFFFF80
7C00007FFFFF80
FC00007FFFFF80
F800007FFFFF80
ENDCHAR
STARTCHAR 01E3
ENCODING 483
SWIDTH 846 0
DWIDTH 47 0
BBX 43 41 2 -1
BITMAP
0003FFF80000
0003FFF80000
0003FFF80000
0003FFF80000
0003FFF80000
000000000000
000000000000
000000000000
000000000000
000000000000
003800038000
0FFF803FF000
0FFFE0FFFC00
0FFFF1FFFE00
0FFFFBFFFF00
0801FFE03F80
0000FFC01F80
00007F800FC0
00007F000FC0
00003F0007C0
00003E0007C0
00003E0007E0
001C3E0007E0
03FFFFFFFFE0
0FFFFFFFFFE0
1FFFFFFFFFE0
3FFFFFFFFFE0
7F003E000000
7E003E000000
7C003E000000
FC003F000000
FC003F000000
FC001F800000
7C001F800000
7E001FC00000
7F007FF00300
3FFFFFFFFF00
3FFFFFFFFF00
0FFFF9FFFF80
07FFE07FFF00
007C0007E000
ENDCHAR
STARTCHAR 01E4
ENCODING 484
SWIDTH 702 0
DWIDTH 39 0
BBX 35 40 3 -1
BITMAP
0007FFC000
003FFFF800
00FFFFFC00
01FFFFFC00
03FF83FC00
07F8003800
0FF0000800
1FC0000000
1F80000000
3F80000000
3F00000000
3F00000000
7E00000000
7E00000000
7E00000000
7C00000000
FC00000000
FC00000000
FC00000000
FC00007E00
FC00007E00
FC00007E00
FC00007E00
FC00007E00
7C001FFFE0
7E001FFFE0
7E001FFFE0
7E001FFFE0
3F00007E00
3F00007E00
3F80007E00
1FC0007E00
0FE0007E00
0FF0007E00
07FE007E00
03FFFFFE00
01FFFFFE00
007FFFFE00
001FFFF800
0001FE0000
ENDCHAR
STARTCHAR 01E5
ENCODING 485
SWIDTH 576 0
DWIDTH 32 0
BBX 29 39 3 -9
BITMAP
00FFFE00
03FFFF80
07FFFF80
0FFFFF80
1FE01F80
3F801F80
7F001F80
7E001F80
7C001F80
FC001F80
FC001F80
F8001F80
F807FFF8
F807FFF8
F807FFF8
F807FFF8
F8001F80
FC001F80
FC001F80
7C001F80
7E001F80
7F001F80
3F803F80
1FFFFF80
0FFFFF80
07FFFF80
03FFEF80
007F0F80
00001F80
00001F00
00001F00
00001F00
00003F00
20007E00
3F03FE00
3FFFFC00
3FFFF800
7FFFE000
0FFF8000
ENDCHAR
STARTCHAR 01E6
ENCODING 486
SWIDTH 666 0
DWIDTH 37 0
BBX 31 53 3 -1
BITMAP
00080000
000C0300
001E0780
001F0F80
000F9F00
0007FE00
0003FC00
0001F800
0000F000
00006000
00000000
00000000
00000000
0007FFC0
003FFFF8
00FFFFFC
01FFFFFC
03FF87FC
07F80038
0FF00008
0FC00000
1F800000
3F800000
3F000000
3F000000
7E000000
7E000000
7E000000
7C000000
FC000000
FC000000
FC000000
FC000000
FC00007E
FC00007E
FC00007E
FC00007E
7C00007E
7E00007E
7E00007E
7E00007E
3F00007E
3F00007E
3F80007E
1FC0007E
0FE0007E
0FF0007E
07FE007E
03FFFFFE
01FFFFFE
007FFFFE
001FFFF8
0001FE00
ENDCHAR
STARTCHAR 01E7
ENCODING 487
SWIDTH 576 0
DWIDTH 32 0
BBX 25 53 3 -10
BITMAP
01002000
03807000
07C0F800
03E1F000
01FBE000
00FFC000
007F8000
003F0000
001E0000
000C0000
00000000
00000000
00000000
00000000
00FFFE00
03FFFF80
07FFFF80
0FFFFF80
1FE01F80
3F801F80
7F001F80
7E001F80
7C001F80
FC001F80
FC001F80
F8001F80
F8001F80
F8001F80
F8001F80
F8001F80
F8001F80
FC001F80
FC001F80
7C001F80
7E001F80
7F001F80
3F803F80
1FFFFF80
0FFFFF80
07FFFF80
03FFEF80
007F0F80
00001F80
00001F80
00001F00
00001F00
00003F00
20007E00
3C01FE00
3FFFFC00
3FFFF800
3FFFF000
1FFFC000
ENDCHAR
STARTCHAR 01E8
ENCODING 488
SWIDTH 612 0
DWIDTH 34 0
BBX 29 51 5 1
BITMAP
03806000
07C0F000
03E1F000
01F3E000
00FFC000
007F8000
003F0000
001E0000
000C0000
00080000
00000000
00000000
F80003F0
F80007E0
F8000FC0
F8001FC0
F8003F80
F8007F00
F800FE00
F801FC00
F803F800
F807F000
F80FE000
F81FC000
F83F8000
F87F0000
F8FE0000
F9FC0000
FBF80000
FFF00000
FFE00000
FFF00000
FFF80000
FBFE0000
F8FF0000
F87F8000
F83FC000
F81FE000
F807F000
F803F800
F801FC00
F800FE00
F8007E00
F8007F00
F8003F80
F8001FC0
F8000FE0
F80007E0
F80003F0
F80003F8
F80001F8
ENDCHAR
STARTCHAR 01E9
ENCODING 489
SWIDTH 522 0
DWIDTH 29 0
BBX 25 53 3 0
BITMAP
60180000
F8780000
7DF80000
3FF00000
1FC00000
0F800000
03000000
00000000
00000000
00000000
1E000000
7E000000
7E000000
7E000000
7E000000
7E000000
7E000000
7E000000
7E000000
7E000000
7E000000
7E000000
7E000000
7E000000
7E003F00
7E007E00
7E00FC00
7E01F800
7E03F000
7E07E000
7E0FC000
7E1F8000
7E3F0000
7E7E0000
7EFC0000
7FF80000
7FF00000
7FF00000
7FFC0000
7FFE0000
7EFF0000
7E3F8000
7E1F8000
7E0FC000
7E07E000
7E03F000
7E03F800
7E01FC00
7E00FC00
7E007E00
7E003F00
7E003F00
7E001F80
ENDCHAR
STARTCHAR 01EA
ENCODING 490
SWIDTH 774 0
DWIDTH 43 0
BBX 37 49 3 -10
BITMAP
0007FF8000
003FFFE000
00FFFFF800
01FFFFFC00
03FF8FFE00
07F800FF00
0FE0003F80
1FC0001FC0
1F80000FC0
3F800007E0
3F000007E0
7E000003F0
7E000003F0
7E000003F0
7C000001F8
FC000001F8
FC000001F8
FC000001F8
FC000001F8
FC000001F8
FC000001F8
FC000001F8
FC000001F8
FC000001F8
7C000001F8
7E000001F0
7E000003F0
7E000003F0
3F000007F0
3F000007E0
1F80000FE0
1FC0001FC0
0FE0003F80
07F0007F80
07FE01FF00
03FFFFFE00
00FFFFF800
007FFFF000
001FFFC000
0001FF0000
00003E0000
00007C0000
0000780000
0000F80000
0000F80000
0000FC0000
0000FF8000
00007FC000
00003FC000
ENDCHAR
STARTCHAR 01EB
ENCODING 491
SWIDTH 576 0
DWIDTH 32 0
BBX 27 40 3 -10
BITMAP
000E0000
00FFE000
03FFF800
07FFFC00
0FFFFE00
1FC0FF00
3F803F80
3F001F80
7E000FC0
7C000FC0
FC0007C0
FC0007E0
F80007E0
F80007E0
F80003E0
F80003E0
F80003E0
F80007E0
F80007E0
FC0007E0
FC0007C0
7C000FC0
7E000FC0
3F001F80
3F803F80
1FC07F00
0FFFFE00
07FFFC00
03FFF800
00FFE000
001FC000
001F0000
001E0000
003E0000
007C0000
007C0000
007E2000
007FE000
003FE000
001FE000
ENDCHAR
STARTCHAR 01EC
ENCODING 492
SWIDTH 774 0
DWIDTH 43 0
BBX 37 58 3 -10
BITMAP
001FFFE000
001FFFE000
001FFFE000
001FFFE000
0000000000
0000000000
0000000000
0000000000
0000000000
0007FF8000
003FFFE000
00FFFFF800
01FFFFFC00
03FF8FFE00
07F800FF00
0FE0003F80
1FC0001FC0
1F80000FC0
3F800007E0
3F000007E0
7E000003F0
7E000003F0
7E000003F0
7C000001F8
FC000001F8
FC000001F8
FC000001F8
FC000001F8
FC000001F8
FC000001F8
FC000001F8
FC000001F8
FC000001F8
7C000001F8
7E000001F0
7E000003F0
7E000003F0
3F000007F0
3F000007E0
1F80000FE0
1FC0001FC0
0FE0003F80
07F0007F80
07FE01FF00
03FFFFFE00
00FFFFF800
007FFFF000
001FFFC000
0001FF0000
00003E0000
00007C0000
0000780000
0000F80000
0000F80000
0000FC0000
0000FF8000
00007FC000
00003FC000
ENDCHAR
STARTCHAR 01ED
ENCODING 493
SWIDTH 576 0
DWIDTH 32 0
BBX 27 50 3 -10
BITMAP
07FFF800
07FFF800
07FFF800
07FFF800
07FFF800
00000000
00000000
00000000
00000000
00000000
000E0000
00FFE000
03FFF800
07FFFC00
0FFFFE00
1FC0FF00
3F803F80
3F001F80
7E000FC0
7C000FC0
FC0007C0
FC0007E0
F80007E0
F80007E0
F80003E0
F80003E0
F80003E0
F80007E0
F80007E0
FC0007E0
FC0007C0
7C000FC0
7E000FC0
3F001F80
3F803F80
1FC07F00
0FFFFE00
07FFFC00
03FFF800
00FFE000
001FC000
001F0000
001E0000
003E0000
007C0000
007C0000
007E2000
007FE000
003FE000
001FE000
ENDCHAR
STARTCHAR 01EE
ENCODING 494
SWIDTH 558 0
DWIDTH 31 0
BBX 27 52 2 0
BITMAP
01803000
03C07800
01F1F000
00FBE000
007FE000
007FC000
003F8000
001F0000
000E0000
00040000
00000000
00000000
7FFFFFC0
7FFFFFC0
7FFFFFC0
7FFFFFC0
7FFFFF80
00001F80
00003F00
00007E00
0000FC00
0001F800
0003F000
0003E000
0007E000
000FC000
001F8000
003F0000
007E0000
00FFC000
00FFF800
00FFFC00
00FFFF00
0000FF80
00003F80
00001FC0
00000FC0
000007C0
000007E0
000007E0
000007E0
000007E0
000007E0
00000FC0
00000FC0
60003FC0
FC00FF80
FFFFFF00
FFFFFE00
FFFFFC00
1FFFF000
01FE0000
ENDCHAR
STARTCHAR 01EF
ENCODING 495
SWIDTH 468 0
DWIDTH 26 0
BBX 24 53 0 -10
BITMAP
040080
0601C0
0F83E0
07C7C0
03EF80
01FF00
01FE00
00FC00
007800
003000
000000
000000
000000
000000
7FFFFE
7FFFFE
7FFFFE
7FFFFC
0000FC
0000F8
0001F0
0003F0
0007E0
0007C0
000FC0
001F80
003F00
007E00
007C00
00F800
01F800
01FF80
01FFE0
01FFF8
000FFC
0001FC
00007E
00003E
00003F
00003F
00001F
00001F
00001F
00003F
00003F
00007E
00007E
4001FC
7C1FFC
FFFFF8
FFFFF0
FFFFC0
3FFF00
ENDCHAR
STARTCHAR 01F0
ENCODING 496
SWIDTH 252 0
DWIDTH 14 0
BBX 19 53 -4 -10
BITMAP
040080
0E01C0
0F03E0
07C7C0
07EF80
03FF00
01FE00
00FC00
007800
003000
000000
000000
000000
000000
00FC00
00FC00
00FC00
00FC00
00FC00
00FC00
00FC00
00FC00
00FC00
00FC00
00FC00
00FC00
00FC00
00FC00
00FC00
00FC00
00FC00
00FC00
00FC00
00FC00
00FC00
00FC00
00FC00
00FC00
00FC00
00FC00
00FC00
00FC00
00FC00
00FC00
00F800
00F800
00F800
01F800
07F000
7FF000
7FE000
FFC000
FF0000
ENDCHAR
STARTCHAR 01F1
ENCODING 497
SWIDTH 1278 0
DWIDTH 71 0
BBX 65 39 5 0
BITMAP
1FFE000003FFFFFF00
FFFFE00003FFFFFF00
FFFFFC0003FFFFFF00
FFFFFF0003FFFFFF00
FFFFFF8003FFFFFF00
F800FFC00000007E00
F8001FE0000000FE00
F8000FF0000001FC00
F80003F8000001F800
F80001F8000003F000
F80001FC000007E000
F80000FC00000FC000
F80000FC00000FC000
F800007E00001F8000
F800007E00003F0000
F800007E00007E0000
F800007E00007E0000
F800003E0000FC0000
F800003E0001F80000
F800003E0001F80000
F800003E0003F00000
F800003E0007E00000
F800007E000FC00000
F800007E000FC00000
F800007E001F800000
F800007E001F000000
F800007E003F000000
F80000FC007E000000
F80000FC007C000000
F80001F800FC000000
F80003F801F8000000
F80007F001F8000000
F8000FE003F0000000
F8003FE003E0000000
FC0FFF8007FFFFFF80
FFFFFF0007FFFFFF80
FFFFFE0007FFFFFF80
FFFFF80007FFFFFF80
FFFF800007FFFFFF80
ENDCHAR
STARTCHAR 01F2
ENCODING 498
SWIDTH 1188 0
DWIDTH 66 0
BBX 59 39 5 0
BITMAP
1FFE000000000000
FFFFE00000000000
FFFFFC0000000000
FFFFFF0000000000
FFFFFF8000000000
F800FFC000000000
F8001FE000000000
F8000FF000000000
F80003F800000000
F80001F800000000
F80001FC03FFFFC0
F80000FC03FFFFC0
F80000FC03FFFFC0
F800007E03FFFFC0
F800007E00000FC0
F800007E00001F80
F800007E00003F00
F800003E00007E00
F800003E00007E00
F800003E0000FC00
F800003E0001F800
F800003E0003F000
F800007E0003E000
F800007E0007E000
F800007E000FC000
F800007E001F8000
F800007E001F0000
F80000FC003F0000
F80000FC007E0000
F80001F8007C0000
F80003F800FC0000
F80007F001F80000
F8000FE001F00000
F8003FE003F00000
FC0FFF8007E00000
FFFFFF0007FFFFE0
FFFFFE0007FFFFE0
FFFFF80007FFFFE0
FFFF800007FFFFE0
ENDCHAR
STARTCHAR 01F3
ENCODING 499
SWIDTH 1062 0
DWIDTH 59 0
BBX 54 44 3 -1
BITMAP
00000380000000
00000F80000000
00000F80000000
00000F80000000
00000F80000000
00000F80000000
00000F80000000
00000F80000000
00000F80000000
00000F80000000
00000F80000000
00000F80000000
00000F80000000
000C0F80000000
01FFCF807FFFFC
03FFFF807FFFFC
0FFFFF807FFFFC
1FFFFF807FFFFC
1FC07F800001F8
3F801F800003F0
7F000F800007E0
7E000F80000FE0
7C000F80000FC0
FC000F80001F80
FC000F80003F00
F8000F80007E00
F8000F80007E00
F8000F8000FC00
F8000F8001F800
F8000F8003F000
F8000F8003F000
F8000F8007E000
FC000F800FC000
FC000F800F8000
7C000F801F8000
7E000F803F0000
3F000F803E0000
3F800F807E0000
1FE00F807C0000
0FFFFF80FFFFFC
07FFFF80FFFFFC
03FFFF80FFFFFC
00FFFF00FFFFFC
000FC000000000
ENDCHAR
STARTCHAR 01F4
ENCODING 500
SWIDTH 666 0
DWIDTH 37 0
BBX 31 53 3 -1
BITMAP
00000400
00000E00
00000F00
00001F80
00003F00
00007E00
0000FC00
0001F800
0001F000
0001E000
0000C000
00000000
00000000
0007FFC0
003FFFF8
00FFFFFC
01FFFFFC
03FF87FC
07F80038
0FF00008
0FC00000
1F800000
3F800000
3F000000
3F000000
7E000000
7E000000
7E000000
7C000000
FC000000
FC000000
FC000000
FC000000
FC00007E
FC00007E
FC00007E
FC00007E
7C00007E
7E00007E
7E00007E
7E00007E
3F00007E
3F00007E
3F80007E
1FC0007E
0FE0007E
0FF0007E
07FE007E
03FFFFFE
01FFFFFE
007FFFFE
001FFFF8
0001FE00
ENDCHAR
STARTCHAR 01F5
ENCODING 501
SWIDTH 576 0
DWIDTH 32 0
BBX 25 53 3 -10
BITMAP
00008000
0001C000
0001E000
0003F000
0007E000
000FC000
001F8000
003F0000
003E0000
001C0000
00080000
00000000
00000000
00000000
00FFFE00
03FFFF80
07FFFF80
0FFFFF80
1FE01F80
3F801F80
7F001F80
7E001F80
7C001F80
FC001F80
FC001F80
F8001F80
F8001F80
F8001F80
F8001F80
F8001F80
F8001F80
FC001F80
FC001F80
7C001F80
7E001F80
7F001F80
3F803F80
1FFFFF80
0FFFFF80
07FFFF80
03FFEF80
007F0F80
00001F80
00001F80
00001F00
00001F00
00003F00
20007E00
3C01FE00
3FFFFC00
3FFFF800
3FFFF000
1FFFC000
ENDCHAR
STARTCHAR 01F6
ENCODING 502
SWIDTH 1044 0
DWIDTH 58 0
BBX 50 40 5 -1
BITMAP
F80000F8000000
F80000F8000000
F80000F8000000
F80000F8000000
F80000F8000000
F80000F8000000
F80000F8000000
F80000F8000000
F80000F8000000
F80000F8000000
F80000F8000FC0
F80000F8000FC0
F80000F8000FC0
F80000F8000FC0
F80000F8000FC0
F80000F8000FC0
F80000F8000FC0
FFFFFFF8000FC0
FFFFFFF8000FC0
FFFFFFF8000FC0
FFFFFFF8000FC0
F80000F8000FC0
F80000F8000FC0
F80000F8000FC0
F80000F8000FC0
F80000F8000FC0
F80000F8000FC0
F80000FC000FC0
F80000FC000FC0
F80000FC000F80
F80000FC000F80
F800007C001F80
F800007E001F80
F800007F003F00
F800003F80FF00
F800003FFFFE00
F800001FFFFC00
F800000FFFF800
F8000003FFF000
000000007F8000
ENDCHAR
STARTCHAR 01F7
ENCODING 503
SWIDTH 630 0
DWIDTH 35 0
BBX 28 49 5 -10
BITMAP
00FF8000
1FFFF000
FFFFFC00
FFFFFF00
FFFFFF80
FE00FF80
F8001FC0
F8000FE0
F80007E0
F80007E0
F80003F0
F80003F0
F80003F0
F80003F0
F80003F0
F80003F0
F80003F0
F80003F0
F80003F0
F80003E0
F80007E0
F80007E0
F8000FC0
F8000FC0
F8001F80
F8003F80
F8007F00
F800FE00
F801FE00
F803FC00
F80FF800
F83FE000
F8FFC000
FBFF0000
FFFE0000
FFF80000
FFE00000
FF800000
FC000000
F8000000
F8000000
F8000000
F8000000
F8000000
F8000000
F8000000
F8000000
F8000000
F8000000
ENDCHAR
STARTCHAR 01F8
ENCODING 504
SWIDTH 720 0
DWIDTH 40 0
BBX 31 51 5 1
BITMAP
00180000
003C0000
007E0000
003E0000
001F0000
000F8000
0007C000
0003E000
0001C000
00008000
00000000
00000000
F000007E
F800007E
FC00007E
FE00007E
FF00007E
FF00007E
FF80007E
FFC0007E
FFE0007E
FBF0007E
FBF0007E
F9F8007E
F8FC007E
F87E007E
F83E007E
F83F007E
F81F807E
F80FC07E
F807C07E
F807E07E
F803F07E
F801F07E
F801F87E
F800FC7E
F8007E7E
F8007E7E
F8003F7E
F8001F7E
F8000FFE
F8000FFE
F80007FE
F80003FE
F80003FE
F80001FE
F80001FE
F80000FE
F800007E
F800007E
F800003E
ENDCHAR
STARTCHAR 01F9
ENCODING 505
SWIDTH 558 0
DWIDTH 31 0
BBX 24 43 4 0
BITMAP
008000
01C000
03E000
03F000
01F800
00F800
007C00
003E00
001F00
000E00
000400
000000
000000
000000
3FFFC0
FFFFF0
FFFFF8
FFFFFC
FC01FC
FC00FE
FC007E
FC003E
FC003E
FC003F
FC003F
FC001F
FC001F
FC001F
FC001F
FC001F
FC001F
FC001F
FC001F
FC001F
FC001F
FC001F
FC001F
FC001F
FC001F
FC001F
FC001F
FC001F
FC001F
ENDCHAR
STARTCHAR 01FA
ENCODING 506
SWIDTH 648 0
DWIDTH 36 0
BBX 35 53 1 0
BITMAP
0000180000
00007C0000
0001FC0000
0007FC0000
0007F00000
0007C00000
0002000000
0000400000
0003F80000
0007FC0000
000E1C0000
000E0C0000
000E0E0000
000E0C0000
00061C0000
0007FC0000
0003F80000
0003F80000
0007FC0000
0007FC0000
000FFE0000
000FBE0000
001F3F0000
001F3F0000
003F1F0000
003E1F8000
003E0F8000
007C0FC000
007C07C000
00FC07C000
00F807E000
00F803E000
01F003F000
01F001F000
03F001F000
03E001F800
03E000F800
07E000FC00
07C000FC00
0FFFFFFC00
0FFFFFFE00
0FFFFFFE00
1FFFFFFE00
1F00003F00
1F00003F00
3F00001F80
3E00001F80
7E00000F80
7E00000FC0
7C00000FC0
FC000007C0
FC000007E0
F8000007E0
ENDCHAR
STARTCHAR 01FB
ENCODING 507
SWIDTH 522 0
DWIDTH 29 0
BBX 23 51 2 0
BITMAP
000380
000F80
003F80
00FFC0
00FE00
00F800
004000
000000
003E00
007F80
00E380
00C1C0
01C1C0
01C1C0
00C1C0
00F380
007F00
003E00
000000
000000
003800
0FFFC0
0FFFE0
0FFFF8
0FFFF8
0801FC
0000FC
00007C
00007E
00003E
00003E
00003E
001C3E
03FFFE
0FFFFE
1FFFFE
3FFFFE
7F003E
7E003E
7C003E
FC003E
FC003E
FC003E
7C003E
7E003E
7F003E
3FFFFE
3FFFFE
1FFFFE
07FFFE
003C00
ENDCHAR
ENDFONT
